<svg width="110" height="57" viewBox="0 0 110 57" fill="none" xmlns="http://www.w3.org/2000/svg">
<g clip-path="url(#clip0_972_7419)">
<path d="M71.0434 9.08735C74.2192 8.72853 77.0806 9.05249 80.2804 9.38055C81.0974 9.4653 81.7308 9.45642 82.1807 9.3539C82.9916 9.17141 83.2579 8.36972 83.4902 7.64594C83.6411 7.17572 83.7632 7.18392 83.8567 7.67054C84.0516 8.69163 84.2471 9.79063 84.4434 10.9675C84.9733 14.1333 85.508 17.2964 86.0473 20.4567C86.0713 20.5988 86.0439 20.7273 85.9652 20.8422C85.9552 20.8563 85.9418 20.8674 85.9263 20.8745C85.9108 20.8816 85.8937 20.8843 85.8768 20.8825C85.8599 20.8806 85.8438 20.8742 85.8301 20.8638C85.8165 20.8535 85.8057 20.8397 85.799 20.8237C84.5962 17.9053 82.7647 15.328 80.3044 13.0917C79.402 12.2729 78.3288 11.5006 77.0846 10.7748C75.99 10.1365 74.7885 9.72843 73.4803 9.55073C71.8424 9.33134 70.0623 9.81728 69.1932 11.2895C68.6219 12.2572 68.4623 13.292 68.7146 14.3937C69.1572 16.3252 70.5168 17.0982 72.2248 17.7645C74.4595 18.6359 76.6941 19.1916 78.9328 19.8375C80.237 20.2147 81.4838 20.7513 82.6733 21.447C82.6837 21.4528 82.6925 21.4611 82.6992 21.4712C82.7058 21.4812 82.71 21.4928 82.7113 21.5048C82.7127 21.5169 82.7112 21.5291 82.7071 21.5404C82.7029 21.5518 82.6961 21.5619 82.6873 21.57C82.6512 21.6015 82.5998 21.6172 82.5331 21.6172C75.0976 21.5625 69.1572 21.5523 64.7119 21.5864C64.4476 21.5885 64.2353 21.57 64.1032 21.3158C63.7507 20.646 63.5178 19.9673 63.4043 19.2798C62.9178 16.3313 63.5065 13.2414 65.7752 11.3018C67.2289 10.0579 68.985 9.31973 71.0434 9.08735Z" fill="white"/>
<path d="M47.031 12.3034C47.031 11.9917 46.9409 11.9616 46.7606 12.2132C44.5407 15.2942 42.4308 18.3076 40.4311 21.2533C40.3613 21.3563 40.2681 21.4404 40.1596 21.4982C40.0511 21.5561 39.9306 21.586 39.8084 21.5854C36.7701 21.5704 33.9948 21.5745 31.4825 21.5977C31.1381 21.6018 30.8037 21.567 30.5874 21.2512C29.2885 19.3389 27.9937 17.3733 26.7028 15.3543C26.2703 14.6763 25.8237 14.0305 25.3632 13.4167C25.3325 13.3757 25.2931 13.3463 25.2451 13.3286C25.161 13.2971 25.1196 13.3279 25.1209 13.4208L25.231 21.3824C25.2314 21.4187 25.2244 21.4546 25.2106 21.488C25.1967 21.5213 25.1762 21.5514 25.1505 21.5762C25.1247 21.6011 25.0942 21.6202 25.0608 21.6324C25.0275 21.6445 24.992 21.6495 24.9567 21.6469L24.8346 21.6387C24.7542 21.6325 24.6792 21.595 24.6249 21.5341C24.5705 21.4731 24.541 21.3932 24.5422 21.3107C24.5649 19.453 24.5536 17.8039 24.5082 16.3631C24.4788 15.3912 24.352 14.3367 24.1277 13.1994C23.8487 11.7751 23.2487 10.8182 22.3276 10.3289C21.7602 10.0295 20.9613 9.8067 19.9307 9.66044C19.9216 9.65903 19.9128 9.65565 19.905 9.65054C19.8972 9.64542 19.8905 9.63868 19.8854 9.63075C19.8803 9.62282 19.8769 9.61388 19.8754 9.60452C19.8739 9.59515 19.8743 9.58556 19.8767 9.57638L19.8947 9.50462C19.9034 9.47229 19.9222 9.44378 19.9483 9.42342C19.9743 9.40306 20.0061 9.39197 20.0389 9.39185L32.3375 9.51282C32.443 9.51413 32.5464 9.54243 32.6381 9.59511C32.7298 9.64779 32.8069 9.72314 32.8621 9.81422L39.6562 20.9785C39.6721 21.0047 39.694 21.0264 39.7201 21.0418C39.7462 21.0572 39.7756 21.0657 39.8058 21.0667C39.8361 21.0677 39.8661 21.0612 39.8935 21.0476C39.9208 21.034 39.9445 21.0138 39.9626 20.9888C41.989 18.1346 44.0341 15.1794 46.0979 12.1229C46.6225 11.3438 47.1851 10.5995 47.6717 9.79372C47.7972 9.58595 48.0201 9.48274 48.3405 9.48411C52.7604 9.51555 56.3988 9.47864 59.2555 9.37339C59.4384 9.36656 59.6012 9.41918 59.7441 9.53127C59.7556 9.53991 59.7644 9.55176 59.7695 9.56541C59.7746 9.57905 59.7757 9.59392 59.7728 9.60821C59.7698 9.6225 59.7629 9.63561 59.7528 9.64597C59.7428 9.65633 59.73 9.66349 59.716 9.6666C59.2134 9.78142 58.6728 9.76091 58.2022 9.94545C57.2558 10.3172 56.6658 10.9993 56.4321 11.9917C56.1518 13.1782 55.9896 14.4563 55.9456 15.8259C55.8882 17.6166 55.8761 19.3997 55.9095 21.1754C55.9149 21.4378 55.7894 21.5697 55.5331 21.5711C52.9901 21.5861 50.4424 21.5854 47.89 21.569C47.6831 21.5677 47.4795 21.5595 47.2793 21.5444C47.2139 21.5393 47.1527 21.5091 47.1079 21.4597C47.063 21.4104 47.0377 21.3455 47.037 21.2779L47.031 12.3034Z" fill="white"/>
<path d="M36.4395 23.8018C36.6087 23.7573 36.7194 23.6154 36.6867 23.4849C36.6539 23.3543 36.4902 23.2846 36.321 23.3291C36.1517 23.3736 36.0411 23.5155 36.0738 23.646C36.1065 23.7765 36.2702 23.8463 36.4395 23.8018Z" fill="white"/>
<path d="M29.3442 25.3648L29.3602 28.2948C29.3608 28.3273 29.3531 28.3593 29.338 28.3877C29.3229 28.4161 29.3009 28.4399 29.2741 28.4568C29.1833 28.5142 29.0959 28.4998 29.0118 28.4137C28.9782 28.3781 28.959 28.3312 28.9577 28.2825C28.927 26.8281 28.9023 25.442 28.8836 24.1243C28.8796 23.907 28.9143 23.6971 28.9877 23.4948C29.0017 23.4557 29.0263 23.4215 29.0586 23.3961C29.0909 23.3707 29.1296 23.3553 29.1701 23.3517C29.2107 23.348 29.2514 23.3563 29.2876 23.3754C29.3237 23.3946 29.3537 23.424 29.3742 23.46L31.3465 26.96C31.3613 26.9858 31.3824 27.0072 31.4078 27.022C31.4331 27.0369 31.4617 27.0448 31.4907 27.0448C31.5197 27.0448 31.5482 27.0369 31.5731 27.022C31.5981 27.0072 31.6187 26.9858 31.6329 26.96C32.1428 26.0496 32.6728 25.0695 33.2228 24.0197C33.3389 23.7969 33.4844 23.6165 33.6593 23.4784C33.6917 23.453 33.7306 23.4375 33.7713 23.4339C33.812 23.4303 33.8528 23.4387 33.889 23.4581C33.9252 23.4775 33.9552 23.5071 33.9756 23.5434C33.9959 23.5797 34.0056 23.6212 34.0037 23.663C33.9396 25.1666 33.9329 26.7037 33.9837 28.2743C33.985 28.3282 33.9657 28.3811 33.9296 28.4219C33.8015 28.5695 33.6853 28.5702 33.5812 28.424C33.559 28.3932 33.5465 28.356 33.5452 28.3173C33.5171 27.0844 33.5318 25.8986 33.5892 24.7599C33.6132 24.2719 33.5118 24.2432 33.2848 24.6738L31.745 27.6038C31.7196 27.6516 31.6823 27.6918 31.6369 27.7203C31.5916 27.7488 31.5398 27.7645 31.4868 27.766C31.4337 27.7674 31.3814 27.7545 31.3349 27.7286C31.2885 27.7026 31.2497 27.6645 31.2224 27.6182C30.7432 26.8144 30.294 26.0168 29.8748 25.2254C29.517 24.5515 29.3402 24.5979 29.3442 25.3648Z" fill="white"/>
<path d="M40.8155 28.4116C39.8397 28.6289 38.9653 28.4669 38.1924 27.9256C38.1661 27.9069 38.1466 27.8799 38.1372 27.849C38.1277 27.8181 38.1288 27.7851 38.1403 27.7555L38.1724 27.6652C38.2151 27.5545 38.2898 27.5231 38.3966 27.5709C39.008 27.8484 39.592 28.0036 40.1487 28.0364C40.8475 28.0774 41.4442 27.5832 41.25 26.841C41.2313 26.7658 41.1913 26.7063 41.1299 26.6626C40.8762 26.4781 40.5966 26.3509 40.2909 26.2812C39.558 26.1131 38.0903 25.7789 38.2665 24.6901C38.5148 23.1688 40.2909 23.2282 41.3622 23.7019C41.4263 23.7299 41.4803 23.7775 41.5165 23.8378C41.5528 23.8981 41.5695 23.9681 41.5644 24.0381C41.559 24.0969 41.4996 24.1324 41.3862 24.1447C41.3549 24.1488 41.3229 24.1431 41.2941 24.1283C40.5011 23.7224 39.7736 23.7053 39.1115 24.0771C38.8311 24.2356 38.7077 24.5077 38.741 24.8931C38.7477 24.9751 38.7797 25.0442 38.8371 25.1002C39.3978 25.6477 40.2228 25.6969 40.9396 25.9286C42.1851 26.3304 42.079 28.1266 40.8155 28.4116Z" fill="white"/>
<path d="M70.8934 24.1702C70.5971 24.4018 70.563 24.9431 70.8554 25.2076C71.6283 25.9109 73.3944 25.5931 73.6367 26.8767C73.935 28.4616 72.0568 28.6359 71.0316 28.3837C70.9008 28.3509 70.7739 28.3071 70.6511 28.2525C70.1358 28.0214 69.9516 27.8109 70.0985 27.6209C70.1292 27.5799 70.1679 27.569 70.2146 27.5881C70.9368 27.8902 71.5402 28.0454 72.0248 28.0536C72.5634 28.0638 73.2803 27.6927 73.1801 27.0243C73.0179 25.9376 70.4889 26.4543 70.2146 25.0908C69.8442 23.2331 72.0408 23.2003 73.1441 23.6473C73.1759 23.6595 73.2051 23.6776 73.2302 23.7006C73.4785 23.9234 73.4952 24.0813 73.2803 24.1743C73.2562 24.1846 73.2303 24.1898 73.2041 24.1894C73.1779 24.189 73.1521 24.1832 73.1281 24.1722C72.3932 23.8216 71.5963 23.6227 70.8934 24.1702Z" fill="white"/>
<path d="M75.609 25.0363C75.8066 25.255 76.0408 25.4054 76.3118 25.4874C76.7817 25.6282 77.2556 25.7806 77.7335 25.9446C78.3703 26.1633 78.6793 26.5748 78.6606 27.1789C78.6446 27.7243 78.164 28.2349 77.6354 28.3805C76.701 28.6402 75.8172 28.4673 74.9842 27.8617C74.9538 27.8397 74.9309 27.8085 74.9187 27.7725C74.9064 27.7364 74.9056 27.6974 74.9162 27.6608C74.9535 27.5378 75.0343 27.5002 75.1585 27.548C75.9434 27.8535 77.0207 28.2923 77.7696 27.7346C78.1921 27.4209 78.2862 26.7996 77.7535 26.529C77.5039 26.4019 77.2483 26.3151 76.9866 26.2686C76.2878 26.1476 74.9602 25.6883 75.0764 24.7164C75.2766 23.0474 77.1869 23.2463 78.3462 23.7384C78.3677 23.7479 78.3869 23.7618 78.4028 23.7792C78.4186 23.7967 78.4307 23.8173 78.4383 23.8397C78.4458 23.8621 78.4487 23.8859 78.4466 23.9094C78.4446 23.9329 78.4376 23.9557 78.4263 23.9763L78.3803 24.0624C78.3668 24.0875 78.3449 24.1068 78.3185 24.1169C78.2921 24.1271 78.2629 24.1274 78.2361 24.1177C77.327 23.7835 75.6991 23.4288 75.5409 24.821C75.5359 24.8596 75.5394 24.8989 75.5512 24.9361C75.563 24.9733 75.5827 25.0076 75.609 25.0363Z" fill="white"/>
<path d="M44.0597 25.8736C44.0343 26.5475 44.019 27.2057 44.0136 27.8481C44.0133 27.8674 44.0169 27.8865 44.024 27.9044C44.0311 27.9223 44.0417 27.9386 44.0551 27.9524C44.0685 27.9661 44.0845 27.977 44.1021 27.9845C44.1198 27.9919 44.1387 27.9957 44.1578 27.9957L46.885 28.0101C46.9731 28.0101 47.0312 28.0532 47.0592 28.1393L47.0853 28.2172C47.1173 28.3129 47.0839 28.3648 46.9851 28.373C46.0307 28.4578 44.9894 28.4892 43.8614 28.4673C43.6625 28.4632 43.5637 28.36 43.5651 28.1577L43.5951 23.6305C43.5951 23.605 43.6001 23.5798 43.6098 23.5563C43.6195 23.5327 43.6336 23.5114 43.6515 23.4935C43.6694 23.4756 43.6906 23.4614 43.7139 23.4518C43.7372 23.4423 43.7622 23.4375 43.7873 23.4378L46.885 23.4726C47.0065 23.474 47.0319 23.5259 46.9611 23.6284L46.9211 23.6838C46.865 23.7644 46.7889 23.8089 46.6928 23.8171C45.9065 23.8868 45.0782 23.8895 44.2078 23.8253C44.0623 23.8157 43.9963 23.8847 44.0096 24.0324C44.0643 24.6529 44.081 25.2667 44.0597 25.8736Z" fill="white"/>
<path d="M50.2067 25.3979C50.2162 25.4133 50.2293 25.4262 50.2447 25.4354C50.26 25.4447 50.2774 25.45 50.2952 25.451C50.313 25.452 50.3308 25.4487 50.3471 25.4412C50.3634 25.4338 50.3777 25.4224 50.3889 25.4081C50.8307 24.8395 51.2546 24.2681 51.6604 23.694C51.7952 23.504 51.9694 23.4118 52.183 23.4172C52.196 23.4179 52.2087 23.4221 52.2196 23.4293C52.2306 23.4366 52.2394 23.4466 52.2451 23.4584C52.2509 23.4702 52.2534 23.4833 52.2523 23.4962C52.2512 23.5092 52.2467 23.5216 52.2391 23.5321L50.6993 25.6829C50.6674 25.7269 50.6502 25.7803 50.6502 25.8353C50.6502 25.8902 50.6674 25.9439 50.6993 25.9884L52.3893 28.332C52.4032 28.3522 52.4098 28.3768 52.408 28.4015C52.4062 28.4262 52.396 28.4495 52.3793 28.4673C52.3125 28.537 52.2371 28.5548 52.153 28.5206C52.0142 28.4646 51.8993 28.3778 51.8086 28.2602C51.3066 27.6164 50.8348 26.9582 50.3929 26.2857C50.3408 26.2078 50.2881 26.2071 50.2347 26.2837L48.833 28.2705C48.7543 28.3812 48.6482 28.4379 48.5147 28.4407L48.3825 28.4427C48.2597 28.4454 48.2343 28.3962 48.3064 28.2951L49.9744 25.9679C49.9931 25.9422 50.0033 25.9111 50.0037 25.879C50.0041 25.847 49.9945 25.8157 49.9764 25.7895L48.3765 23.5464C48.3682 23.5348 48.363 23.5212 48.3615 23.5068C48.3599 23.4925 48.3621 23.478 48.3677 23.4646C48.3733 23.4512 48.3822 23.4395 48.3936 23.4305C48.405 23.4214 48.4184 23.4155 48.4326 23.4131C48.4699 23.4077 48.5073 23.4104 48.5447 23.4213C48.6742 23.4582 48.7843 23.5259 48.8751 23.6243C49.365 24.1533 49.8089 24.7445 50.2067 25.3979Z" fill="white"/>
<path d="M54.528 26.8493C54.5081 26.8483 54.4882 26.8517 54.4697 26.8592C54.4512 26.8667 54.4346 26.8782 54.4209 26.8928C54.4072 26.9074 54.3968 26.9248 54.3904 26.9438C54.384 26.9629 54.3817 26.9831 54.3838 27.0031C54.4265 27.4664 54.4158 27.8957 54.3518 28.2907C54.3317 28.4124 54.2623 28.4793 54.1435 28.4916C54.1195 28.493 54.0968 28.4896 54.0754 28.4814C53.9272 28.4267 53.8525 28.3187 53.8512 28.1574L53.8331 23.7266C53.8329 23.688 53.8401 23.6497 53.8544 23.614C53.8687 23.5783 53.8898 23.5459 53.9164 23.5186C53.9431 23.4913 53.9747 23.4698 54.0096 23.4551C54.0444 23.4405 54.0818 23.4331 54.1195 23.4334C54.7162 23.4402 55.3256 23.4491 55.9477 23.46C56.9729 23.4785 57.7838 24.2145 57.6957 25.3115C57.5576 26.9908 55.7474 26.9251 54.528 26.8493ZM54.3618 24.2145L54.3838 26.0681C54.3843 26.1141 54.3937 26.1596 54.4114 26.202C54.4291 26.2443 54.4547 26.2826 54.4869 26.3148C54.5191 26.347 54.5571 26.3724 54.5989 26.3895C54.6406 26.4066 54.6852 26.4151 54.7302 26.4146L55.8796 26.4002C56.0587 26.3979 56.2356 26.3629 56.4003 26.2974C56.565 26.2318 56.7142 26.1369 56.8393 26.0181C56.9645 25.8993 57.0631 25.7589 57.1297 25.6049C57.1962 25.451 57.2294 25.2865 57.2272 25.1208V25.088C57.2228 24.7537 57.075 24.4349 56.8163 24.2019C56.5576 23.9689 56.2091 23.8407 55.8475 23.8455L54.6982 23.8598C54.6077 23.8615 54.5215 23.8997 54.4585 23.9661C54.3955 24.0326 54.3607 24.1219 54.3618 24.2145Z" fill="white"/>
<path d="M62.4294 26.6507C62.4066 26.6646 62.3869 26.6832 62.3714 26.7052C62.3558 26.7273 62.3448 26.7524 62.339 26.779C62.3332 26.8057 62.3327 26.8333 62.3376 26.8602C62.3425 26.8871 62.3526 26.9128 62.3673 26.9357L63.2624 28.2972C63.3425 28.4202 63.3105 28.4851 63.1663 28.492C63.1222 28.4933 63.0789 28.4872 63.0361 28.4735C62.888 28.4216 62.7658 28.3334 62.6697 28.209C62.4014 27.8605 62.1437 27.4928 61.8968 27.1059C61.8497 27.0331 61.7864 26.9729 61.7122 26.9304C61.638 26.888 61.555 26.8645 61.4703 26.8619L60.1707 26.825C60.1249 26.8239 60.0804 26.8414 60.0471 26.8736C60.0137 26.9059 59.9941 26.9503 59.9925 26.9972L59.9485 28.3033C59.9466 28.3483 59.9312 28.3916 59.9043 28.4273C59.8774 28.4629 59.8404 28.4891 59.7983 28.5022C59.6528 28.546 59.56 28.4974 59.52 28.3566C59.4855 28.2425 59.4679 28.1243 59.4679 28.006C59.4572 26.6118 59.4606 25.1724 59.4779 23.6879C59.4786 23.6317 59.4995 23.5777 59.5365 23.5364C59.5734 23.4952 59.6239 23.4695 59.6781 23.4644C60.8335 23.3558 63.2424 23.202 63.2884 24.9797C63.3085 25.7233 63.0221 26.2803 62.4294 26.6507ZM59.8984 24.0673L59.9545 26.2612C59.9552 26.2876 59.9611 26.3135 59.9717 26.3376C59.9823 26.3617 59.9974 26.3834 60.0162 26.4015C60.035 26.4196 60.057 26.4337 60.0811 26.443C60.1053 26.4524 60.1309 26.4568 60.1567 26.4559L61.3642 26.4231C61.7616 26.4125 62.1395 26.2724 62.4147 26.0336C62.6899 25.7949 62.84 25.477 62.8319 25.1499L62.8279 25.0227C62.8237 24.8607 62.7807 24.7012 62.7015 24.5535C62.6222 24.4058 62.5082 24.2728 62.3659 24.162C62.2237 24.0511 62.056 23.9647 61.8724 23.9077C61.6888 23.8506 61.493 23.824 61.2961 23.8294L60.0906 23.8622C60.0649 23.8628 60.0394 23.8685 60.0158 23.8791C59.9922 23.8897 59.9709 23.9049 59.953 23.924C59.9352 23.943 59.9212 23.9655 59.9118 23.99C59.9024 24.0146 59.8979 24.0409 59.8984 24.0673Z" fill="white"/>
<path d="M65.6511 27.8471C65.6511 27.966 65.7099 28.0255 65.8274 28.0255L68.6247 28.0357C68.6466 28.0359 68.6679 28.0433 68.6852 28.057C68.7026 28.0708 68.7151 28.0899 68.7208 28.1116L68.7368 28.1751C68.743 28.1999 68.7439 28.2258 68.7394 28.2509C68.735 28.2761 68.7253 28.3 68.7111 28.321C68.6969 28.342 68.6784 28.3596 68.6569 28.3726C68.6354 28.3857 68.6115 28.3939 68.5866 28.3966C67.48 28.5169 66.3987 28.5278 65.3428 28.4294C65.2991 28.4253 65.2585 28.4046 65.2292 28.3715C65.1999 28.3385 65.1839 28.2954 65.1846 28.251L65.2106 23.6377C65.2109 23.6118 65.2161 23.5863 65.226 23.5625C65.2359 23.5387 65.2503 23.5172 65.2683 23.4991C65.2864 23.481 65.3077 23.4667 65.3311 23.4571C65.3546 23.4474 65.3796 23.4426 65.4049 23.4429L68.4244 23.4818C68.5192 23.4832 68.572 23.5331 68.5826 23.6315L68.5906 23.7094C68.5923 23.7282 68.5902 23.7472 68.5844 23.7651C68.5786 23.7829 68.5693 23.7994 68.5571 23.8133C68.5448 23.8272 68.5299 23.8382 68.5132 23.8458C68.4966 23.8533 68.4786 23.8572 68.4605 23.8571L65.8113 23.8591C65.6939 23.8591 65.6351 23.9199 65.6351 24.0416L65.6511 27.8471Z" fill="white"/>
<path d="M36.3963 24.6755H36.3883C36.2799 24.6755 36.1921 24.7655 36.1921 24.8765V28.2678C36.1921 28.3788 36.2799 28.4687 36.3883 28.4687H36.3963C36.5047 28.4687 36.5926 28.3788 36.5926 28.2678V24.8765C36.5926 24.7655 36.5047 24.6755 36.3963 24.6755Z" fill="white"/>
<path d="M46.433 25.7108L44.3228 25.7485C44.2311 25.7501 44.158 25.8276 44.1596 25.9216L44.1601 25.9544C44.1617 26.0484 44.2374 26.1232 44.3292 26.1216L46.4394 26.0839C46.5312 26.0822 46.6043 26.0047 46.6027 25.9108L46.6021 25.878C46.6005 25.784 46.5248 25.7091 46.433 25.7108Z" fill="white"/>
<path d="M68.1195 25.7255L66.0091 25.7105C65.9139 25.7098 65.8363 25.7882 65.8357 25.8856L65.8355 25.9061C65.8348 26.0034 65.9114 26.0829 66.0065 26.0836L68.117 26.0987C68.2121 26.0994 68.2897 26.021 68.2904 25.9236L68.2905 25.9031C68.2912 25.8057 68.2146 25.7262 68.1195 25.7255Z" fill="white"/>
<path d="M57.8698 36.9339C58.3945 37.139 59.0005 37.2873 59.688 37.3789C59.7221 37.3833 59.7535 37.4001 59.7766 37.4264C59.7997 37.4527 59.813 37.4868 59.8141 37.5224L59.8161 37.5819C59.8175 37.6174 59.8015 37.6352 59.7681 37.6352C57.7076 37.6413 55.6912 37.5224 53.6528 37.5531C51.1699 37.5901 48.6188 37.547 46.0998 37.6413C45.1761 37.6755 44.2083 37.6823 43.1964 37.6618C43.1872 37.6614 43.1783 37.6588 43.1704 37.6542C43.1624 37.6496 43.1556 37.6432 43.1505 37.6354C43.1454 37.6276 43.1422 37.6187 43.1411 37.6094C43.1401 37.6001 43.1412 37.5906 43.1443 37.5819L43.1644 37.5306C43.1795 37.4917 43.2049 37.4577 43.2377 37.4324C43.2705 37.4071 43.3096 37.3914 43.3506 37.3871C44.799 37.2244 45.7201 36.7767 46.1139 36.0441C46.3808 35.5479 46.555 35.092 46.6365 34.6765C46.9048 33.3178 47.0363 31.8353 47.0309 30.2292C47.0309 30.1936 47.0441 30.1593 47.068 30.1334C47.0918 30.1075 47.1244 30.0919 47.1591 30.0898C47.5035 30.0652 47.8319 30.0522 48.1443 30.0508C50.5738 30.0358 53.0868 30.0296 55.6832 30.0324C55.8461 30.0324 55.9282 30.1158 55.9295 30.2825C55.9402 31.5756 56.0497 32.8926 56.2579 34.2336C56.4101 35.2178 56.8706 36.5444 57.8698 36.9339Z" fill="white"/>
<path d="M65.4849 39.397C65.4636 39.475 65.4362 39.5515 65.4029 39.6267C65.2934 39.8796 65.2026 39.872 65.1305 39.6041C64.8382 38.4969 64.686 37.3631 64.4998 36.2456C64.1794 34.3087 63.8503 32.3376 63.5126 30.3323C63.4806 30.1423 63.5587 30.0446 63.7469 30.0391C64.3656 30.0186 65.3988 29.8587 65.8314 30.3672C68.3183 33.2972 71.7464 36.3973 75.4348 37.3364C76.0902 37.5045 76.8718 37.5647 77.7796 37.5168C78.8876 37.4608 79.9508 37.061 80.9694 36.3174C81.9906 35.5731 82.6073 34.4864 82.5252 33.1331C82.4531 31.9713 82.0266 31.0158 81.2457 30.2667C81.0855 30.1123 81.1155 30.035 81.3358 30.035L87.5552 30.0371C87.8956 30.0371 88.0244 30.2059 87.9417 30.5435C87.405 32.7032 86.2436 34.4112 84.4575 35.6674C83.2187 36.5368 81.8077 37.1778 80.2245 37.5907C79.4536 37.7916 78.7367 38.0233 77.9478 38.0704C76.0869 38.1839 74.4363 38.1682 72.9959 38.0233C71.2805 37.8497 69.5618 37.7 67.8397 37.5743C67.1629 37.525 66.2499 37.6378 65.8954 38.3411C65.7166 38.6951 65.5797 39.0471 65.4849 39.397Z" fill="white"/>
<path d="M32.5097 37.6102C31.9103 37.6731 31.3897 37.697 30.9478 37.682C27.1446 37.5617 23.5463 37.5678 20.153 37.7004C20.0448 37.7059 19.9394 37.6922 19.8366 37.6594C19.5349 37.5651 19.5382 37.4851 19.8466 37.4195C20.201 37.3437 20.5194 37.3088 20.8378 37.1161C21.7509 36.5652 22.4577 35.8517 22.9583 34.9755C23.7619 33.5676 24.2879 32.04 24.5362 30.3929C24.5482 30.3191 24.5816 30.2589 24.6363 30.2125C24.9246 29.9664 25.5193 29.8864 25.6555 30.3519C26.3136 32.6278 27.487 34.5039 29.1757 35.9802C30.0928 36.7812 31.2562 37.2439 32.6658 37.3683C32.6723 37.3687 32.6785 37.3707 32.684 37.3741C32.6895 37.3775 32.6941 37.3823 32.6975 37.3879C32.7008 37.3935 32.7028 37.3999 32.7032 37.4065C32.7036 37.4131 32.7025 37.4196 32.6999 37.4257L32.6779 37.4831C32.6634 37.5179 32.6401 37.548 32.6105 37.5704C32.5809 37.5927 32.5461 37.6065 32.5097 37.6102Z" fill="white"/>
<path d="M59.998 42.1541L59.5775 42.1518C59.4802 42.1513 59.4009 42.2317 59.4004 42.3313L59.3993 42.5527C59.3987 42.6524 59.4772 42.7336 59.5745 42.7341L59.995 42.7364C60.0923 42.7369 60.1717 42.6565 60.1722 42.5569L60.1733 42.3355C60.1738 42.2358 60.0953 42.1546 59.998 42.1541Z" fill="#E30387"/>
<path d="M88.6333 42.1417L88.2569 42.1404C88.1408 42.14 88.0463 42.236 88.0459 42.3549L88.0454 42.5067C88.045 42.6256 88.1388 42.7223 88.2549 42.7227L88.6313 42.724C88.7475 42.7245 88.8419 42.6284 88.8423 42.5095L88.8428 42.3578C88.8432 42.2389 88.7494 42.1422 88.6333 42.1417Z" fill="#E30387"/>
<path d="M96.4855 42.1599L95.949 42.1484C95.8816 42.1469 95.8258 42.2017 95.8243 42.2708L95.8181 42.5783C95.8166 42.6473 95.8702 42.7045 95.9376 42.706L96.4741 42.7175C96.5416 42.7189 96.5974 42.6641 96.5988 42.595L96.6051 42.2875C96.6065 42.2185 96.553 42.1613 96.4855 42.1599Z" fill="#E30387"/>
<path d="M54.2384 42.1831L53.8709 42.1568C53.7705 42.1496 53.6834 42.2271 53.6764 42.3299L53.663 42.5263C53.6559 42.6291 53.7316 42.7182 53.832 42.7254L54.1996 42.7517C54.3 42.7589 54.387 42.6814 54.3941 42.5786L54.4075 42.3823C54.4145 42.2795 54.3388 42.1903 54.2384 42.1831Z" fill="#E30387"/>
<path d="M53.6168 47.0639L53.6248 43.1621C53.6247 43.1213 53.6387 43.0818 53.6644 43.0507C53.6901 43.0195 53.7257 42.9987 53.7649 42.9919L54.2495 42.9099C54.2735 42.9057 54.2981 42.907 54.3215 42.9135C54.345 42.92 54.3668 42.9316 54.3855 42.9476C54.4041 42.9636 54.4192 42.9835 54.4296 43.006C54.44 43.0286 54.4455 43.0531 54.4457 43.078L54.4798 47.0516C54.4803 47.097 54.4634 47.1407 54.4327 47.1733C54.4019 47.2059 54.3598 47.2248 54.3156 47.2259L53.789 47.2362C53.7665 47.2367 53.7442 47.2327 53.7234 47.2243C53.7025 47.2159 53.6835 47.2032 53.6674 47.1872C53.6514 47.1712 53.6386 47.152 53.6299 47.1308C53.6212 47.1096 53.6168 47.0869 53.6168 47.0639Z" fill="#E30387"/>
<path d="M9.24027 45.1203C9.22558 44.8825 9.1842 44.8777 9.11612 45.106C9.02134 45.4204 8.91655 45.7286 8.80175 46.0307C8.77505 46.1004 8.72566 46.138 8.65357 46.1435C8.61947 46.1458 8.58553 46.1369 8.5567 46.1181C8.52788 46.0993 8.50569 46.0715 8.49338 46.0389C8.39059 45.76 8.27045 45.4867 8.13295 45.2187C8.00079 44.9631 7.93672 44.9802 7.94072 45.27L7.96675 47.0108C7.96942 47.1693 7.89333 47.25 7.73848 47.2527L7.34401 47.2609C7.31738 47.2615 7.29091 47.2566 7.26616 47.2465C7.2414 47.2364 7.21885 47.2214 7.19983 47.2023C7.18081 47.1832 7.1657 47.1604 7.15539 47.1353C7.14507 47.1102 7.13977 47.0832 7.13977 47.0559L7.14177 43.1622C7.14164 43.1214 7.15503 43.0817 7.17976 43.0497C7.20449 43.0177 7.2391 42.9952 7.27793 42.9859C7.45815 42.9435 7.63436 42.9435 7.80656 42.9859C7.892 43.0064 7.9514 43.0583 7.98478 43.1417L8.5134 44.4478C8.59884 44.6597 8.68294 44.659 8.7657 44.4458L9.27431 43.1233C9.28721 43.0893 9.30831 43.0593 9.33562 43.036C9.36294 43.0127 9.39558 42.9969 9.43049 42.99C9.60937 42.9572 9.80027 42.9565 10.0032 42.9879C10.0428 42.9943 10.0789 43.0149 10.105 43.0461C10.131 43.0773 10.1454 43.1171 10.1453 43.1581L10.1493 46.9903C10.1495 47.0282 10.1419 47.0658 10.127 47.1006C10.1122 47.1354 10.0904 47.1667 10.0631 47.1923C10.0357 47.218 10.0035 47.2376 9.96831 47.2497C9.93318 47.2619 9.89594 47.2664 9.859 47.263L9.53462 47.2343C9.33171 47.2165 9.2356 47.1037 9.24628 46.896C9.27564 46.2685 9.27364 45.6767 9.24027 45.1203Z" fill="#E30387"/>
<path d="M11.5589 43.562C11.8176 43.5583 12.0256 43.4222 12.0234 43.258C12.0211 43.0938 11.8095 42.9637 11.5508 42.9674C11.292 42.9711 11.0841 43.1072 11.0863 43.2714C11.0886 43.4356 11.3001 43.5657 11.5589 43.562Z" fill="#E30387"/>
<path d="M13.9918 46.2348C14.0487 46.1507 14.0719 46.0476 14.0566 45.9468C14.0413 45.846 13.9887 45.7553 13.9097 45.6935C13.5033 45.3716 12.9887 45.0477 12.8845 44.4941C12.8084 44.099 12.8331 43.7491 12.9586 43.4443C13.1949 42.862 14.2181 42.9173 14.6666 43.0711C14.7086 43.0854 14.7449 43.1134 14.7698 43.1508C14.7948 43.1882 14.8071 43.233 14.8048 43.2782L14.7868 43.6411C14.7801 43.7846 14.708 43.8414 14.5705 43.8113C14.2682 43.7416 13.8477 43.6596 13.6955 44.0389C13.67 44.103 13.6636 44.1735 13.6771 44.2414C13.6906 44.3092 13.7235 44.3715 13.7716 44.4202C14.1661 44.8201 14.8368 45.2076 14.9069 45.8043C15.0651 47.1554 14.0319 47.4753 12.9826 47.1534C12.8625 47.1165 12.8024 47.0331 12.8024 46.9033V46.5506C12.8038 46.4153 12.8692 46.3613 12.9987 46.3886C13.313 46.4522 13.7736 46.5567 13.9918 46.2348Z" fill="#E30387"/>
<path d="M16.8372 46.4738L17.6962 46.4513C17.7191 46.4507 17.7418 46.4548 17.7632 46.4633C17.7845 46.4717 17.804 46.4844 17.8206 46.5006C17.8371 46.5168 17.8504 46.5361 17.8596 46.5576C17.8689 46.579 17.8739 46.6021 17.8744 46.6255L17.8864 47.0643C17.8869 47.0879 17.8829 47.1114 17.8745 47.1334C17.8661 47.1554 17.8535 47.1754 17.8375 47.1924C17.8215 47.2094 17.8024 47.2229 17.7812 47.2323C17.76 47.2416 17.7373 47.2465 17.7142 47.2468L16.0622 47.2612C16.0394 47.2614 16.0167 47.2571 15.9954 47.2484C15.9742 47.2397 15.9548 47.2267 15.9385 47.2104C15.9221 47.194 15.9091 47.1745 15.9001 47.1529C15.8911 47.1314 15.8863 47.1083 15.886 47.0848L15.852 43.1481C15.852 43.1008 15.8703 43.0554 15.903 43.022C15.9357 42.9885 15.98 42.9697 16.0262 42.9697L17.7022 42.9779C17.7484 42.9779 17.7927 42.9967 17.8254 43.0302C17.858 43.0636 17.8764 43.109 17.8764 43.1563L17.8804 43.5479C17.881 43.5939 17.8642 43.6383 17.8337 43.6719C17.8031 43.7055 17.761 43.7257 17.7162 43.7284L16.8492 43.7796C16.8077 43.7824 16.7686 43.8002 16.7389 43.8299C16.7091 43.8596 16.6907 43.8992 16.687 43.9416L16.6489 44.3988C16.647 44.4229 16.6499 44.4472 16.6574 44.4701C16.665 44.493 16.6769 44.5141 16.6927 44.5321C16.7084 44.5502 16.7276 44.5647 16.7489 44.5749C16.7703 44.5852 16.7935 44.5908 16.8171 44.5916L17.6141 44.6244C17.6582 44.6264 17.6999 44.6456 17.7308 44.6779C17.7616 44.7103 17.7793 44.7535 17.7803 44.7987L17.7863 45.219C17.7868 45.2429 17.7827 45.2667 17.774 45.289C17.7654 45.3112 17.7525 45.3315 17.736 45.3485C17.7196 45.3655 17.6999 45.379 17.6783 45.3881C17.6567 45.3972 17.6335 45.4018 17.6101 45.4015L16.8752 45.3953C16.8307 45.3952 16.7878 45.4126 16.7554 45.4439C16.723 45.4752 16.7036 45.5179 16.701 45.5635L16.6589 46.2831C16.6573 46.3079 16.6607 46.3328 16.6689 46.3562C16.6772 46.3795 16.6901 46.4009 16.7069 46.4188C16.7237 46.4368 16.7439 46.4509 16.7663 46.4604C16.7888 46.4699 16.8129 46.4744 16.8372 46.4738Z" fill="#E30387"/>
<path d="M19.8888 46.2093L19.4883 47.1934C19.4822 47.2083 19.4719 47.221 19.4587 47.2298C19.4455 47.2386 19.43 47.2431 19.4142 47.2427L18.7454 47.2303C18.7328 47.2302 18.7204 47.227 18.7093 47.2209C18.6982 47.2148 18.6887 47.206 18.6816 47.1953C18.6745 47.1846 18.6701 47.1724 18.6686 47.1595C18.6672 47.1467 18.6688 47.1337 18.6733 47.1217L19.4122 45.1513C19.4185 45.1325 19.4178 45.1121 19.4102 45.0939L18.6233 43.0968C18.6183 43.0846 18.6164 43.0714 18.6176 43.0583C18.6189 43.0452 18.6232 43.0326 18.6304 43.0217C18.6375 43.0107 18.6472 43.0017 18.6585 42.9955C18.6698 42.9893 18.6825 42.9861 18.6953 42.9861L19.4222 42.9717C19.4388 42.9712 19.4551 42.9761 19.4688 42.9856C19.4824 42.9952 19.4928 43.009 19.4983 43.025L19.8747 44.0666C19.8803 44.0818 19.8903 44.0949 19.9034 44.1042C19.9164 44.1135 19.932 44.1184 19.9478 44.1184C19.9637 44.1184 19.9792 44.1135 19.9923 44.1042C20.0053 44.0949 20.0153 44.0818 20.0209 44.0666L20.4074 43.0496C20.4129 43.035 20.4224 43.0223 20.4349 43.0132C20.4474 43.0041 20.4622 42.9989 20.4775 42.9984L21.2123 42.9799C21.2254 42.9796 21.2383 42.9826 21.2499 42.9886C21.2615 42.9947 21.2714 43.0037 21.2788 43.0147C21.2861 43.0257 21.2907 43.0384 21.292 43.0517C21.2934 43.0649 21.2914 43.0783 21.2864 43.0906L20.4775 45.1041C20.4735 45.1139 20.4715 45.1243 20.4715 45.1349C20.4715 45.1454 20.4735 45.1559 20.4775 45.1656L21.2564 47.1381C21.2614 47.1504 21.2633 47.1638 21.262 47.1771C21.2607 47.1903 21.2561 47.2031 21.2487 47.2141C21.2414 47.2251 21.2314 47.234 21.2198 47.2401C21.2082 47.2461 21.1953 47.2491 21.1823 47.2488L20.5215 47.2344C20.5067 47.2342 20.4922 47.2297 20.4798 47.2213C20.4674 47.213 20.4575 47.2012 20.4514 47.1873L20.0329 46.2093C20.027 46.1947 20.017 46.1822 20.0042 46.1735C19.9913 46.1647 19.9763 46.1601 19.9608 46.1601C19.9454 46.1601 19.9304 46.1647 19.9175 46.1735C19.9047 46.1822 19.8947 46.1947 19.8888 46.2093Z" fill="#E30387"/>
<path d="M22.9866 46.1535L22.9886 47.0146C22.9886 47.1773 22.9099 47.2586 22.7524 47.2586L22.3639 47.2607C22.1984 47.2607 22.1149 47.1759 22.1136 47.0064L22.1056 43.1538C22.1055 43.1102 22.1215 43.0681 22.1505 43.0362C22.1795 43.0042 22.2193 42.9847 22.2618 42.9816C22.6603 42.9529 23.0547 42.9775 23.4532 42.9857C24.0753 42.9966 24.423 43.326 24.4964 43.9739C24.5538 44.4742 24.5205 44.9397 24.3963 45.3702C24.2121 46.012 23.6294 45.9854 23.1108 46.0182C23.0771 46.0203 23.0456 46.0354 23.0225 46.0606C22.9994 46.0857 22.9866 46.119 22.9866 46.1535ZM23.0147 43.9001L22.9886 45.0811C22.9881 45.1008 22.9914 45.1204 22.9982 45.1387C23.0051 45.1571 23.0154 45.1739 23.0286 45.1882C23.0418 45.2025 23.0576 45.214 23.0752 45.222C23.0927 45.23 23.1116 45.2344 23.1308 45.2349H23.1608C23.2955 45.2378 23.4259 45.179 23.5235 45.0713C23.6212 44.9637 23.6779 44.8161 23.6815 44.6608L23.6895 44.3533C23.6913 44.2761 23.6798 44.1994 23.6558 44.1275C23.6318 44.0556 23.5957 43.99 23.5495 43.9344C23.5034 43.8788 23.4482 43.8343 23.387 43.8034C23.3258 43.7725 23.2598 43.7559 23.1929 43.7545H23.1628C23.1244 43.754 23.0873 43.769 23.0596 43.7962C23.0319 43.8235 23.0157 43.8608 23.0147 43.9001Z" fill="#E30387"/>
<path d="M26.4266 45.9751C26.4142 45.9637 26.3986 45.9567 26.3821 45.955C26.3655 45.9534 26.3489 45.9572 26.3346 45.9659C26.3203 45.9746 26.3091 45.9877 26.3026 46.0034C26.2961 46.0191 26.2946 46.0365 26.2985 46.053C26.3772 46.3784 26.3919 46.7085 26.3425 47.0434C26.336 47.0883 26.3167 47.1302 26.2871 47.1637C26.2575 47.1973 26.219 47.2211 26.1763 47.232C25.9961 47.2785 25.8132 47.2846 25.6277 47.2504C25.5409 47.2354 25.4975 47.1828 25.4975 47.0926L25.4995 43.0595C25.4995 43.0337 25.5093 43.009 25.5269 42.9906C25.5445 42.9722 25.5685 42.9616 25.5936 42.9611C26.0408 42.9542 26.496 42.9665 26.9592 42.998C28.0906 43.0738 28.0165 44.5788 27.7542 45.36C27.7221 45.4529 27.6694 45.5309 27.596 45.5937L27.4058 45.7598C27.331 45.8241 27.315 45.9006 27.3577 45.9895L27.8363 46.9921C27.9204 47.1698 27.8663 47.2566 27.6741 47.2525L27.2716 47.2443C27.1021 47.2402 26.9886 47.1568 26.9312 46.9941C26.8271 46.6907 26.6669 46.2007 26.4266 45.9751ZM26.3605 43.896L26.3365 44.9704C26.336 44.9904 26.3393 45.0102 26.3462 45.0288C26.3532 45.0474 26.3637 45.0645 26.377 45.0789C26.3904 45.0934 26.4065 45.105 26.4243 45.1132C26.442 45.1213 26.4612 45.1257 26.4807 45.1263L26.5948 45.1283C26.6535 45.1298 26.7119 45.1177 26.7667 45.0928C26.8216 45.0679 26.8717 45.0307 26.9143 44.9833C26.9569 44.9359 26.9911 44.8792 27.015 44.8165C27.0388 44.7537 27.0519 44.6862 27.0533 44.6178L27.0614 44.2815C27.0644 44.1435 27.0204 44.01 26.9389 43.9104C26.8574 43.8109 26.7452 43.7533 26.6268 43.7505L26.5127 43.7484C26.4932 43.7479 26.4739 43.7512 26.4557 43.7584C26.4375 43.7655 26.4209 43.7762 26.4067 43.7899C26.3926 43.8036 26.3812 43.8201 26.3733 43.8383C26.3654 43.8565 26.361 43.8761 26.3605 43.896Z" fill="#E30387"/>
<path d="M29.6724 45.5835L29.6664 46.2744C29.6662 46.2979 29.6704 46.3211 29.6789 46.3429C29.6874 46.3646 29.7 46.3844 29.716 46.4012C29.732 46.4179 29.7511 46.4313 29.7721 46.4405C29.7931 46.4497 29.8157 46.4546 29.8386 46.4549L30.7137 46.459C30.7582 46.4594 30.8008 46.4773 30.8328 46.509C30.8648 46.5406 30.8838 46.5836 30.8859 46.6292L30.9059 47.0433C30.907 47.0671 30.9034 47.0908 30.8954 47.1132C30.8873 47.1355 30.875 47.156 30.8592 47.1733C30.8433 47.1907 30.8242 47.2047 30.803 47.2144C30.7818 47.2241 30.7589 47.2294 30.7357 47.2299L29.0317 47.2607C29.0086 47.2609 28.9858 47.2565 28.9644 47.2477C28.943 47.2388 28.9236 47.2257 28.9072 47.2092C28.8908 47.1926 28.8778 47.1728 28.8689 47.151C28.86 47.1293 28.8555 47.1059 28.8555 47.0823L28.8535 43.1333C28.8534 43.1095 28.8581 43.086 28.8671 43.064C28.8761 43.0421 28.8893 43.0223 28.9059 43.0057C28.9225 42.989 28.9422 42.976 28.9638 42.9673C28.9854 42.9585 29.0085 42.9543 29.0317 42.9549L30.7237 43C30.7473 43.0005 30.7705 43.0059 30.792 43.0159C30.8135 43.0258 30.8328 43.0402 30.8487 43.058C30.8646 43.0758 30.8768 43.0968 30.8846 43.1196C30.8923 43.1424 30.8955 43.1666 30.8939 43.1907L30.8638 43.5782C30.8605 43.6216 30.8417 43.6622 30.8111 43.6924C30.7805 43.7227 30.7401 43.7404 30.6976 43.7422L29.8246 43.775C29.7795 43.7766 29.7367 43.7961 29.7053 43.8294C29.6739 43.8627 29.6564 43.9071 29.6564 43.9534L29.6584 44.4291C29.6584 44.4761 29.6765 44.5211 29.7087 44.5545C29.741 44.5879 29.7848 44.6069 29.8306 44.6075L30.5915 44.6198C30.637 44.6203 30.6805 44.6391 30.7127 44.672C30.7449 44.705 30.7632 44.7495 30.7637 44.7961L30.7657 45.2103C30.7663 45.2573 30.7487 45.3025 30.7168 45.3363C30.685 45.3701 30.6414 45.3897 30.5955 45.3907L29.8426 45.4071C29.7975 45.4082 29.7545 45.4272 29.7227 45.4601C29.691 45.493 29.6729 45.5372 29.6724 45.5835Z" fill="#E30387"/>
<path d="M32.79 44.4701C33.3126 44.9458 33.9333 45.3333 33.8813 46.1657C33.8092 47.2811 32.8 47.3467 31.959 47.1786C31.8068 47.1499 31.7294 47.0563 31.7267 46.8977L31.7207 46.584C31.7199 46.5534 31.7262 46.523 31.739 46.4953C31.7518 46.4676 31.7708 46.4433 31.7945 46.4244C31.8183 46.4055 31.846 46.3925 31.8756 46.3864C31.9052 46.3803 31.9358 46.3812 31.965 46.3892C32.2734 46.4753 32.7419 46.5368 32.9482 46.2129C32.9964 46.1367 33.0159 46.045 33.003 45.9549C32.9902 45.8648 32.9458 45.7823 32.8781 45.7228C32.1392 45.0749 31.3803 44.5172 31.939 43.3711C32.1953 42.8421 33.1905 42.9323 33.617 43.0553C33.6904 43.0772 33.7278 43.1271 33.7291 43.205L33.7371 43.7217C33.7375 43.7383 33.734 43.7547 33.7269 43.7697C33.7198 43.7847 33.7093 43.7978 33.6963 43.808C33.6833 43.8181 33.668 43.8251 33.6518 43.8282C33.6356 43.8314 33.6189 43.8307 33.6029 43.8263C33.384 43.762 33.1751 43.7449 32.9762 43.775C32.6518 43.8222 32.5397 44.2425 32.79 44.4701Z" fill="#E30387"/>
<path d="M35.8116 43.8104C35.7479 43.8359 35.6916 43.8777 35.6482 43.9319C35.6048 43.9861 35.5757 44.0508 35.5639 44.1198C35.552 44.1888 35.5577 44.2598 35.5804 44.326C35.6031 44.3921 35.642 44.4511 35.6935 44.4973C36.2802 45.0222 36.9069 45.3646 36.7768 46.316C36.6366 47.3268 35.5133 47.4293 34.7684 47.1074C34.699 47.0774 34.6569 47.0247 34.6422 46.9495C34.6169 46.8224 34.6149 46.6994 34.6362 46.5805C34.6643 46.4233 34.755 46.3625 34.9086 46.398C35.257 46.48 36.0039 46.5149 35.9378 45.949C35.9311 45.8929 35.9077 45.8458 35.8677 45.8075C35.5233 45.4753 34.9987 45.1719 34.8245 44.7228C34.6789 44.3524 34.6689 43.9444 34.7944 43.4988C34.9686 42.8775 35.9918 42.9267 36.4504 43.0149C36.5639 43.0367 36.6219 43.1065 36.6246 43.224L36.6326 43.6689C36.6353 43.7838 36.5825 43.8282 36.4744 43.8022C36.2021 43.7407 35.9812 43.7434 35.8116 43.8104Z" fill="#E30387"/>
<path d="M42.5478 44.6098L43.3487 44.6283C43.3711 44.6288 43.3931 44.6339 43.4136 44.6431C43.434 44.6524 43.4525 44.6657 43.4679 44.6822C43.4833 44.6988 43.4954 44.7183 43.5035 44.7397C43.5116 44.761 43.5154 44.7838 43.5149 44.8067L43.5069 45.229C43.5059 45.2749 43.4872 45.3185 43.4549 45.3504C43.4227 45.3822 43.3795 45.3998 43.3347 45.3992L42.5678 45.3951C42.523 45.3951 42.48 45.4132 42.4481 45.4454C42.4163 45.4777 42.3981 45.5215 42.3976 45.5674L42.3836 46.2932C42.3833 46.3164 42.3876 46.3395 42.3961 46.361C42.4047 46.3825 42.4174 46.4021 42.4334 46.4185C42.4495 46.4349 42.4685 46.4479 42.4896 46.4567C42.5106 46.4654 42.5331 46.4698 42.5558 46.4695L43.4148 46.4613C43.4589 46.4607 43.5016 46.4777 43.5337 46.5087C43.5658 46.5397 43.5849 46.5823 43.587 46.6274L43.609 47.0723C43.6101 47.0959 43.6065 47.1195 43.5984 47.1416C43.5904 47.1637 43.578 47.1838 43.5621 47.2009C43.5462 47.218 43.5271 47.2315 43.5059 47.2408C43.4847 47.2501 43.4619 47.2548 43.4388 47.2548L41.7488 47.2569C41.7037 47.2569 41.6604 47.2385 41.6285 47.2058C41.5965 47.1731 41.5786 47.1288 41.5786 47.0826L41.5846 43.1582C41.5846 43.1353 41.589 43.1126 41.5976 43.0915C41.6061 43.0703 41.6187 43.0511 41.6345 43.0349C41.6503 43.0187 41.669 43.0059 41.6897 42.9972C41.7103 42.9884 41.7325 42.9839 41.7548 42.9839L43.4408 42.99C43.4642 42.9902 43.4874 42.9954 43.5087 43.0051C43.5301 43.0149 43.5493 43.0291 43.5651 43.0468C43.5809 43.0645 43.5929 43.0854 43.6005 43.108C43.608 43.1307 43.611 43.1548 43.609 43.1787L43.577 43.5785C43.5731 43.6208 43.5543 43.6602 43.524 43.6892C43.4938 43.7183 43.4542 43.7351 43.4128 43.7364L42.5578 43.7651C42.5144 43.7666 42.4732 43.7851 42.4427 43.8168C42.4121 43.8484 42.3946 43.8908 42.3936 43.9353L42.3816 44.4315C42.381 44.4543 42.3849 44.4771 42.393 44.4985C42.401 44.5198 42.4131 44.5393 42.4286 44.5559C42.444 44.5725 42.4625 44.5858 42.4829 44.595C42.5034 44.6043 42.5254 44.6093 42.5478 44.6098Z" fill="#E30387"/>
<path d="M45.4011 44.0501C45.3944 44.4273 45.4765 44.4485 45.6474 44.1136L46.0819 43.2627C46.1686 43.0919 46.3061 43.0017 46.4944 42.9921L46.7527 42.9798C47.0063 42.9675 47.0731 43.0748 46.9529 43.3017C46.7647 43.6571 46.5685 44.0296 46.3642 44.4191C46.21 44.7124 46.1099 45.0158 46.2621 45.3336C46.5411 45.92 46.7947 46.4928 47.023 47.0518C47.0764 47.1803 47.035 47.2452 46.8988 47.2466L46.4503 47.2507C46.3819 47.2513 46.3147 47.2314 46.2571 47.1935C46.1995 47.1557 46.1539 47.1014 46.1259 47.0375L45.6634 45.9795C45.4818 45.5626 45.3957 45.5824 45.4051 46.0389L45.4231 46.9657C45.4247 47.0356 45.3997 47.1034 45.3534 47.1547C45.307 47.206 45.243 47.2368 45.1748 47.2405L44.7983 47.261C44.6288 47.2705 44.544 47.1885 44.544 47.0149L44.54 43.2033C44.54 43.0269 44.6255 42.9436 44.7963 42.9531L45.1588 42.9757C45.3323 42.9853 45.4171 43.0789 45.4131 43.2566L45.4011 44.0501Z" fill="#E30387"/>
<path d="M48.835 46.3693C48.8898 46.344 48.9377 46.3054 48.9746 46.2569C49.0115 46.2084 49.0364 46.1514 49.047 46.0909C49.0577 46.0304 49.0538 45.9681 49.0357 45.9094C49.0176 45.8508 48.9858 45.7975 48.9432 45.7542C48.7696 45.5779 48.5861 45.4159 48.3925 45.2683C47.8278 44.8398 47.6757 44.1242 47.946 43.4578C48.1883 42.855 49.0873 42.9514 49.62 43.0108C49.7361 43.0245 49.7935 43.0915 49.7922 43.2118L49.7822 43.7059C49.782 43.7238 49.7779 43.7413 49.7702 43.7574C49.7625 43.7734 49.7514 43.7875 49.7376 43.7987C49.7238 43.8099 49.7077 43.8178 49.6905 43.822C49.6733 43.8261 49.6554 43.8264 49.638 43.8228C49.4805 43.79 49.323 43.7681 49.1654 43.7572C48.6508 43.7203 48.5767 44.2677 48.9151 44.5548C49.4257 44.9894 49.9844 45.3913 49.9223 46.1705C49.8302 47.3187 48.8751 47.3269 48.0161 47.1813C47.8345 47.1512 47.7477 47.0419 47.7558 46.8532L47.7658 46.5949C47.7738 46.409 47.8646 46.342 48.0381 46.3939C48.3411 46.4828 48.6068 46.4746 48.835 46.3693Z" fill="#E30387"/>
<path d="M51.0999 43.7612L50.7735 43.7448C50.6521 43.7393 50.5887 43.6737 50.5833 43.5479L50.5693 43.2199C50.564 43.0914 50.6234 43.0196 50.7475 43.0046C51.3242 42.9335 51.9416 42.9294 52.5997 42.9923C52.6758 42.9991 52.7199 43.0408 52.7319 43.1173C52.7933 43.5069 52.6318 43.7236 52.2473 43.7673C52.207 43.7718 52.1697 43.7916 52.1424 43.8229C52.1152 43.8543 52.0998 43.895 52.0991 43.9375L52.0671 47.0192C52.066 47.0823 52.041 47.1425 51.9972 47.1869C51.9534 47.2314 51.8944 47.2565 51.8328 47.257L51.4003 47.2591C51.3042 47.2591 51.2561 47.2099 51.2561 47.1115L51.2601 43.9334C51.2601 43.824 51.2067 43.7666 51.0999 43.7612Z" fill="#E30387"/>
<path d="M57.3312 46.6206L57.3693 47.0696C57.3709 47.0894 57.3685 47.1094 57.3623 47.1283C57.356 47.1472 57.3459 47.1645 57.3327 47.1791C57.3195 47.1938 57.3035 47.2055 57.2857 47.2134C57.2678 47.2214 57.2486 47.2255 57.2291 47.2254L55.6933 47.2357C55.6564 47.2357 55.6211 47.2208 55.5949 47.1944C55.5686 47.1679 55.5536 47.1319 55.5531 47.0942L55.5331 43.0898C55.5331 43.0702 55.5369 43.0509 55.5445 43.0329C55.552 43.0149 55.563 42.9987 55.5769 42.9853C55.5908 42.9719 55.6072 42.9615 55.6252 42.9548C55.6431 42.948 55.6622 42.9452 55.6813 42.9463L56.2379 42.9729C56.2737 42.9745 56.3075 42.99 56.3325 43.0163C56.3574 43.0427 56.3716 43.0777 56.3721 43.1144L56.4181 46.354C56.4184 46.3729 56.4223 46.3915 56.4296 46.4088C56.4368 46.4261 56.4474 46.4418 56.4606 46.4549C56.4738 46.468 56.4894 46.4784 56.5065 46.4853C56.5236 46.4923 56.5419 46.4958 56.5603 46.4955L57.1911 46.4893C57.2262 46.4892 57.2602 46.5026 57.2861 46.5269C57.3121 46.5512 57.3282 46.5847 57.3312 46.6206Z" fill="#E30387"/>
<path d="M60.0306 42.9563L59.53 42.9572C59.4316 42.9574 59.3519 43.0392 59.3521 43.14L59.3588 47.0767C59.359 47.1775 59.4389 47.2591 59.5374 47.2589L60.0379 47.258C60.1364 47.2578 60.216 47.176 60.2158 47.0752L60.2091 43.1385C60.209 43.0377 60.129 42.9561 60.0306 42.9563Z" fill="#E30387"/>
<path d="M62.9799 44.7661C62.9558 44.2412 62.9478 43.7142 62.9558 43.1852C62.9563 43.1556 62.9626 43.1264 62.9744 43.0994C62.9863 43.0724 63.0033 43.0481 63.0245 43.0282C63.0457 43.0082 63.0706 42.9929 63.0977 42.9832C63.1248 42.9736 63.1535 42.9698 63.1821 42.972L63.6286 43.0068C63.7314 43.015 63.7828 43.0725 63.7828 43.1791L63.7648 47.0584C63.7648 47.1623 63.7141 47.2163 63.6126 47.2204C63.2862 47.2347 62.9859 47.3946 62.8437 46.96C62.6541 46.3831 62.4486 45.8603 62.227 45.3914C62.0748 45.0716 62.0107 45.0893 62.0347 45.4447C62.0668 45.9382 62.0668 46.4522 62.0347 46.9866C62.0254 47.1698 61.9313 47.2607 61.7524 47.2593L61.5001 47.2573C61.3306 47.2573 61.2458 47.1705 61.2458 46.9969V43.1135C61.2458 43.0301 61.2858 42.9816 61.3659 42.9679C61.5595 42.9364 61.7437 42.9529 61.9186 43.0171C61.992 43.0444 62.0441 43.0957 62.0748 43.1709L62.7356 44.8214C62.9198 45.2848 63.0012 45.2664 62.9799 44.7661Z" fill="#E30387"/>
<path d="M65.8214 47.4994C65.8054 47.3818 65.7407 47.3149 65.6272 47.2984C65.3415 47.2561 65.0479 47.1952 64.7462 47.116C64.6527 47.0914 64.61 47.0299 64.618 46.9314L64.6501 46.5337C64.6594 46.4161 64.7195 46.371 64.8303 46.3983C65.2014 46.4899 65.4837 46.4824 65.6773 46.3758C65.7382 46.3422 65.7898 46.2934 65.8274 46.2339C65.8649 46.1745 65.8871 46.1063 65.8919 46.0358C65.8968 45.9653 65.884 45.8948 65.8548 45.8309C65.8257 45.767 65.7811 45.7118 65.7253 45.6705C64.9664 45.1087 64.3717 44.4792 64.8082 43.4171C65.0305 42.8799 65.9376 42.9394 66.4222 43.0152C66.589 43.0412 66.6698 43.1403 66.6644 43.3125L66.6544 43.618C66.6491 43.8149 66.5556 43.8805 66.3741 43.8149C66.1472 43.7315 65.9456 43.7322 65.7694 43.8169C65.7155 43.843 65.6684 43.8816 65.6318 43.9297C65.5952 43.9779 65.5702 44.0341 65.5587 44.0939C65.5472 44.1538 65.5496 44.2155 65.5657 44.2743C65.5817 44.333 65.611 44.387 65.6512 44.432C66.0017 44.8216 66.5423 45.084 66.7025 45.5966C66.8767 46.1625 66.7946 46.9294 66.1679 47.1631C66.0771 47.1959 66.047 47.2595 66.0778 47.3538C66.1125 47.4604 66.1659 47.5609 66.2379 47.6552C66.2598 47.6841 66.2739 47.7184 66.2788 47.7546C66.2837 47.7908 66.2793 47.8278 66.266 47.8618C66.2527 47.8959 66.2309 47.926 66.2028 47.9491C66.1747 47.9722 66.1413 47.9875 66.1058 47.9935L65.5431 48.0899C65.4644 48.1036 65.4103 48.0728 65.3809 47.9976C65.3529 47.9211 65.3549 47.8466 65.3869 47.7741C65.4136 47.7167 65.4563 47.6778 65.5151 47.6573C65.5792 47.6354 65.6446 47.6251 65.7113 47.6265C65.7954 47.6279 65.8321 47.5855 65.8214 47.4994Z" fill="#E30387"/>
<path d="M68.4585 46.5596L68.4024 47.0497C68.3959 47.1076 68.3687 47.161 68.3261 47.1993C68.2835 47.2376 68.2286 47.2581 68.1721 47.2567L67.7677 47.2506C67.6088 47.2479 67.5434 47.1665 67.5714 47.0066L68.2803 43.1047C68.2976 43.005 68.3557 42.9571 68.4545 42.9612C68.6734 42.9694 68.903 42.966 69.1433 42.951C69.3943 42.9359 69.5398 43.0562 69.5798 43.3118C69.7747 44.5571 70.0077 45.8003 70.2786 47.0415C70.3094 47.1877 70.252 47.2602 70.1064 47.2588L69.6799 47.2547C69.5264 47.2533 69.4397 47.1741 69.4196 47.0169L69.3596 46.5719C69.3462 46.4749 69.2915 46.4263 69.1954 46.4263L68.5987 46.4304C68.5146 46.4304 68.4678 46.4735 68.4585 46.5596ZM68.7689 45.678H69.0572C69.08 45.678 69.1019 45.6687 69.1181 45.6521C69.1342 45.6356 69.1433 45.6132 69.1433 45.5898V45.5713C69.144 45.3676 69.1392 45.1659 69.1293 44.9777C69.1194 44.7896 69.1045 44.6188 69.0856 44.4751C69.0666 44.3314 69.0439 44.2177 69.0187 44.1406C68.9936 44.0634 68.9665 44.0242 68.9391 44.0254H68.895C68.84 44.0276 68.7868 44.1915 68.747 44.4812C68.7072 44.7709 68.6841 45.1628 68.6828 45.5713V45.5898C68.6828 45.6132 68.6918 45.6356 68.708 45.6521C68.7241 45.6687 68.746 45.678 68.7689 45.678Z" fill="#E30387"/>
<path d="M71.9727 46.5351C71.9126 46.6759 71.8806 46.829 71.8766 46.9944C71.8739 47.1721 71.7858 47.2616 71.6123 47.263H71.2499C71.067 47.263 70.9929 47.1707 71.0276 46.9862L71.7364 43.1479C71.7474 43.0899 71.7785 43.038 71.8241 43.0015C71.8697 42.965 71.9267 42.9463 71.9847 42.949L72.8718 42.9961C72.9412 43.0002 72.9819 43.0371 72.9939 43.1069L73.6948 46.9903C73.7188 47.1229 73.6654 47.1974 73.5346 47.2138L73.1261 47.265C73.0962 47.2687 73.0659 47.2663 73.0369 47.2578C73.0079 47.2494 72.9809 47.2351 72.9574 47.2158C72.9339 47.1965 72.9144 47.1726 72.9001 47.1455C72.8857 47.1184 72.8768 47.0886 72.8738 47.0579L72.8337 46.6458C72.8257 46.5624 72.7843 46.5036 72.7096 46.4695C72.5214 46.3834 72.3198 46.3676 72.1049 46.4223C72.0435 46.4374 71.9994 46.4749 71.9727 46.5351ZM72.6375 45.432C72.5614 44.985 72.5294 44.5257 72.4433 44.0931C72.4406 44.0781 72.4339 44.0651 72.4233 44.0541C72.4099 44.0391 72.3892 44.0336 72.3612 44.0377C72.3211 44.0459 72.2998 44.0712 72.2971 44.1136C72.2704 44.5387 72.1963 44.972 72.0748 45.4135C72.0535 45.4942 72.0768 45.5571 72.1449 45.6022C72.2317 45.6582 72.3318 45.6835 72.4453 45.678C72.6001 45.6685 72.6642 45.5864 72.6375 45.432Z" fill="#E30387"/>
<path d="M74.736 43.7713C74.6279 43.7316 74.5144 43.7186 74.3956 43.7323C74.3615 43.7361 74.3271 43.7276 74.2986 43.7081C74.27 43.6886 74.2491 43.6594 74.2394 43.6257C74.1967 43.4699 74.1813 43.3106 74.1933 43.1479C74.2027 43.0195 74.2701 42.9566 74.3956 42.9593L76.1056 42.9798C76.1379 42.9805 76.169 42.9922 76.1937 43.0131C76.2185 43.0339 76.2354 43.0627 76.2418 43.0946C76.3125 43.4582 76.1964 43.6845 75.8934 43.7733C75.8391 43.7887 75.7911 43.8218 75.7564 43.8676C75.7218 43.9134 75.7024 43.9695 75.7011 44.0276L75.621 47.0478C75.6184 47.1763 75.5543 47.2419 75.4288 47.2446L75.0183 47.2569C74.9142 47.2596 74.8615 47.2077 74.8601 47.1011L74.8101 43.8779C74.8101 43.8544 74.803 43.8316 74.7897 43.8124C74.7764 43.7933 74.7576 43.7789 74.736 43.7713Z" fill="#E30387"/>
<path d="M79.5738 43.9273L79.4517 47.0726C79.4477 47.197 79.385 47.2592 79.2635 47.2592H78.9091C78.7983 47.2592 78.7402 47.2024 78.7348 47.089L78.5927 43.9642C78.5905 43.917 78.5733 43.8717 78.5437 43.8351C78.5141 43.7986 78.4737 43.7726 78.4285 43.7612C78.1628 43.6983 78.0514 43.4947 78.0941 43.1502C78.0998 43.1085 78.1199 43.0703 78.1508 43.0425C78.1816 43.0147 78.2212 42.9991 78.2623 42.9985L79.9523 42.9944C80.0052 42.9944 80.0561 43.0154 80.0939 43.053C80.1317 43.0905 80.1535 43.1416 80.1545 43.1953C80.1612 43.5261 80.021 43.71 79.734 43.7469C79.6312 43.7605 79.5778 43.8207 79.5738 43.9273Z" fill="#E30387"/>
<path d="M81.8905 45.5654L81.8744 46.2995C81.8742 46.3226 81.8785 46.3455 81.887 46.367C81.8956 46.3884 81.9083 46.4078 81.9244 46.424C81.9405 46.4403 81.9596 46.4531 81.9806 46.4616C82.0016 46.4702 82.0241 46.4743 82.0467 46.4737L82.9017 46.4491C82.9456 46.448 82.9882 46.4645 83.0204 46.4952C83.0526 46.5259 83.0718 46.5682 83.0739 46.6132L83.0979 47.0683C83.099 47.0916 83.0954 47.1149 83.0875 47.1368C83.0795 47.1586 83.0673 47.1786 83.0516 47.1955C83.0358 47.2123 83.0169 47.2258 82.996 47.2349C82.975 47.2441 82.9525 47.2488 82.9297 47.2488L81.2257 47.259C81.1811 47.259 81.1383 47.2409 81.1067 47.2086C81.0752 47.1763 81.0575 47.1325 81.0575 47.0868L81.0535 43.1439C81.0535 43.1211 81.0579 43.0986 81.0665 43.0775C81.075 43.0565 81.0876 43.0374 81.1034 43.0214C81.1193 43.0054 81.138 42.9927 81.1587 42.9842C81.1793 42.9757 81.2014 42.9714 81.2237 42.9717L82.9177 42.9819C82.9623 42.9819 83.0051 43.0001 83.0366 43.0324C83.0682 43.0647 83.0859 43.1085 83.0859 43.1542L83.0879 43.5437C83.0885 43.5881 83.0724 43.6309 83.0429 43.6634C83.0134 43.6958 82.9729 43.7154 82.9297 43.718L82.0426 43.7713C82.0011 43.7738 81.962 43.792 81.9328 43.8223C81.9036 43.8525 81.8864 43.8928 81.8845 43.9354L81.8664 44.4295C81.8648 44.4749 81.8807 44.519 81.9107 44.5524C81.9407 44.5858 81.9824 44.6058 82.0266 44.6079L82.8316 44.6448C82.8539 44.6458 82.8757 44.6514 82.8959 44.6612C82.916 44.671 82.9341 44.6847 82.949 44.7017C82.9639 44.7187 82.9753 44.7385 82.9827 44.7601C82.99 44.7817 82.9931 44.8045 82.9918 44.8273L82.9697 45.2148C82.9672 45.258 82.949 45.2986 82.9185 45.3286C82.8881 45.3586 82.8478 45.3758 82.8056 45.3768L82.0547 45.3973C82.0114 45.3983 81.9703 45.4164 81.9397 45.4477C81.9091 45.479 81.8915 45.5212 81.8905 45.5654Z" fill="#E30387"/>
<path d="M86.0293 45.1102L85.6389 46.0965C85.629 46.1218 85.6119 46.1435 85.5899 46.1589C85.568 46.1742 85.542 46.1826 85.5154 46.1828C85.4887 46.183 85.4627 46.1751 85.4404 46.1601C85.4182 46.1451 85.4008 46.1236 85.3906 46.0985L84.9901 45.1102C84.9714 45.0665 84.9394 45.046 84.894 45.0487C84.8753 45.0487 84.8599 45.0569 84.8479 45.0733C84.8332 45.0925 84.8259 45.1143 84.8259 45.1389C84.8232 45.7718 84.8252 46.4074 84.8319 47.0458C84.8346 47.1893 84.7651 47.2604 84.6236 47.259H84.1891C84.0623 47.2576 83.9989 47.1914 83.9989 47.0601L84.0089 43.146C84.0089 43.0161 84.0723 42.9532 84.1991 42.9573L84.6577 42.9778C84.7538 42.9819 84.8212 43.0291 84.8599 43.1193C85.0415 43.5431 85.209 43.9791 85.3625 44.4274C85.3879 44.5054 85.4366 44.5566 85.5087 44.5812C85.5315 44.5891 85.5565 44.5875 85.5782 44.5768C85.5999 44.5661 85.6167 44.547 85.6248 44.5238C85.769 44.1042 85.9325 43.662 86.1154 43.1972C86.2416 42.8733 86.614 42.9327 86.8823 43.0045C86.9276 43.0167 86.9676 43.044 86.9962 43.0822C87.0248 43.1204 87.0404 43.1673 87.0405 43.2157L87.0385 47.013C87.0385 47.0658 87.0199 47.117 86.9861 47.1569C86.9522 47.1968 86.9054 47.2229 86.8543 47.2303C86.6767 47.2549 86.5039 47.2508 86.3357 47.218C86.2854 47.2078 86.2403 47.1794 86.2087 47.138C86.1771 47.0966 86.1611 47.0449 86.1635 46.9925C86.1862 46.3391 86.1882 45.7199 86.1695 45.1348C86.1615 44.8997 86.1147 44.8915 86.0293 45.1102Z" fill="#E30387"/>
<path d="M88.7084 42.9675L88.1998 42.9666C88.1014 42.9665 88.0215 43.048 88.0213 43.1488L88.0146 47.0691C88.0144 47.1699 88.0941 47.2517 88.1925 47.2519L88.7011 47.2528C88.7995 47.253 88.8795 47.1714 88.8796 47.0706L88.8863 43.1503C88.8865 43.0496 88.8068 42.9677 88.7084 42.9675Z" fill="#E30387"/>
<path d="M90.9031 43.7344L90.0882 43.7754C89.98 43.7809 89.9226 43.7283 89.916 43.6175L89.8939 43.1624C89.8873 43.0448 89.9413 42.986 90.0561 42.986L91.8503 42.9717C91.9157 42.9717 91.9511 43.0052 91.9564 43.0721C91.9858 43.433 91.939 43.7597 91.8162 44.0522C91.5132 44.7685 91.1621 45.5121 90.763 46.283C90.752 46.3045 90.7467 46.3286 90.7478 46.3529C90.7488 46.3771 90.7561 46.4007 90.769 46.4211C90.7818 46.4415 90.7996 46.4581 90.8208 46.4691C90.8419 46.4802 90.8655 46.4853 90.8891 46.484L91.7301 46.4348C91.8663 46.4279 91.9357 46.4942 91.9384 46.6337L91.9444 47.0519C91.947 47.19 91.8816 47.2576 91.7481 47.2549L89.942 47.2262C89.9119 47.2258 89.883 47.2139 89.8609 47.1927C89.8387 47.1715 89.8248 47.1425 89.8219 47.1114C89.7878 46.7198 89.8439 46.3425 90.0161 45.9898C90.3605 45.2872 90.6929 44.5915 91.0133 43.9025C91.0215 43.8841 91.0249 43.8638 91.0233 43.8435C91.0217 43.8233 91.0151 43.8039 91.004 43.787C90.993 43.7702 90.9779 43.7565 90.9603 43.7473C90.9426 43.7381 90.9229 43.7336 90.9031 43.7344Z" fill="#E30387"/>
<path d="M94.0571 46.4876L94.6919 46.4322C94.7111 46.4305 94.7305 46.4329 94.7487 46.4392C94.767 46.4456 94.7838 46.4557 94.7981 46.469C94.8124 46.4822 94.8239 46.4984 94.8318 46.5164C94.8397 46.5344 94.8439 46.5539 94.8441 46.5737L94.8501 47.1047C94.8503 47.1238 94.8469 47.1427 94.84 47.1603C94.8331 47.178 94.8228 47.194 94.8097 47.2076C94.7967 47.2211 94.7811 47.2319 94.764 47.2392C94.7469 47.2465 94.7285 47.2503 94.7099 47.2503L93.1801 47.2544C93.1429 47.2544 93.1073 47.2393 93.081 47.2124C93.0547 47.1855 93.0399 47.149 93.0399 47.1109V43.1045C93.0399 43.0664 93.0547 43.0299 93.081 43.003C93.1073 42.9761 93.1429 42.9609 93.1801 42.9609L93.7768 42.965C93.814 42.965 93.8496 42.9802 93.8759 43.0071C93.9022 43.034 93.917 43.0705 93.917 43.1086L93.9049 46.3441C93.9049 46.364 93.9089 46.3837 93.9166 46.402C93.9244 46.4202 93.9358 46.4367 93.9501 46.4502C93.9645 46.4637 93.9814 46.474 93.9998 46.4804C94.0182 46.4868 94.0377 46.4893 94.0571 46.4876Z" fill="#E30387"/>
<path d="M96.4939 42.9673H95.9653C95.8724 42.9673 95.7971 43.0444 95.7971 43.1395V47.0762C95.7971 47.1714 95.8724 47.2485 95.9653 47.2485H96.4939C96.5868 47.2485 96.6621 47.1714 96.6621 47.0762V43.1395C96.6621 43.0444 96.5868 42.9673 96.4939 42.9673Z" fill="#E30387"/>
<path d="M98.4661 47.2117L97.7753 47.2588C97.7657 47.2594 97.7562 47.258 97.7472 47.2546C97.7382 47.2512 97.73 47.246 97.7231 47.2393C97.7162 47.2326 97.7106 47.2245 97.7069 47.2155C97.7031 47.2065 97.7012 47.1969 97.7012 47.1871L97.7052 43.0269C97.7051 43.0169 97.7071 43.007 97.711 42.9979C97.7149 42.9888 97.7206 42.9806 97.7278 42.9738C97.7349 42.9671 97.7434 42.9619 97.7526 42.9587C97.7618 42.9555 97.7716 42.9542 97.7813 42.9551L98.4901 43.0084C98.5083 43.0095 98.5255 43.0178 98.5378 43.0316C98.5501 43.0454 98.5567 43.0635 98.5562 43.0822L98.5121 44.335C98.5113 44.3514 98.5159 44.3675 98.5253 44.3808C98.5347 44.3941 98.5482 44.4037 98.5637 44.408C98.5791 44.4123 98.5955 44.4111 98.6102 44.4045C98.6249 44.398 98.6369 44.3864 98.6443 44.3719L99.3732 43.0392C99.3791 43.0282 99.3878 43.019 99.3984 43.0125C99.4089 43.006 99.4209 43.0025 99.4332 43.0023L100.116 42.992C100.128 42.9917 100.14 42.9946 100.151 43.0005C100.162 43.0064 100.171 43.0151 100.177 43.0256C100.184 43.0362 100.187 43.0482 100.188 43.0607C100.188 43.0731 100.186 43.0855 100.18 43.0966L99.2851 44.9071C99.2803 44.9165 99.2776 44.9269 99.2773 44.9376C99.2769 44.9482 99.2789 44.9588 99.2831 44.9686L100.2 47.144C100.204 47.155 100.206 47.1669 100.205 47.1786C100.203 47.1904 100.199 47.2016 100.193 47.2113C100.186 47.2211 100.178 47.229 100.167 47.2344C100.157 47.2399 100.146 47.2426 100.134 47.2424L99.4132 47.2342C99.4002 47.234 99.3874 47.23 99.3765 47.2228C99.3655 47.2155 99.3567 47.2053 99.3511 47.1932L98.6583 45.6718C98.6511 45.6578 98.6396 45.6466 98.6256 45.6399C98.6116 45.6333 98.5957 45.6316 98.5807 45.6351C98.5656 45.6386 98.552 45.6471 98.5422 45.6593C98.5323 45.6716 98.5267 45.6868 98.5262 45.7026L98.5322 47.1399C98.5322 47.1583 98.5254 47.1759 98.5131 47.1893C98.5008 47.2026 98.484 47.2106 98.4661 47.2117Z" fill="#E30387"/>
<path d="M39.0516 43.7442C38.9675 43.7291 38.8814 43.7312 38.7933 43.7503C38.7574 43.7578 38.7199 43.752 38.6874 43.7341C38.6549 43.7161 38.6293 43.6871 38.6151 43.6519C38.5577 43.5056 38.5377 43.3525 38.5551 43.1926C38.5684 43.0668 38.6372 43.0033 38.7613 43.0019L40.5074 42.9978C40.6689 42.9965 40.7356 43.0778 40.7076 43.2418L40.6696 43.4674C40.6429 43.6287 40.5494 43.7114 40.3892 43.7155C40.1783 43.7209 40.0695 43.8262 40.0628 44.0312C40.0295 45.1411 40.0261 46.1506 40.0528 47.0596C40.0539 47.0979 40.0405 47.1351 40.0154 47.1631C39.9903 47.1911 39.9555 47.2077 39.9187 47.2093L39.38 47.24C39.2866 47.2455 39.2392 47.2004 39.2379 47.1047L39.2058 43.9266C39.2045 43.8214 39.1531 43.7606 39.0516 43.7442Z" fill="#E30387"/>
<path d="M11.75 43.9845L11.3615 43.9838C11.2465 43.9836 11.1531 44.0789 11.1529 44.1966L11.1481 47.0385C11.1479 47.1562 11.2409 47.2519 11.3559 47.2521L11.7444 47.2528C11.8594 47.253 11.9528 47.1577 11.953 47.0399L11.9579 44.1981C11.9581 44.0803 11.865 43.9847 11.75 43.9845Z" fill="#E30387"/>
<path d="M29.8654 50.0964L29.401 50.0839C29.3071 50.0814 29.2289 50.1573 29.2264 50.2536L29.2215 50.4462C29.2191 50.5425 29.2932 50.6225 29.3872 50.625L29.8516 50.6375C29.9456 50.64 30.0237 50.564 30.0262 50.4678L30.0311 50.2751C30.0336 50.1789 29.9594 50.0989 29.8654 50.0964Z" fill="#E30387"/>
<path d="M41.987 50.0855L41.5469 50.1043C41.4507 50.1085 41.3761 50.1916 41.3801 50.29L41.3893 50.5154C41.3934 50.6138 41.4745 50.6903 41.5707 50.6861L42.0108 50.6673C42.1069 50.6631 42.1816 50.58 42.1776 50.4816L42.1683 50.2562C42.1643 50.1578 42.0831 50.0813 41.987 50.0855Z" fill="#E30387"/>
<path d="M43.0274 50.0913L42.6911 50.0829C42.5916 50.0804 42.509 50.161 42.5066 50.2628L42.5011 50.4924C42.4987 50.5943 42.5774 50.6789 42.6769 50.6814L43.0132 50.6898C43.1127 50.6923 43.1953 50.6117 43.1977 50.5099L43.2032 50.2803C43.2056 50.1784 43.1269 50.0938 43.0274 50.0913Z" fill="#E30387"/>
<path d="M65.4009 50.081L64.9445 50.0908C64.856 50.0927 64.7858 50.1677 64.7877 50.2582L64.7925 50.496C64.7944 50.5866 64.8676 50.6585 64.956 50.6566L65.4125 50.6468C65.5009 50.6449 65.5711 50.5699 65.5693 50.4794L65.5644 50.2416C65.5626 50.151 65.4894 50.0791 65.4009 50.081Z" fill="#E30387"/>
<path d="M97.0009 50.089L96.4523 50.0919C96.3926 50.0923 96.3444 50.1421 96.3447 50.2032L96.3464 50.5272C96.3467 50.5884 96.3954 50.6377 96.4551 50.6373L97.0037 50.6344C97.0635 50.6341 97.1116 50.5843 97.1113 50.5231L97.1096 50.1991C97.1093 50.138 97.0607 50.0887 97.0009 50.089Z" fill="#E30387"/>
<path d="M29.8922 50.8784L29.3916 50.8775C29.2865 50.8773 29.2012 50.9644 29.201 51.072L29.1943 55.0005C29.1941 55.1081 29.2792 55.1954 29.3842 55.1956L29.8848 55.1965C29.9899 55.1967 30.0752 55.1096 30.0754 55.0021L30.0821 51.0736C30.0823 50.966 29.9972 50.8786 29.8922 50.8784Z" fill="#E30387"/>
<path d="M65.4933 50.8837L64.8726 50.8848C64.8085 50.8849 64.7566 50.9383 64.7567 51.0039L64.7636 55.0801C64.7637 55.1457 64.8158 55.1989 64.88 55.1988L65.5007 55.1977C65.5648 55.1976 65.6167 55.1442 65.6166 55.0785L65.6097 51.0024C65.6096 50.9367 65.5575 50.8836 65.4933 50.8837Z" fill="#E30387"/>
<path d="M96.9647 50.875L96.4641 50.8759C96.3712 50.8761 96.296 50.9533 96.2962 51.0485L96.303 55.0221C96.3031 55.1172 96.3786 55.1942 96.4715 55.194L96.9721 55.1931C97.0649 55.1929 97.1401 55.1157 97.14 55.0206L97.1332 51.047C97.133 50.9518 97.0576 50.8749 96.9647 50.875Z" fill="#E30387"/>
<path d="M10.3091 51.7207L9.9627 51.6592C9.80518 51.6319 9.73843 51.5375 9.76246 51.3762L9.7925 51.163C9.80313 51.0901 9.83898 51.0235 9.89345 50.9757C9.94792 50.9278 10.0173 50.9019 10.0888 50.9026L11.7028 50.9108C11.7539 50.9108 11.803 50.9317 11.8394 50.9689C11.8758 51.0062 11.8965 51.0568 11.897 51.1097L11.899 51.4665C11.899 51.4941 11.8937 51.5215 11.8833 51.547C11.8729 51.5725 11.8577 51.5956 11.8385 51.6151C11.8193 51.6345 11.7965 51.6499 11.7715 51.6603C11.7465 51.6707 11.7197 51.6759 11.6928 51.6756C11.5793 51.6742 11.4732 51.6947 11.3744 51.7371C11.2983 51.7713 11.2602 51.8307 11.2602 51.9155V54.9931C11.2602 55.0207 11.2549 55.0481 11.2447 55.0736C11.2344 55.0991 11.2193 55.1223 11.2003 55.1417C11.1813 55.1612 11.1588 55.1765 11.134 55.1869C11.1092 55.1973 11.0827 55.2025 11.056 55.2022L10.6415 55.2002C10.508 55.1988 10.4413 55.1305 10.4413 54.9952L10.4433 51.8868C10.4433 51.7925 10.3986 51.7371 10.3091 51.7207Z" fill="#E30387"/>
<path d="M13.9316 54.3527C13.8662 54.3445 13.7981 54.3466 13.7273 54.3589C13.6819 54.3671 13.6366 54.3705 13.5912 54.3692C13.2801 54.3623 13.138 54.5325 13.1647 54.8797C13.178 55.0465 13.1046 55.1462 12.9444 55.179C12.7789 55.2132 12.6047 55.2146 12.4218 55.1832C12.4027 55.1799 12.3845 55.1728 12.3682 55.1623C12.3519 55.1519 12.3378 55.1382 12.3268 55.1221C12.3158 55.1061 12.308 55.0879 12.3041 55.0688C12.3001 55.0497 12.2999 55.03 12.3036 55.0109L13.0005 51.1357C13.0127 51.0689 13.0475 51.0087 13.0988 50.9656C13.15 50.9225 13.2145 50.8992 13.2808 50.8999L14.0978 50.9122C14.1872 50.9136 14.2406 50.9594 14.258 51.0496L15.0069 55.056C15.0242 55.1462 14.9875 55.1914 14.8967 55.1914L14.314 55.1893C14.2313 55.1893 14.1819 55.1476 14.1659 55.0642L14.0597 54.4778C14.0464 54.404 14.0037 54.3623 13.9316 54.3527ZM13.8955 53.4403C13.8982 52.9154 13.8248 52.4678 13.6753 52.0973C13.6112 51.9374 13.5678 51.9429 13.5451 52.1137L13.3769 53.385C13.3719 53.4224 13.3794 53.4605 13.3984 53.4929C13.4173 53.5253 13.4465 53.5502 13.481 53.5634C13.5651 53.5975 13.6519 53.6119 13.7413 53.6064C13.8441 53.6009 13.8955 53.5456 13.8955 53.4403Z" fill="#E30387"/>
<path d="M16.7772 54.341L16.7552 54.9766C16.7499 55.1256 16.6744 55.2001 16.5289 55.2001L16.1024 55.2021C15.9689 55.2021 15.9029 55.1345 15.9042 54.9991L15.9102 51.0111C15.9102 50.9962 15.9131 50.9813 15.9188 50.9675C15.9244 50.9537 15.9327 50.9412 15.9432 50.9307C15.9536 50.9202 15.966 50.9119 15.9796 50.9064C15.9932 50.9008 16.0077 50.8981 16.0223 50.8984C16.6411 50.9086 17.404 50.8041 17.9246 51.1485C18.4212 51.4745 18.3571 52.4321 18.285 52.9344C18.2396 53.2461 18.0835 53.516 17.8165 53.7443C17.7537 53.7976 17.7404 53.8625 17.7764 53.9391L18.267 54.9766C18.3404 55.131 18.293 55.2069 18.1248 55.2042L17.6703 55.196C17.6065 55.1948 17.5445 55.1741 17.4924 55.1364C17.4403 55.0987 17.4004 55.0459 17.3779 54.9848C17.2952 54.7565 17.2037 54.5207 17.1036 54.2774C16.9034 53.7935 16.7946 53.8147 16.7772 54.341ZM16.7672 51.8621L16.7632 52.9365C16.7632 52.9769 16.7788 53.0157 16.8065 53.0445C16.8342 53.0733 16.8719 53.0897 16.9114 53.0902L17.0255 53.0923C17.1445 53.0928 17.2587 53.0421 17.3432 52.9513C17.4277 52.8606 17.4755 52.7372 17.4761 52.6084L17.4801 52.1983C17.4804 52.1345 17.469 52.0712 17.4467 52.0122C17.4244 51.9531 17.3916 51.8994 17.3502 51.854C17.3087 51.8087 17.2594 51.7727 17.2051 51.7481C17.1507 51.7234 17.0925 51.7106 17.0335 51.7103L16.9194 51.7083C16.8995 51.708 16.8798 51.7118 16.8613 51.7194C16.8429 51.727 16.8261 51.7383 16.8119 51.7526C16.7978 51.7669 16.7865 51.7839 16.7788 51.8027C16.7712 51.8215 16.7672 51.8417 16.7672 51.8621Z" fill="#E30387"/>
<path d="M19.9785 50.9011L19.4419 50.9002C19.3567 50.9 19.2876 50.9706 19.2875 51.0578L19.2807 55.0437C19.2805 55.1309 19.3494 55.2017 19.4346 55.2019L19.9712 55.2028C20.0564 55.203 20.1255 55.1324 20.1257 55.0452L20.1325 51.0593C20.1326 50.9721 20.0637 50.9013 19.9785 50.9011Z" fill="#E30387"/>
<path d="M21.9733 53.0888L22.0113 54.9875C22.014 55.12 21.9512 55.1884 21.8231 55.1925L21.3445 55.2068C21.2297 55.2096 21.1723 55.1529 21.1723 55.0367L21.1763 51.0405C21.1763 51.0208 21.1802 51.0014 21.1877 50.9833C21.1952 50.9652 21.2062 50.9489 21.22 50.9353C21.2339 50.9217 21.2503 50.9111 21.2682 50.9042C21.2862 50.8972 21.3053 50.8941 21.3245 50.8949L21.8171 50.9154C21.9012 50.9181 21.9606 50.9598 21.9953 51.0405L22.56 52.3732C22.6454 52.5755 22.7288 52.5742 22.8103 52.3691L23.3489 51.02C23.3836 50.9352 23.445 50.8935 23.5331 50.8949L24.0477 50.9052C24.0815 50.9062 24.1136 50.9207 24.1372 50.9456C24.1607 50.9705 24.1739 51.0038 24.1739 51.0384L24.1799 54.9669C24.1799 55.1255 24.1025 55.2048 23.9476 55.2048H23.6132C23.4156 55.2034 23.3162 55.1016 23.3149 54.8993L23.3068 53.1134C23.3069 53.0891 23.2977 53.0657 23.2813 53.0481C23.2649 53.0306 23.2425 53.0201 23.2187 53.0191C23.1613 53.0164 23.1273 53.041 23.1166 53.0929C23.0619 53.3485 22.9905 53.5829 22.9024 53.7962C22.7355 54.2008 22.5846 54.1946 22.4498 53.7777C22.3617 53.5016 22.2389 53.259 22.0814 53.0499C22.0066 52.9501 21.9706 52.9631 21.9733 53.0888Z" fill="#E30387"/>
<path d="M27.0494 51.9808C27 52.1599 27.054 52.3246 27.2116 52.475C27.6681 52.9035 28.1967 53.1782 28.2428 53.8979C28.3269 55.2225 27.1935 55.3619 26.2604 55.0933C26.183 55.0714 26.1416 55.0195 26.1363 54.9375L26.1083 54.4987C26.1068 54.4749 26.1108 54.4511 26.1197 54.4291C26.1287 54.4071 26.1425 54.3876 26.16 54.3721C26.1775 54.3566 26.1982 54.3455 26.2205 54.3397C26.2428 54.3339 26.266 54.3336 26.2885 54.3387C26.8344 54.4549 27.1762 54.416 27.3137 54.2219C27.4605 54.0155 27.4332 53.8214 27.2316 53.6396C26.6189 53.0901 26.0181 52.803 26.1763 51.7881C26.3305 50.8039 27.2636 50.7977 27.9945 50.9966C28.0719 51.0171 28.1113 51.0691 28.1126 51.1525L28.1226 51.6199C28.1229 51.6344 28.1204 51.6487 28.1151 51.6621C28.1098 51.6754 28.1019 51.6875 28.0919 51.6975C28.082 51.7075 28.0701 51.7153 28.0571 51.7203C28.0442 51.7253 28.0303 51.7274 28.0165 51.7266L27.4358 51.6958C27.3494 51.6912 27.2639 51.7169 27.1937 51.7687C27.1234 51.8206 27.0725 51.8954 27.0494 51.9808Z" fill="#E30387"/>
<path d="M31.4643 51.7022L31.1339 51.6612C31.0445 51.6502 30.9871 51.6004 30.9617 51.5115C30.9297 51.3912 30.915 51.2627 30.9177 51.126C30.9203 50.9811 30.9924 50.9087 31.1339 50.9087L32.856 50.9107C32.907 50.9113 32.9564 50.9291 32.9966 50.9614C33.0368 50.9936 33.0655 51.0385 33.0782 51.0891C33.121 51.2655 33.0936 51.4254 32.9961 51.5689C32.9508 51.6359 32.8887 51.6755 32.8099 51.6878L32.5616 51.7247C32.4695 51.7384 32.4235 51.7931 32.4235 51.8888L32.4154 54.9725C32.4141 55.1188 32.3427 55.194 32.2012 55.1981L31.8227 55.2063C31.6852 55.2104 31.6158 55.142 31.6145 55.0012L31.6065 51.8662C31.6065 51.7692 31.5591 51.7145 31.4643 51.7022Z" fill="#E30387"/>
<path d="M34.8806 54.3941L35.7577 54.4105C35.8025 54.4115 35.8452 54.4302 35.8769 54.4627C35.9086 54.4952 35.9268 54.5389 35.9279 54.5848L35.9359 55.001C35.9361 55.0244 35.9319 55.0477 35.9234 55.0694C35.9149 55.0912 35.9023 55.111 35.8863 55.1277C35.8703 55.1445 35.8512 55.1579 35.8302 55.1671C35.8091 55.1763 35.7865 55.1812 35.7637 55.1814L34.1017 55.2101C34.0786 55.2104 34.0558 55.206 34.0344 55.1972C34.013 55.1883 33.9936 55.1752 33.9772 55.1586C33.9608 55.142 33.9478 55.1223 33.9389 55.1005C33.93 55.0787 33.9255 55.0554 33.9255 55.0318V51.0766C33.9255 51.053 33.93 51.0296 33.9389 51.0078C33.9478 50.9861 33.9608 50.9663 33.9772 50.9497C33.9936 50.9331 34.013 50.92 34.0344 50.9112C34.0558 50.9023 34.0786 50.8979 34.1017 50.8982L35.7637 50.9146C35.7869 50.9149 35.8098 50.9199 35.8311 50.9293C35.8524 50.9388 35.8717 50.9525 35.8877 50.9697C35.9038 50.9869 35.9163 51.0072 35.9246 51.0295C35.9328 51.0517 35.9367 51.0754 35.9359 51.0991L35.9239 51.5215C35.9223 51.5674 35.9035 51.6109 35.8715 51.643C35.8394 51.6751 35.7965 51.6932 35.7516 51.6937L34.9006 51.7081C34.8558 51.7091 34.8131 51.7278 34.7814 51.7603C34.7497 51.7928 34.7315 51.8365 34.7304 51.8824L34.7224 52.3622C34.7219 52.3859 34.726 52.4096 34.7345 52.4317C34.743 52.4538 34.7558 52.474 34.772 52.491C34.7882 52.508 34.8076 52.5215 34.829 52.5307C34.8504 52.5399 34.8734 52.5447 34.8966 52.5447L35.6475 52.5385C35.6707 52.5382 35.6938 52.5427 35.7153 52.5517C35.7368 52.5607 35.7563 52.5739 35.7727 52.5907C35.7891 52.6075 35.8021 52.6275 35.8109 52.6496C35.8196 52.6716 35.824 52.6952 35.8237 52.7189L35.8197 53.1557C35.8192 53.2023 35.8009 53.2468 35.7687 53.2798C35.7365 53.3127 35.693 53.3315 35.6475 53.332L34.9147 53.3361C34.8698 53.3361 34.8267 53.3537 34.7942 53.3854C34.7618 53.4171 34.7425 53.4604 34.7404 53.5063L34.7104 54.2096C34.7096 54.2332 34.7134 54.2567 34.7215 54.2788C34.7297 54.3009 34.742 54.3211 34.7579 54.3382C34.7737 54.3554 34.7927 54.3692 34.8138 54.3788C34.8348 54.3884 34.8576 54.3936 34.8806 54.3941Z" fill="#E30387"/>
<path d="M38.9795 52.4158C39.0262 52.6058 39.0789 52.6072 39.1377 52.4199C39.2578 52.0358 39.3566 51.6394 39.434 51.2307C39.4754 51.0106 39.6056 50.9013 39.8245 50.9027H40.1549C40.3618 50.904 40.4286 51.0038 40.3551 51.202C40.1202 51.8294 39.8799 52.4876 39.6343 53.1765C39.426 53.7609 39.4901 54.3637 39.5121 54.9767C39.5175 55.1066 39.4567 55.1743 39.3299 55.1797L38.8754 55.2002C38.7152 55.2071 38.6297 55.1278 38.6191 54.9624C38.575 54.2612 38.6892 53.6481 38.4308 52.9592C38.1972 52.3331 37.9743 51.7283 37.7621 51.1446C37.7006 50.9778 37.7567 50.8951 37.9302 50.8965L38.3067 50.9006C38.5069 50.9033 38.6311 51.0038 38.6791 51.202L38.9795 52.4158Z" fill="#E30387"/>
<path d="M43.5634 53.9807C43.5631 54.1392 43.5323 54.2962 43.4728 54.4426C43.4133 54.5891 43.3262 54.722 43.2165 54.834C43.1068 54.9459 42.9766 55.0347 42.8334 55.0951C42.6902 55.1555 42.5368 55.1865 42.3819 55.1862L42.2257 55.1859C42.0709 55.1856 41.9176 55.1541 41.7746 55.0932C41.6316 55.0322 41.5017 54.943 41.3924 54.8307C41.2831 54.7184 41.1964 54.5851 41.1374 54.4385C41.0784 54.2918 41.0481 54.1347 41.0484 53.9761L41.0516 52.1267C41.0518 51.9681 41.0826 51.8111 41.1421 51.6647C41.2017 51.5183 41.2888 51.3853 41.3985 51.2734C41.5082 51.1614 41.6383 51.0727 41.7815 51.0123C41.9247 50.9518 42.0782 50.9209 42.233 50.9211L42.3892 50.9214C42.5441 50.9217 42.6974 50.9532 42.8404 51.0142C42.9834 51.0751 43.1133 51.1643 43.2226 51.2766C43.3319 51.389 43.4185 51.5223 43.4776 51.6689C43.5366 51.8155 43.5668 51.9726 43.5666 52.1312L43.5634 53.9807ZM42.7358 52.1409C42.7362 52.0881 42.7265 52.0357 42.7072 51.9868C42.6879 51.9379 42.6594 51.8933 42.6233 51.8557C42.5871 51.818 42.5441 51.788 42.4967 51.7674C42.4492 51.7468 42.3983 51.7359 42.3467 51.7355L42.3147 51.7352C42.2632 51.7347 42.212 51.7447 42.1643 51.7644C42.1165 51.7842 42.073 51.8134 42.0362 51.8504C41.9994 51.8874 41.9702 51.9314 41.95 51.98C41.9299 52.0286 41.9193 52.0808 41.9188 52.1336L41.9032 53.9665C41.9028 54.0193 41.9125 54.0716 41.9318 54.1206C41.9511 54.1695 41.9796 54.2141 42.0157 54.2517C42.0519 54.2893 42.0949 54.3193 42.1423 54.3399C42.1898 54.3606 42.2407 54.3714 42.2922 54.3719L42.3243 54.3722C42.3758 54.3726 42.4269 54.3627 42.4747 54.3429C42.5225 54.3231 42.566 54.2939 42.6028 54.2569C42.6396 54.2199 42.6688 54.1759 42.689 54.1273C42.7091 54.0787 42.7197 54.0266 42.7202 53.9738L42.7358 52.1409Z" fill="#E30387"/>
<path d="M46.316 52.7208L46.288 51.185C46.284 50.9937 46.3755 50.898 46.5623 50.898L46.8166 50.8959C47.0049 50.8946 47.0996 50.9903 47.101 51.183L47.125 54.9352C47.125 55.0678 47.0616 55.1464 46.9348 55.171C46.7105 55.2133 46.5116 55.1942 46.3381 55.1136C46.2955 55.0924 46.2627 55.0565 46.246 55.0131L45.5712 53.2477C45.5511 53.1972 45.5158 53.1691 45.465 53.1637C45.437 53.1609 45.417 53.1698 45.405 53.1903C45.397 53.204 45.3936 53.2177 45.395 53.2313C45.423 53.8369 45.423 54.426 45.395 54.9987C45.3883 55.1354 45.3189 55.2038 45.1867 55.2038L44.7802 55.2017C44.6427 55.2017 44.574 55.132 44.574 54.9926L44.586 51.0518C44.586 50.9793 44.62 50.9328 44.6881 50.9123C45.1006 50.7921 45.3789 50.9287 45.5231 51.3224C45.7087 51.8254 45.8949 52.308 46.0818 52.77C46.2446 53.1746 46.3227 53.1582 46.316 52.7208Z" fill="#E30387"/>
<path d="M52.1931 51.8942L52.1911 54.9513C52.1897 55.118 52.1076 55.2014 51.9448 55.2014L51.5984 55.2035C51.4649 55.2048 51.3975 55.1372 51.3961 55.0005L51.3601 51.8798C51.3596 51.8321 51.3406 51.7865 51.3073 51.7528C51.274 51.7191 51.229 51.6999 51.1819 51.6994C51.0217 51.6966 50.8795 51.6591 50.7554 51.5866C50.702 51.5552 50.6739 51.508 50.6713 51.4451C50.6526 51.0733 50.8121 50.8902 51.1498 50.8956C51.6531 50.9025 52.139 50.9086 52.6076 50.9141C52.645 50.9148 52.6813 50.9268 52.712 50.9487C52.7427 50.9706 52.7663 51.0014 52.7798 51.0371C52.8465 51.2175 52.8378 51.3891 52.7537 51.5517C52.723 51.6105 52.6757 51.6474 52.6116 51.6625L52.3272 51.724C52.2391 51.7445 52.1944 51.8012 52.1931 51.8942Z" fill="#E30387"/>
<path d="M54.9304 54.3898C55.156 54.3256 55.2695 54.1738 55.2708 53.9346L55.2888 51.0867C55.2888 50.9636 55.3489 50.9028 55.469 50.9042H55.9096C56.0724 50.9042 56.1545 50.9882 56.1558 51.1564C56.1558 52.0326 56.1512 52.9559 56.1418 53.9264C56.1338 54.8368 55.6699 55.2599 54.7502 55.1956C54.0987 55.1505 53.757 54.8224 53.725 54.2114C53.6756 53.256 53.6522 52.2362 53.6549 51.1523C53.6549 50.9978 53.7296 50.9185 53.8791 50.9144L54.3477 50.9001C54.4825 50.896 54.5506 50.9636 54.5519 51.1031L54.5559 54.031C54.556 54.0594 54.5628 54.0882 54.576 54.1151C54.6801 54.3351 54.7982 54.4267 54.9304 54.3898Z" fill="#E30387"/>
<path d="M58.0061 54.1888L58.0021 54.9433C58.0016 55.0099 57.976 55.0736 57.9308 55.1211C57.8856 55.1685 57.8242 55.196 57.7598 55.1976L57.3453 55.2078C57.2011 55.2105 57.129 55.1388 57.129 54.9925L57.139 51.0455C57.1404 50.9608 57.1824 50.9157 57.2652 50.9102C57.8198 50.8733 59.2015 50.7954 59.4177 51.5069C59.7061 52.4555 59.5846 53.2032 59.0533 53.75C58.9959 53.8074 58.9846 53.8737 59.0193 53.9489L59.4858 54.9638C59.5606 55.1278 59.5092 55.2071 59.3316 55.2017L58.8991 55.1894C58.7283 55.1853 58.6161 55.0998 58.5627 54.9331C58.4733 54.6597 58.3732 54.3931 58.2624 54.1334C58.0928 53.7315 58.0074 53.75 58.0061 54.1888ZM58.6414 51.9876C58.6413 51.9507 58.6341 51.9142 58.6202 51.8801C58.6063 51.8461 58.586 51.8152 58.5604 51.7892C58.5348 51.7632 58.5045 51.7426 58.4712 51.7286C58.4379 51.7146 58.4022 51.7075 58.3661 51.7076L58.266 51.708C58.23 51.7081 58.1943 51.7155 58.1611 51.7298C58.1279 51.744 58.0977 51.7648 58.0723 51.791C58.0469 51.8171 58.0268 51.8482 58.0132 51.8823C57.9995 51.9164 57.9925 51.953 57.9927 51.9899L57.9955 52.81C57.9956 52.8469 58.0028 52.8834 58.0167 52.9174C58.0306 52.9515 58.0509 52.9824 58.0765 53.0084C58.102 53.0344 58.1324 53.0549 58.1657 53.0689C58.199 53.0829 58.2347 53.0901 58.2707 53.09L58.3709 53.0896C58.4069 53.0895 58.4425 53.0821 58.4758 53.0678C58.509 53.0536 58.5392 53.0328 58.5646 53.0066C58.5899 52.9804 58.61 52.9494 58.6237 52.9153C58.6374 52.8811 58.6444 52.8446 58.6442 52.8077L58.6414 51.9876Z" fill="#E30387"/>
<path d="M62.3013 51.7022C62.2105 51.6722 62.1131 51.6626 62.009 51.6735C61.8594 51.6886 61.7874 51.6189 61.7927 51.4644L61.8087 51.081C61.8127 50.9675 61.8701 50.9108 61.9809 50.9108L63.6369 50.9026C63.8184 50.9026 63.9092 50.9962 63.9092 51.1835L63.9112 51.4234C63.9113 51.4584 63.9043 51.493 63.8909 51.5252C63.8775 51.5573 63.8578 51.5864 63.8331 51.6106C63.8084 51.6347 63.7792 51.6535 63.7471 51.6657C63.7151 51.6779 63.681 51.6834 63.6469 51.6817C63.3879 51.6694 63.2578 51.72 63.2564 51.8335C63.2498 52.8135 63.2484 53.8859 63.2524 55.0505C63.2524 55.0893 63.2375 55.1265 63.2109 55.1542C63.1843 55.1818 63.1481 55.1976 63.1103 55.1981L62.6077 55.2084C62.5022 55.2097 62.4495 55.1571 62.4495 55.0505L62.4314 51.8847C62.4314 51.7918 62.3881 51.7309 62.3013 51.7022Z" fill="#E30387"/>
<path d="M67.4792 53.796C67.4871 53.9497 67.5507 54.0948 67.6576 54.2032C67.7646 54.3116 67.9073 54.3755 68.0579 54.3824L68.5225 54.4029C68.6079 54.407 68.6686 54.4487 68.7047 54.528C68.8035 54.7522 68.7848 54.9456 68.6486 55.1083C68.6046 55.1602 68.5492 55.1889 68.4824 55.1944C68.142 55.2203 67.7809 55.1903 67.3991 55.1042C66.5061 54.9012 66.5822 53.2609 66.6142 52.5494C66.6683 51.3069 67.2389 50.6077 68.5305 50.9829C68.5606 50.9915 68.5878 51.0085 68.6091 51.032C68.6303 51.0556 68.6447 51.0847 68.6506 51.1162C68.6827 51.2802 68.6833 51.4442 68.6526 51.6083C68.6366 51.6889 68.5885 51.7279 68.5084 51.7251C67.9998 51.7046 67.4972 51.6841 67.4732 52.3792C67.4559 52.8672 67.4579 53.3395 67.4792 53.796Z" fill="#E30387"/>
<path d="M81.1415 54.5844L81.1756 54.9801C81.1778 55.0051 81.1749 55.0303 81.1672 55.0541C81.1595 55.0779 81.1471 55.0998 81.1307 55.1184C81.1144 55.1371 81.0945 55.1521 81.0722 55.1625C81.0499 55.173 81.0258 55.1786 81.0014 55.179L79.5256 55.2139C79.5019 55.2144 79.4783 55.2101 79.4562 55.2012C79.4341 55.1923 79.414 55.1789 79.397 55.1619C79.38 55.1449 79.3665 55.1246 79.3573 55.1022C79.3481 55.0798 79.3434 55.0557 79.3434 55.0314L79.3554 51.0783C79.3554 51.0534 79.3603 51.0288 79.3699 51.006C79.3794 50.9832 79.3935 50.9626 79.4111 50.9455C79.4287 50.9284 79.4496 50.9152 79.4723 50.9066C79.4951 50.8981 79.5194 50.8944 79.5436 50.8958L80.0402 50.9225C80.0857 50.9251 80.1285 50.9455 80.1598 50.9794C80.1911 51.0133 80.2085 51.0583 80.2084 51.1049L80.2364 54.2133C80.2369 54.2603 80.2551 54.3053 80.2872 54.3389C80.3193 54.3725 80.3628 54.3922 80.4087 54.3937L80.9713 54.4183C81.0145 54.4202 81.0556 54.438 81.087 54.4686C81.1183 54.4991 81.1377 54.5403 81.1415 54.5844Z" fill="#E30387"/>
<path d="M82.0547 51.7327L81.7764 51.6753C81.7306 51.666 81.688 51.6449 81.6526 51.614C81.6171 51.5831 81.5901 51.5435 81.5741 51.499C81.5248 51.365 81.5174 51.214 81.5521 51.0458C81.5708 50.9611 81.6222 50.918 81.7063 50.9167L83.4724 50.8982C83.5123 50.8978 83.5511 50.9123 83.5816 50.939C83.6121 50.9657 83.6324 51.0029 83.6386 51.0438C83.6653 51.2228 83.6526 51.3937 83.6006 51.5564C83.5792 51.6206 83.5365 51.6589 83.4724 51.6712L83.168 51.7266C83.1304 51.7333 83.0963 51.7535 83.0717 51.7835C83.0472 51.8135 83.0338 51.8514 83.0339 51.8906L83.0279 54.999C83.0279 55.1288 82.9638 55.1951 82.8357 55.1978L82.4011 55.2081C82.277 55.2108 82.2142 55.1479 82.2129 55.0195L82.1889 51.8988C82.1889 51.8058 82.1442 51.7505 82.0547 51.7327Z" fill="#E30387"/>
<path d="M84.5056 50.9659C84.5056 50.9479 84.5125 50.9307 84.5249 50.918C84.5373 50.9053 84.5541 50.8982 84.5716 50.8982L85.6129 50.9002C85.793 50.9005 85.9713 50.9389 86.1377 51.0132C86.304 51.0875 86.4551 51.1963 86.5822 51.3334C86.7094 51.4705 86.8102 51.6332 86.8789 51.8122C86.9476 51.9911 86.9828 52.1829 86.9825 52.3765L86.9785 53.7339C86.9779 54.1248 86.8329 54.4996 86.5753 54.7756C86.3177 55.0517 85.9686 55.2065 85.6049 55.206L84.5636 55.204C84.5461 55.204 84.5293 55.1969 84.5169 55.1842C84.5045 55.1715 84.4976 55.1543 84.4976 55.1363L84.5056 50.9659ZM85.3786 51.7594L85.3746 54.3674C85.3746 54.3805 85.3797 54.393 85.3887 54.4022C85.3977 54.4115 85.4099 54.4166 85.4227 54.4166H85.5768C85.6545 54.4168 85.7314 54.3911 85.8033 54.3409C85.8751 54.2907 85.9404 54.2171 85.9954 54.1241C86.0505 54.0312 86.0942 53.9208 86.1241 53.7993C86.154 53.6778 86.1694 53.5476 86.1695 53.4161V52.7107C86.1698 52.4456 86.108 52.1914 85.9976 52.0038C85.8873 51.8162 85.7374 51.7106 85.5808 51.7101H85.4267C85.4139 51.7101 85.4017 51.7153 85.3927 51.7246C85.3837 51.7338 85.3786 51.7463 85.3786 51.7594Z" fill="#E30387"/>
<path d="M91.8982 55.3648C92.001 55.4469 92.0537 55.5583 92.0564 55.699C92.0577 55.7811 92.023 55.8405 91.9523 55.8774C91.6813 56.0169 91.4837 56.0654 91.3596 56.023C91.0499 55.9164 91.0439 55.7988 91.3416 55.6703C91.3976 55.6457 91.4517 55.6157 91.5038 55.5801C91.5362 55.5581 91.5612 55.5263 91.5753 55.4891C91.5894 55.452 91.5919 55.4112 91.5825 55.3723C91.5731 55.3334 91.5523 55.2983 91.5228 55.2717C91.4933 55.245 91.4566 55.2282 91.4177 55.2234L90.7449 55.1413C90.5873 55.1222 90.5032 55.032 90.4926 54.8707L90.4725 54.5959C90.4619 54.4387 90.5339 54.3629 90.6888 54.3684L91.3776 54.3991C91.451 54.4018 91.5138 54.3766 91.5658 54.3232C91.7914 54.0909 91.7954 53.8694 91.5778 53.6589C90.9151 53.0172 90.2863 52.7158 90.5586 51.5983C90.7449 50.8335 91.696 50.8171 92.2947 50.9832C92.3775 51.0064 92.4242 51.0625 92.4349 51.1513C92.4562 51.3235 92.4462 51.478 92.4048 51.6147C92.3808 51.694 92.3287 51.7323 92.2486 51.7295L91.7541 51.7131C91.6635 51.7103 91.5752 51.7422 91.5063 51.8025C91.4375 51.8627 91.393 51.9471 91.3816 52.0391C91.3629 52.1881 91.411 52.3159 91.5258 52.4225C92.1946 53.0438 92.8974 53.5298 92.4729 54.6206C92.3688 54.8857 92.1866 55.0689 91.9263 55.1701C91.9079 55.1772 91.8918 55.1892 91.8795 55.2048C91.8673 55.2205 91.8593 55.2392 91.8564 55.259C91.8536 55.2789 91.8559 55.2991 91.8633 55.3177C91.8706 55.3363 91.8827 55.3526 91.8982 55.3648Z" fill="#E30387"/>
<path d="M94.7997 51.8604L94.7937 54.9483C94.7937 55.1137 94.7123 55.1977 94.5494 55.2005L94.195 55.2046C94.0602 55.2059 93.9921 55.1376 93.9908 54.9995L93.9627 51.8891C93.9627 51.8153 93.9287 51.764 93.8606 51.7353C93.7632 51.693 93.6577 51.6697 93.5442 51.6656C93.4161 51.6615 93.35 51.5945 93.346 51.4647L93.336 51.1059C93.332 50.976 93.3934 50.9111 93.5202 50.9111L95.1842 50.907C95.3724 50.907 95.4659 51.0027 95.4645 51.194L95.4625 51.397C95.4599 51.5652 95.3771 51.6608 95.2142 51.6841L94.9119 51.7292C94.8371 51.7388 94.7997 51.7825 94.7997 51.8604Z" fill="#E30387"/>
<path d="M73.3984 53.9569C73.5079 53.3281 73.6007 52.7 73.6768 52.0726C73.6874 51.992 73.7328 51.9503 73.8129 51.9476L74.3155 51.9353C74.4383 51.9312 74.4871 51.9906 74.4617 52.1136L73.857 55.0539C73.8356 55.1564 73.7736 55.207 73.6708 55.2056L73.028 55.1912C72.9426 55.1885 72.8898 55.1441 72.8698 55.058L72.2411 52.1772C72.205 52.0159 72.2678 51.9353 72.4293 51.9353L72.8238 51.9312C72.9653 51.9312 73.0427 52.0029 73.056 52.1464C73.1121 52.7547 73.1962 53.3589 73.3083 53.959C73.339 54.123 73.3691 54.1223 73.3984 53.9569Z" fill="#E30387"/>
<path d="M76.0376 54.0582C76.0109 54.1471 76.0109 54.2366 76.0376 54.3268C76.0656 54.4239 76.1277 54.4867 76.2238 54.5154C76.5269 54.6029 76.8185 54.6193 77.0989 54.5647C77.1409 54.5564 77.1845 54.5646 77.2211 54.5877C77.2578 54.6108 77.2849 54.6472 77.2971 54.6897L77.3211 54.7799C77.3705 54.9617 77.3058 55.0759 77.1269 55.1224C76.338 55.3274 75.3908 55.1859 75.2867 54.1648C75.2186 53.5067 75.1305 52.2088 75.9575 52.0017C77.3231 51.6593 77.4753 52.8505 77.4293 53.8286C77.4253 53.901 77.3879 53.9379 77.3171 53.9393L76.1517 53.97C76.093 53.9714 76.055 54.0008 76.0376 54.0582ZM76.1457 53.3488L76.5142 53.3529C76.5321 53.3532 76.5498 53.3498 76.5664 53.3431C76.5831 53.3363 76.5982 53.3263 76.6111 53.3135C76.6239 53.3007 76.6341 53.2855 76.6412 53.2687C76.6483 53.2519 76.6521 53.2338 76.6523 53.2155V53.1786C76.6547 53.0105 76.6286 52.8488 76.5798 52.729C76.531 52.6091 76.4635 52.5407 76.392 52.5389H76.2919C76.2563 52.5379 76.2208 52.5536 76.1874 52.5848C76.154 52.6161 76.1234 52.6624 76.0974 52.7211C76.0713 52.7798 76.0504 52.8497 76.0356 52.9268C76.0209 53.0039 76.0127 53.0867 76.0116 53.1704V53.2073C76.0113 53.2256 76.0146 53.2438 76.0212 53.2608C76.0278 53.2778 76.0376 53.2934 76.05 53.3065C76.0625 53.3196 76.0774 53.3301 76.0938 53.3374C76.1102 53.3446 76.1279 53.3485 76.1457 53.3488Z" fill="#E30387"/>
<path d="M48.6756 54.3922L48.3552 54.3916C48.207 54.3913 48.0867 54.5141 48.0864 54.6659L48.086 54.9201C48.0858 55.0718 48.2057 55.1951 48.3539 55.1953L48.6742 55.1959C48.8224 55.1962 48.9428 55.0734 48.943 54.9216L48.9435 54.6674C48.9437 54.5157 48.8238 54.3924 48.6756 54.3922Z" fill="#E30387"/>
<path d="M61.046 54.3834L60.6937 54.3941C60.5567 54.3982 60.4489 54.5154 60.4529 54.6557L60.4617 54.9591C60.4658 55.0994 60.5802 55.2098 60.7173 55.2057L61.0695 55.195C61.2066 55.1908 61.3144 55.0736 61.3104 54.9333L61.3016 54.63C61.2975 54.4896 61.1831 54.3792 61.046 54.3834Z" fill="#E30387"/>
<path d="M70.2707 54.3938H69.8542C69.7458 54.3938 69.658 54.4838 69.658 54.5947V55.0007C69.658 55.1117 69.7458 55.2016 69.8542 55.2016H70.2707C70.3791 55.2016 70.4669 55.1117 70.4669 55.0007V54.5947C70.4669 54.4838 70.3791 54.3938 70.2707 54.3938Z" fill="#E30387"/>
<path d="M88.3876 54.3823L88.0672 54.3828C87.9223 54.3831 87.8051 54.5036 87.8053 54.6519L87.8058 54.939C87.8061 55.0873 87.9237 55.2073 88.0686 55.2071L88.389 55.2065C88.5338 55.2063 88.6511 55.0858 88.6508 54.9374L88.6503 54.6504C88.6501 54.502 88.5324 54.382 88.3876 54.3823Z" fill="#E30387"/>
</g>
<defs>
<clipPath id="clip0_972_7419">
<rect width="109.53" height="57.0004" fill="white" transform="translate(0.235352)"/>
</clipPath>
</defs>
</svg>
