<svg width="16.000000" height="16.000000" viewBox="0 0 16 16" fill="none" xmlns="http://www.w3.org/2000/svg" xmlns:xlink="http://www.w3.org/1999/xlink">
	<desc>
			Created with Pixso.
	</desc>
	<defs/>
	<path id="Path (Stroke)" d="M3.64 10.14C3.84 9.95 4.15 9.95 4.35 10.14L8 13.79L11.64 10.14C11.84 9.95 12.15 9.95 12.35 10.14C12.54 10.34 12.54 10.65 12.35 10.85L8.35 14.85C8.15 15.04 7.84 15.04 7.64 14.85L3.64 10.85C3.45 10.65 3.45 10.34 3.64 10.14Z" fill="#3E4347" fill-opacity="1.000000" fill-rule="evenodd"/>
	<path id="Path (Stroke)" d="M3.64 5.85C3.84 6.04 4.15 6.04 4.35 5.85L8 2.2L11.64 5.85C11.84 6.04 12.15 6.04 12.35 5.85C12.54 5.65 12.54 5.34 12.35 5.14L8.35 1.14C8.15 0.95 7.84 0.95 7.64 1.14L3.64 5.14C3.45 5.34 3.45 5.65 3.64 5.85Z" fill="#3E4347" fill-opacity="1.000000" fill-rule="evenodd"/>
	<path id="Vector (Stroke)" d="M1 8C1 7.72 1.22 7.5 1.5 7.5L14.5 7.5C14.77 7.5 15 7.72 15 8C15 8.27 14.77 8.5 14.5 8.5L1.5 8.5C1.22 8.5 1 8.27 1 8Z" fill="#3E4347" fill-opacity="1.000000" fill-rule="evenodd"/>
</svg>
