<svg width="15.000000" height="15.000000" viewBox="0 0 15 15" fill="none" xmlns="http://www.w3.org/2000/svg" xmlns:xlink="http://www.w3.org/1999/xlink">
	<desc>
			Created with Pixso.
	</desc>
	<defs/>
	<path id="Vector" d="M15 7.5C15 11.64 11.64 15 7.5 15C3.35 15 0 11.64 0 7.5C0 3.35 3.35 0 7.5 0C11.64 0 15 3.35 15 7.5ZM0.93 7.5C0.93 11.12 3.87 14.06 7.5 14.06C11.12 14.06 14.06 11.12 14.06 7.5C14.06 3.87 11.12 0.93 7.5 0.93C3.87 0.93 0.93 3.87 0.93 7.5ZM5.01 4.35C4.83 4.17 4.53 4.17 4.35 4.35C4.17 4.53 4.17 4.83 4.35 5.01L6.83 7.5L4.35 9.98C4.17 10.16 4.17 10.46 4.35 10.64C4.53 10.82 4.83 10.82 5.01 10.64L7.5 8.16L9.98 10.64C10.16 10.82 10.46 10.82 10.64 10.64C10.82 10.46 10.82 10.16 10.64 9.98L8.16 7.5L10.64 5.01C10.82 4.83 10.82 4.53 10.64 4.35C10.46 4.17 10.16 4.17 9.98 4.35L7.5 6.83L5.01 4.35Z" fill="#677179" fill-opacity="1.000000" fill-rule="evenodd"/>
</svg>
