<svg class="cross" xmlns="http://www.w3.org/2000/svg" width="15" height="15" viewBox="0 0 15 15" fill="none" style="display: inline;">
                                <path d="M7.5 14.0625C3.87563 14.0625 0.9375 11.1244 0.9375 7.5C0.9375 3.87563 3.87563 0.9375 7.5 0.9375C11.1244 0.9375 14.0625 3.87563 14.0625 7.5C14.0625 11.1244 11.1244 14.0625 7.5 14.0625ZM7.5 15C11.6421 15 15 11.6421 15 7.5C15 3.35786 11.6421 0 7.5 0C3.35786 0 0 3.35786 0 7.5C0 11.6421 3.35786 15 7.5 15Z" fill="#30363D"></path>
                                <path d="M4.35604 4.35604C4.5391 4.17299 4.8359 4.17299 5.01896 4.35604L7.5 6.83709L9.98104 4.35604C10.1641 4.17299 10.4609 4.17299 10.644 4.35604C10.827 4.5391 10.827 4.8359 10.644 5.01896L8.16291 7.5L10.644 9.98104C10.827 10.1641 10.827 10.4609 10.644 10.644C10.4609 10.827 10.1641 10.827 9.98104 10.644L7.5 8.16291L5.01896 10.644C4.8359 10.827 4.5391 10.827 4.35604 10.644C4.17299 10.4609 4.17299 10.1641 4.35604 9.98104L6.83709 7.5L4.35604 5.01896C4.17299 4.8359 4.17299 4.5391 4.35604 4.35604Z" fill="#30363D"></path>
                            </svg>