<svg width="15.000000" height="14.000000" viewBox="0 0 15 14" fill="none" xmlns="http://www.w3.org/2000/svg" xmlns:xlink="http://www.w3.org/1999/xlink">
	<desc>
			Created with Pixso.
	</desc>
	<defs/>
	<path id="Vector" d="M14.5 0.93C14.69 1.13 14.69 1.45 14.5 1.64L13.45 2.68L11.45 0.68L12.5 -0.36C12.69 -0.55 13.01 -0.55 13.2 -0.36L14.5 0.93ZM1.5 14C0.67 14 0 13.32 0 12.5L0 1.5C0 0.67 0.67 0 1.5 0L8 0C8.27 0 8.5 0.22 8.5 0.5C8.5 0.77 8.27 1 8 1L1.5 1C1.22 1 1 1.22 1 1.5L1 12.5C1 12.77 1.22 13 1.5 13L12.5 13C12.77 13 13 12.77 13 12.5L13 6.5C13 6.22 13.22 6 13.5 6C13.77 6 14 6.22 14 6.5L14 12.5C14 13.32 13.32 14 12.5 14L1.5 14ZM12.75 3.39L10.75 1.39L3.93 8.2C3.88 8.26 3.84 8.33 3.81 8.4L3.01 10.81C2.94 11.01 3.13 11.2 3.32 11.13L5.74 10.33C5.81 10.3 5.88 10.26 5.93 10.2L12.75 3.39Z" fill="#788189" fill-opacity="1.000000" fill-rule="evenodd"/>
</svg>
