<svg width="27.000000" height="27.000000" viewBox="0 0 27 27" fill="none" xmlns="http://www.w3.org/2000/svg" xmlns:xlink="http://www.w3.org/1999/xlink">
	<desc>
			Created with Pixso.
	</desc>
	<defs/>
	<rect id="Rectangle 14" x="0.250000" y="0.250000" rx="7.000000" width="26.500000" height="26.500000" stroke="#DEE2E4" stroke-opacity="1.000000" stroke-width="0.500000"/>
	<path id="Vector" d="M20.53 7.81C20.71 8 20.71 8.29 20.53 8.48L19.55 9.45L17.68 7.58L18.65 6.6C18.84 6.42 19.13 6.42 19.32 6.6L20.53 7.81ZM8.34 20.06C7.56 20.06 6.93 19.43 6.93 18.65L6.93 8.34C6.93 7.56 7.56 6.93 8.34 6.93L14.43 6.93C14.69 6.93 14.9 7.14 14.9 7.4C14.9 7.66 14.69 7.87 14.43 7.87L8.34 7.87C8.08 7.87 7.87 8.08 7.87 8.34L7.87 18.65C7.87 18.91 8.08 19.12 8.34 19.12L18.65 19.12C18.91 19.12 19.12 18.91 19.12 18.65L19.12 13.03C19.12 12.77 19.33 12.56 19.59 12.56C19.85 12.56 20.06 12.77 20.06 13.03L20.06 18.65C20.06 19.43 19.43 20.06 18.65 20.06L8.34 20.06ZM18.89 10.12L17.01 8.24L10.62 14.63C10.57 14.68 10.53 14.74 10.51 14.81L9.76 17.07C9.7 17.26 9.87 17.43 10.05 17.37L12.32 16.62C12.39 16.59 12.45 16.56 12.5 16.5L18.89 10.12Z" fill="#788189" fill-opacity="1.000000" fill-rule="evenodd"/>
</svg>
