<svg xmlns="http://www.w3.org/2000/svg" width="22" height="15" viewBox="0 0 22 15" fill="none"><g clip-path="url(#clip0_575_1282)"><path d="M0 0H22V15.0002H0V0Z" fill="white"></path><path d="M12.375 -0.000244141H9.625V6.09348H0V8.90598H9.625V14.9997H12.375V8.90598H22V6.09348H12.375V-0.000244141Z" fill="#D80027"></path><path d="M16.9198 10.1086L21.9993 12.9948V10.1086H16.9198ZM13.3906 10.1086L21.9993 14.9999V13.6168L15.825 10.1086H13.3906ZM19.7063 14.9999L13.3906 11.4112V14.9999H19.7063Z" fill="#0052B4"></path><path d="M13.3906 10.1086L21.9993 14.9999V13.6168L15.825 10.1086H13.3906Z" fill="white"></path><path d="M13.3906 10.1086L21.9993 14.9999V13.6168L15.825 10.1086H13.3906Z" fill="#D80027"></path><path d="M3.88184 10.1084L0 12.314V10.1084H3.88184ZM8.6087 10.7304V14.9997H1.09532L8.6087 10.7304Z" fill="#0052B4"></path><path d="M6.17431 10.1086L0 13.6168V14.9999L8.6087 10.1086H6.17431Z" fill="#D80027"></path><path d="M5.07955 4.89105L0 2.00489V4.89105H5.07955ZM8.6087 4.89105L0 -0.000244141V1.38289L6.17431 4.89105H8.6087ZM2.29307 -0.000244141L8.6087 3.58851V-0.000244141H2.29307Z" fill="#0052B4"></path><path d="M8.6087 4.89105L0 -0.000244141V1.38289L6.17431 4.89105H8.6087Z" fill="white"></path><path d="M8.6087 4.89105L0 -0.000244141V1.38289L6.17431 4.89105H8.6087Z" fill="#D80027"></path><path d="M18.1175 4.89134L21.9993 2.68572V4.89134H18.1175ZM13.3906 4.26934V0H20.904L13.3906 4.26934Z" fill="#0052B4"></path><path d="M15.825 4.89105L21.9993 1.38289V-0.000244141L13.3906 4.89105H15.825Z" fill="#D80027"></path></g><defs><clipPath id="clip0_575_1282"><rect width="22" height="15" rx="2" fill="white"></rect></clipPath></defs></svg>