<svg xmlns="http://www.w3.org/2000/svg" width="22" height="15" viewBox="0 0 22 15" fill="none"><g clip-path="url(#clip0_575_1320)"><path d="M0 0H22V15H0V0Z" fill="white"></path><path d="M0 0H22V4H0V0ZM0 11H22V15H0V11Z" fill="#D03433"></path><path d="M0 4H22V11H0V4Z" fill="#FBCA46"></path><path d="M7.62695 7H8.60473V7.5H7.62695V7Z" fill="white"></path><path d="M7.03979 8.5C7.03979 8.8 7.33313 9 7.62646 9C7.91979 9 8.21312 8.8 8.21312 8.5L8.3109 7H6.94201L7.03979 8.5ZM6.45312 7C6.45312 6.7 6.64868 6.5 6.84424 6.5H8.3109C8.60424 6.5 8.79979 6.7 8.79979 6.9V7L8.70201 8.5C8.60424 9.1 8.21313 9.5 7.62646 9.5C7.03979 9.5 6.64868 9.1 6.5509 8.5L6.45312 7Z" fill="#A41517"></path><path d="M6.64831 7.5H8.60386V8H8.11497L7.62608 9L7.1372 8H6.64831V7.5ZM5.18164 6H6.15942V9.5H5.18164V6ZM9.09275 6H10.0705V9.5H9.09275V6ZM6.64831 5.5C6.64831 5.2 6.84386 5 7.1372 5H8.11497C8.40831 5 8.60386 5.2 8.60386 5.5V5.7C8.60386 5.9 8.50608 6 8.31053 6H6.84386C6.74608 6 6.64831 5.9 6.64831 5.8V5.5Z" fill="#A41517"></path></g><defs><clipPath id="clip0_575_1320"><rect width="22" height="15" rx="2" fill="white"></rect></clipPath></defs></svg>