<svg width="65" height="64" viewBox="0 0 65 64" fill="none" xmlns="http://www.w3.org/2000/svg">
<rect x="0.950195" width="64" height="64" rx="32" fill="#DEE2E4"/>
<g clip-path="url(#clip0_5406_491)">
<path d="M51 32.5C51 22.2827 42.7173 14 32.5 14C22.2827 14 14 22.2827 14 32.5C14 41.7337 20.7651 49.3874 29.6094 50.7753V37.8477H24.9121V32.5H29.6094V28.4242C29.6094 23.7877 32.3714 21.2266 36.5971 21.2266C38.6205 21.2266 40.7383 21.5879 40.7383 21.5879V26.1406H38.4055C36.1075 26.1406 35.3906 27.5668 35.3906 29.0312V32.5H40.5215L39.7013 37.8477H35.3906V50.7753C44.2349 49.3874 51 41.7337 51 32.5Z" fill="#677179"/>
</g>
<defs>
<clipPath id="clip0_5406_491">
<rect width="37" height="37" fill="white" transform="translate(14 14)"/>
</clipPath>
</defs>
</svg>
