<svg xmlns="http://www.w3.org/2000/svg" width="21" height="21" viewBox="0 0 21 21" fill="none">
<g id="SVG" clip-path="url(#clip0_540_485)">
<path id="Vector" d="M14.3067 17.2909C11.113 17.2909 8.52344 15.1348 8.52344 12.476C8.52344 9.81499 11.1107 7.65894 14.3044 7.65894C17.4982 7.65894 20.0877 9.81499 20.0877 12.476C20.0877 13.9265 19.3084 15.234 18.0908 16.1149C18.0404 16.1507 17.9992 16.198 17.9708 16.253C17.9423 16.308 17.9273 16.3689 17.9271 16.4308C17.9293 16.4721 17.9362 16.5131 17.9478 16.5529L18.2084 17.5238C18.2245 17.5694 18.2361 17.6166 18.243 17.6644C18.2418 17.7154 18.221 17.764 18.185 17.8001C18.1489 17.8361 18.1003 17.857 18.0493 17.8581C18.0096 17.8564 17.9713 17.8436 17.9386 17.8213L16.6727 17.0903C16.5797 17.0349 16.4741 17.0047 16.366 17.0026C16.3082 17.003 16.2507 17.0115 16.1953 17.028C15.5813 17.2039 14.9455 17.2925 14.3067 17.2909ZM11.7763 11.4352C11.8598 11.5631 11.9793 11.6634 12.1197 11.7236C12.26 11.7838 12.4151 11.8012 12.5653 11.7735C12.7155 11.7459 12.8541 11.6745 12.9639 11.5683C13.0736 11.462 13.1496 11.3257 13.1821 11.1765C13.2146 11.0272 13.2023 10.8717 13.1467 10.7295C13.0911 10.5872 12.9947 10.4645 12.8695 10.3769C12.7444 10.2893 12.5962 10.2406 12.4436 10.237C12.3417 10.2367 12.2408 10.2565 12.1466 10.2953C12.0525 10.3342 11.9669 10.3912 11.895 10.4632C11.823 10.5353 11.7659 10.6207 11.7271 10.7149C11.6883 10.8091 11.6684 10.91 11.6687 11.0118C11.6674 11.1645 11.6928 11.3073 11.7763 11.4352ZM15.6487 11.4364C15.7327 11.5646 15.8528 11.665 15.9938 11.7249C16.1349 11.7848 16.2906 11.8015 16.4411 11.773C16.5916 11.7444 16.7304 11.6718 16.8397 11.5644C16.949 11.4571 17.024 11.3197 17.0552 11.1696C17.0865 11.0196 17.0725 10.8638 17.0152 10.7216C16.9578 10.5795 16.8596 10.4577 16.7329 10.3714C16.6063 10.2851 16.4569 10.2383 16.3036 10.237C16.0988 10.237 15.9023 10.3183 15.7574 10.4632C15.6125 10.6081 15.5312 10.8046 15.5312 11.0095C15.5298 11.1627 15.5647 11.3082 15.6487 11.4364Z" fill="white"/>
<path id="Vector_2" d="M0.912109 8.18003C0.912109 9.92332 1.84833 11.4937 3.31029 12.5614C3.37095 12.6039 3.42045 12.6606 3.45457 12.7264C3.48869 12.7923 3.50643 12.8653 3.50629 12.9395C3.5048 12.9897 3.49626 13.0393 3.48093 13.0871C3.42447 13.3005 3.35032 13.5769 3.28852 13.8073C3.22416 14.0473 3.17315 14.2374 3.16963 14.2539C3.14846 14.3078 3.13526 14.3645 3.13042 14.4222C3.13042 14.4834 3.15472 14.542 3.19797 14.5853C3.24121 14.6285 3.29986 14.6528 3.36102 14.6528C3.40785 14.6531 3.45394 14.6412 3.49476 14.6182L5.01438 13.7396C5.12599 13.6726 5.25319 13.6361 5.38333 13.6336C5.45278 13.6344 5.5218 13.6444 5.58856 13.6636C6.22314 13.8458 6.87703 13.9506 7.53599 13.9758C7.39759 13.5018 7.32335 13.0003 7.32335 12.476C7.32335 8.95777 10.661 6.46054 14.3027 6.46054C14.3626 6.46054 14.4225 6.46122 14.4822 6.46256C13.5995 4.10975 10.9683 2.39673 7.85761 2.39673C4.02283 2.39673 0.912109 4.9863 0.912109 8.18003ZM6.4625 6.31683C6.4625 6.49926 6.4084 6.67759 6.30705 6.82927C6.2057 6.98096 6.06165 7.09919 5.8931 7.169C5.72456 7.23881 5.5391 7.25708 5.36017 7.22149C5.18125 7.1859 5.01691 7.09804 4.8879 6.96905C4.75891 6.84005 4.67106 6.6757 4.63547 6.49678C4.59988 6.31786 4.61814 6.13239 4.68795 5.96385C4.75778 5.79531 4.876 5.65125 5.02768 5.54991C5.17936 5.44855 5.3577 5.39445 5.54013 5.39445C5.78476 5.39445 6.01936 5.49164 6.19234 5.66461C6.36533 5.83759 6.4625 6.0722 6.4625 6.31683ZM11.1067 6.31683C11.1067 6.49926 11.0526 6.67759 10.9512 6.82927C10.8499 6.98096 10.7058 7.09919 10.5372 7.169C10.3687 7.23881 10.1832 7.25708 10.0044 7.22149C9.82542 7.1859 9.66107 7.09804 9.53206 6.96905C9.40305 6.84005 9.31521 6.6757 9.2796 6.49678C9.24409 6.31786 9.26235 6.13239 9.33211 5.96385C9.40195 5.79531 9.52019 5.65125 9.67185 5.54991C9.82351 5.44855 10.0018 5.39445 10.1842 5.39445C10.4289 5.39445 10.6635 5.49164 10.8365 5.66461C11.0095 5.83759 11.1067 6.0722 11.1067 6.31683Z" fill="white"/>
<g id="Mask group">
<mask id="mask0_540_485" style="mask-type:luminance" maskUnits="userSpaceOnUse" x="0" y="1" width="21" height="18">
<g id="Group">
<path id="Vector_3" d="M21 1.48364H0V18.8315H21V1.48364Z" fill="white"/>
<path id="Vector_4" d="M14.3067 17.2907C11.113 17.2907 8.52344 15.1347 8.52344 12.4759C8.52344 9.81487 11.1107 7.65881 14.3044 7.65881C17.4982 7.65881 20.0877 9.81487 20.0877 12.4759C20.0877 13.9264 19.3084 15.2338 18.0908 16.1147C18.0404 16.1505 17.9992 16.1979 17.9708 16.2529C17.9423 16.3079 17.9273 16.3688 17.9271 16.4307C17.9293 16.472 17.9362 16.513 17.9478 16.5528L18.2084 17.5237C18.2245 17.5693 18.2361 17.6164 18.243 17.6643C18.2418 17.7153 18.221 17.7639 18.185 17.8C18.1489 17.836 18.1003 17.8568 18.0493 17.858C18.0096 17.8563 17.9713 17.8435 17.9386 17.8211L16.6727 17.0902C16.5797 17.0347 16.4741 17.0046 16.366 17.0025C16.3082 17.0029 16.2507 17.0114 16.1953 17.0279C15.5813 17.2038 14.9455 17.2924 14.3067 17.2907ZM11.7763 11.435C11.8598 11.563 11.9793 11.6633 12.1197 11.7235C12.26 11.7837 12.4151 11.8011 12.5653 11.7734C12.7155 11.7457 12.8541 11.6743 12.9639 11.5682C13.0736 11.4619 13.1496 11.3256 13.1821 11.1764C13.2146 11.0271 13.2023 10.8716 13.1467 10.7293C13.0911 10.5871 12.9947 10.4644 12.8695 10.3768C12.7444 10.2892 12.5962 10.2405 12.4436 10.2368C12.3417 10.2365 12.2408 10.2564 12.1466 10.2952C12.0525 10.334 11.9669 10.3911 11.895 10.4631C11.823 10.5351 11.7659 10.6206 11.7271 10.7147C11.6883 10.809 11.6684 10.9099 11.6687 11.0117C11.6674 11.1644 11.6928 11.3072 11.7763 11.435ZM15.6487 11.4363C15.7327 11.5645 15.8528 11.6648 15.9938 11.7247C16.1349 11.7846 16.2906 11.8013 16.4411 11.7729C16.5916 11.7443 16.7304 11.6717 16.8397 11.5643C16.949 11.4569 17.024 11.3195 17.0552 11.1695C17.0865 11.0195 17.0725 10.8637 17.0152 10.7215C16.9578 10.5794 16.8596 10.4575 16.7329 10.3713C16.6063 10.285 16.4569 10.2382 16.3036 10.2368C16.0988 10.2368 15.9023 10.3182 15.7574 10.4631C15.6125 10.608 15.5312 10.8045 15.5312 11.0094C15.5298 11.1626 15.5647 11.3081 15.6487 11.4363Z" fill="#37393F"/>
<path id="Vector_5" d="M0.912109 8.18003C0.912109 9.92332 1.84833 11.4937 3.31029 12.5614C3.37095 12.6039 3.42045 12.6606 3.45457 12.7264C3.48869 12.7923 3.50643 12.8653 3.50629 12.9395C3.5048 12.9897 3.49626 13.0393 3.48093 13.0871C3.42447 13.3005 3.35032 13.5769 3.28852 13.8073C3.22416 14.0473 3.17315 14.2374 3.16963 14.2539C3.14846 14.3078 3.13526 14.3645 3.13042 14.4222C3.13042 14.4834 3.15472 14.542 3.19797 14.5853C3.24121 14.6285 3.29986 14.6528 3.36102 14.6528C3.40785 14.6531 3.45394 14.6412 3.49476 14.6182L5.01438 13.7396C5.12599 13.6726 5.25319 13.6361 5.38333 13.6336C5.45278 13.6344 5.5218 13.6444 5.58856 13.6636C6.22314 13.8458 6.87703 13.9506 7.53599 13.9758C7.39759 13.5018 7.32335 13.0003 7.32335 12.476C7.32335 8.95777 10.661 6.46054 14.3027 6.46054C14.3626 6.46054 14.4225 6.46122 14.4822 6.46256C13.5995 4.10975 10.9683 2.39673 7.85761 2.39673C4.02283 2.39673 0.912109 4.9863 0.912109 8.18003ZM6.4625 6.31683C6.4625 6.49926 6.4084 6.67759 6.30705 6.82927C6.2057 6.98096 6.06165 7.09919 5.8931 7.169C5.72456 7.23881 5.5391 7.25708 5.36017 7.22149C5.18125 7.1859 5.01691 7.09804 4.8879 6.96905C4.75891 6.84005 4.67106 6.6757 4.63547 6.49678C4.59988 6.31786 4.61814 6.13239 4.68795 5.96385C4.75778 5.79531 4.876 5.65125 5.02768 5.54991C5.17936 5.44855 5.3577 5.39445 5.54013 5.39445C5.78476 5.39445 6.01936 5.49164 6.19234 5.66461C6.36533 5.83759 6.4625 6.0722 6.4625 6.31683ZM11.1067 6.31683C11.1067 6.49926 11.0526 6.67759 10.9512 6.82927C10.8499 6.98096 10.7058 7.09919 10.5372 7.169C10.3687 7.23881 10.1832 7.25708 10.0044 7.22149C9.82542 7.1859 9.66107 7.09804 9.53206 6.96905C9.40305 6.84005 9.31521 6.6757 9.2796 6.49678C9.24409 6.31786 9.26235 6.13239 9.33211 5.96385C9.40195 5.79531 9.52019 5.65125 9.67185 5.54991C9.82351 5.44855 10.0018 5.39445 10.1842 5.39445C10.4289 5.39445 10.6635 5.49164 10.8365 5.66461C11.0095 5.83759 11.1067 6.0722 11.1067 6.31683Z" fill="#37393F"/>
</g>
</mask>
<g mask="url(#mask0_540_485)">
<path id="Vector_6" d="M14.3059 17.2908L14.3083 16.3778H14.3059V17.2908ZM18.09 16.1148L18.6195 16.8587L18.6252 16.8545L18.09 16.1148ZM17.9263 16.4307L17.0133 16.427L17.0132 16.4533L17.0146 16.4796L17.9263 16.4307ZM17.9471 16.5529L18.8289 16.3162L18.8264 16.3071L18.8239 16.298L17.9471 16.5529ZM18.2076 17.5237L17.3258 17.7604L17.335 17.7944L17.3466 17.8277L18.2076 17.5237ZM18.2422 17.6643L19.155 17.6853L19.1567 17.6095L19.146 17.5344L18.2422 17.6643ZM18.0485 17.8581L18.0091 18.7702L18.0393 18.7716L18.0695 18.7708L18.0485 17.8581ZM17.9378 17.8212L18.4536 17.0677L18.4247 17.0479L18.3944 17.0305L17.9378 17.8212ZM16.6719 17.0902L16.2045 17.8746L16.2153 17.8809L16.6719 17.0902ZM16.3652 17.0026L16.3827 16.0897L16.3712 16.0894L16.3597 16.0895L16.3652 17.0026ZM16.1946 17.0279L16.4461 17.9056L16.455 17.903L16.1946 17.0279ZM11.668 11.0117L12.581 11.0196V11.009L11.668 11.0117ZM12.4428 10.2369L12.4645 9.32411L12.455 9.32388L12.4455 9.32386L12.4428 10.2369ZM15.5304 11.0094L16.4435 11.0175V11.0094H15.5304ZM16.3028 10.2369L16.3111 9.32385H16.3028V10.2369ZM3.31123 12.5613L2.77275 13.2986L2.77944 13.3035L2.78622 13.3083L3.31123 12.5613ZM3.50723 12.9394L4.41987 12.9666L4.42024 12.9539L4.42027 12.9412L3.50723 12.9394ZM3.48186 13.0871L2.61252 12.8079L2.60526 12.8306L2.59919 12.8535L3.48186 13.0871ZM3.17056 14.2538L4.02049 14.5875L4.04772 14.5181L4.06334 14.4451L3.17056 14.2538ZM3.13136 14.4222L2.22151 14.346L2.21831 14.384V14.4222H3.13136ZM3.36195 14.6527L3.36726 13.7397H3.36195V14.6527ZM3.4957 14.6181L3.94301 15.4142L3.95269 15.4087L3.4957 14.6181ZM5.01531 13.7396L5.47231 14.53L5.4788 14.5263L5.48522 14.5225L5.01531 13.7396ZM5.38426 13.6335L5.39411 12.7206L5.38038 12.7204L5.36665 12.7207L5.38426 13.6335ZM7.53693 13.9757L7.50199 14.8881L8.76867 14.9366L8.41338 13.7198L7.53693 13.9757ZM14.4832 6.46251L14.4626 7.37533L15.8123 7.40573L15.338 6.14177L14.4832 6.46251ZM7.60961 12.476C7.60961 15.7885 10.7718 18.2038 14.3059 18.2038V16.3778C11.4527 16.3778 9.43567 14.4809 9.43567 12.476H7.60961ZM14.3036 6.74582C10.7686 6.74582 7.60961 9.16182 7.60961 12.476H9.43567C9.43567 10.468 11.4512 8.57191 14.3036 8.57191V6.74582ZM21 12.476C21 9.1614 17.8381 6.74582 14.3036 6.74582V8.57191C17.1566 8.57191 19.1739 10.4684 19.1739 12.476H21ZM18.6252 16.8545C20.0349 15.8346 21 14.2709 21 12.476H19.1739C19.1739 13.5819 18.5802 14.6332 17.5548 15.3751L18.6252 16.8545ZM18.7807 16.673C18.7424 16.7468 18.6873 16.8104 18.6195 16.8587L17.5606 15.3709C17.392 15.4908 17.2545 15.6491 17.1594 15.8329L18.7807 16.673ZM18.8394 16.4344C18.839 16.5175 18.8189 16.5993 18.7807 16.673L17.1594 15.8329C17.0641 16.0165 17.0141 16.2202 17.0133 16.427L18.8394 16.4344ZM18.8239 16.298C18.8317 16.3253 18.8365 16.3534 18.838 16.3818L17.0146 16.4796C17.0205 16.5907 17.0392 16.7008 17.0703 16.8077L18.8239 16.298ZM19.0895 17.287L18.8289 16.3162L17.0652 16.7895L17.3258 17.7604L19.0895 17.287ZM19.146 17.5344C19.1305 17.4272 19.1046 17.3218 19.0685 17.2197L17.3466 17.8277C17.3428 17.8169 17.3401 17.8057 17.3384 17.7943L19.146 17.5344ZM18.8298 18.4456C19.0319 18.2435 19.1484 17.9712 19.155 17.6853L17.3294 17.6433C17.3337 17.4595 17.4085 17.2844 17.5386 17.1544L18.8298 18.4456ZM18.0695 18.7708C18.3554 18.7643 18.6276 18.6478 18.8298 18.4456L17.5386 17.1544C17.6686 17.0244 17.8437 16.9495 18.0275 16.9452L18.0695 18.7708ZM17.4221 18.5745C17.5956 18.6933 17.799 18.7612 18.0091 18.7702L18.0879 16.9459C18.2188 16.9515 18.3455 16.9938 18.4536 17.0677L17.4221 18.5745ZM16.2153 17.8809L17.4812 18.6119L18.3944 17.0305L17.1284 16.2995L16.2153 17.8809ZM16.3476 17.9154C16.2972 17.9144 16.2479 17.9004 16.2045 17.8746L17.1392 16.3058C16.9101 16.1693 16.6494 16.0948 16.3827 16.0897L16.3476 17.9154ZM16.455 17.903C16.4276 17.9112 16.3992 17.9154 16.3706 17.9156L16.3597 16.0895C16.2156 16.0903 16.0723 16.1117 15.9342 16.1528L16.455 17.903ZM14.3036 18.2038C15.0282 18.2057 15.7495 18.1052 16.4461 17.9056L15.9429 16.1502C15.4114 16.3025 14.8612 16.3791 14.3083 16.3778L14.3036 18.2038ZM10.7549 11.0038C10.7527 11.2614 10.7948 11.6032 11.011 11.9343L12.54 10.9359C12.5621 10.9697 12.5737 11.0023 12.5788 11.0239C12.5831 11.0424 12.5808 11.0444 12.581 11.0196L10.7549 11.0038ZM10.8822 10.3667C10.7976 10.5721 10.7543 10.7922 10.7549 11.0144L12.581 11.009C12.581 11.0275 12.5774 11.0459 12.5703 11.0629L10.8822 10.3667ZM11.2486 9.81753C11.0915 9.97465 10.9669 10.1613 10.8822 10.3667L12.5703 11.0629C12.5633 11.0801 12.5529 11.0957 12.5398 11.1088L11.2486 9.81753ZM11.7977 9.45119C11.5924 9.53591 11.4057 9.66041 11.2486 9.81753L12.5398 11.1088C12.5267 11.1219 12.5112 11.1322 12.494 11.1394L11.7977 9.45119ZM12.4455 9.32386C12.2233 9.32319 12.0031 9.36647 11.7977 9.45119L12.494 11.1394C12.4769 11.1464 12.4586 11.15 12.44 11.1499L12.4455 9.32386ZM13.3925 9.629C13.12 9.43812 12.7971 9.33205 12.4645 9.32411L12.421 11.1497C12.3937 11.149 12.3673 11.1404 12.345 11.1247L13.3925 9.629ZM13.9962 10.397C13.8752 10.0871 13.6651 9.81989 13.3925 9.629L12.345 11.1247C12.3226 11.109 12.3055 11.0872 12.2955 11.0618L13.9962 10.397ZM14.0735 11.3707C14.1442 11.0457 14.1174 10.7068 13.9962 10.397L12.2955 11.0618C12.2855 11.0365 12.2834 11.0087 12.2892 10.982L14.0735 11.3707ZM13.5982 12.2242C13.8373 11.9928 14.0026 11.6959 14.0735 11.3707L12.2892 10.982C12.295 10.9554 12.3086 10.9311 12.3281 10.9122L13.5982 12.2242ZM12.7297 12.6714C13.057 12.6112 13.3591 12.4556 13.5982 12.2242L12.3281 10.9122C12.3477 10.8932 12.3725 10.8804 12.3992 10.8755L12.7297 12.6714ZM11.759 12.5627C12.0648 12.6938 12.4025 12.7317 12.7297 12.6714L12.3992 10.8755C12.4261 10.8706 12.4537 10.8737 12.4787 10.8844L11.759 12.5627ZM11.011 11.9343C11.193 12.2129 11.4532 12.4315 11.759 12.5627L12.4787 10.8844C12.5038 10.8951 12.5251 10.9131 12.54 10.9359L11.011 11.9343ZM14.6174 11.0013C14.6147 11.3013 14.6843 11.6317 14.8843 11.9368L16.4116 10.9359C16.4257 10.9574 16.4347 10.9794 16.4394 10.9975C16.444 11.0144 16.4435 11.0224 16.4435 11.0175L14.6174 11.0013ZM15.1111 9.81753C14.795 10.1336 14.6174 10.5623 14.6174 11.0094H16.4435C16.4435 11.0467 16.4287 11.0824 16.4023 11.1088L15.1111 9.81753ZM16.3028 9.32385C15.8558 9.32385 15.4271 9.50143 15.1111 9.81753L16.4023 11.1088C16.3759 11.1352 16.3402 11.1499 16.3028 11.1499V9.32385ZM17.2462 9.61673C16.9703 9.42879 16.6449 9.32683 16.3111 9.32385L16.2947 11.1499C16.2673 11.1497 16.2407 11.1413 16.2181 11.1259L17.2462 9.61673ZM17.861 10.3797C17.7361 10.0702 17.522 9.80466 17.2462 9.61673L16.2181 11.1259C16.1955 11.1105 16.178 11.0888 16.1677 11.0634L17.861 10.3797ZM17.9483 11.3557C18.0164 11.029 17.986 10.6893 17.861 10.3797L16.1677 11.0634C16.1575 11.0381 16.155 11.0102 16.1606 10.9835L17.9483 11.3557ZM17.4788 12.2157C17.7169 11.9818 17.8803 11.6825 17.9483 11.3557L16.1606 10.9835C16.1662 10.9567 16.1796 10.9322 16.199 10.913L17.4788 12.2157ZM16.6105 12.67C16.9384 12.6077 17.2405 12.4497 17.4788 12.2157L16.199 10.913C16.2186 10.8938 16.2433 10.881 16.2702 10.8758L16.6105 12.67ZM15.6361 12.5652C15.9434 12.6957 16.2825 12.7322 16.6105 12.67L16.2702 10.8758C16.297 10.8707 16.3249 10.8737 16.35 10.8844L15.6361 12.5652ZM14.8843 11.9368C15.0672 12.2159 15.3289 12.4346 15.6361 12.5652L16.35 10.8844C16.3752 10.8951 16.3966 10.913 16.4116 10.9359L14.8843 11.9368ZM3.8497 11.824C2.57651 10.8941 1.82609 9.57851 1.82609 8.17999H0C0 10.2681 1.122 12.0931 2.77275 13.2986L3.8497 11.824ZM4.26613 12.3062C4.16446 12.1101 4.01699 11.9413 3.83623 11.8143L2.78622 13.3083C2.72679 13.2666 2.6783 13.211 2.64487 13.1465L4.26613 12.3062ZM4.42027 12.9412C4.42068 12.7202 4.36781 12.5024 4.26613 12.3062L2.64487 13.1465C2.61143 13.082 2.59406 13.0105 2.59418 12.9378L4.42027 12.9412ZM4.35121 13.3661C4.39271 13.2368 4.41583 13.1024 4.41987 12.9666L2.59459 12.9122C2.59565 12.8768 2.60168 12.8417 2.61252 12.8079L4.35121 13.3661ZM4.17133 14.0438C4.233 13.8139 4.30759 13.5358 4.36454 13.3205L2.59919 12.8535C2.54321 13.0651 2.46951 13.3399 2.4076 13.5707L4.17133 14.0438ZM4.06334 14.4451C4.05914 14.4647 4.05512 14.4796 4.05846 14.4666C4.05964 14.462 4.06163 14.4543 4.0646 14.4431C4.07045 14.4208 4.07882 14.3893 4.08938 14.3498C4.11042 14.2709 4.13909 14.164 4.17133 14.0438L2.4076 13.5707C2.35046 13.7837 2.2878 14.0158 2.27779 14.0626L4.06334 14.4451ZM4.04121 14.4984C4.03866 14.5289 4.03168 14.5589 4.02049 14.5875L2.32064 13.9203C2.26712 14.0566 2.23373 14.2 2.22151 14.346L4.04121 14.4984ZM3.84452 13.9397C3.9725 14.0676 4.0444 14.2411 4.0444 14.4222H2.21831C2.21831 14.7255 2.33882 15.0164 2.55327 15.2309L3.84452 13.9397ZM3.36195 13.7397C3.54296 13.7397 3.71655 13.8117 3.84452 13.9397L2.55327 15.2309C2.76774 15.4454 3.05863 15.5658 3.36195 15.5658V13.7397ZM3.04841 13.8222C3.14573 13.7675 3.25561 13.7391 3.36726 13.7397L3.35665 15.5658C3.56196 15.567 3.76405 15.5148 3.94301 15.4142L3.04841 13.8222ZM4.55832 12.9492L3.0387 13.8277L3.95269 15.4087L5.47231 14.53L4.55832 12.9492ZM5.36665 12.7207C5.07698 12.7262 4.79383 12.8077 4.54541 12.9568L5.48522 14.5225C5.46001 14.5376 5.43128 14.5458 5.40188 14.5464L5.36665 12.7207ZM5.84152 12.7859C5.6961 12.7442 5.5454 12.7222 5.39411 12.7206L5.37442 14.5466C5.36202 14.5464 5.3497 14.5446 5.33779 14.5412L5.84152 12.7859ZM7.57187 13.0634C6.98637 13.0409 6.40537 12.9479 5.84152 12.7859L5.33779 14.5412C6.0431 14.7438 6.76957 14.8601 7.50199 14.8881L7.57187 13.0634ZM8.41338 13.7198C8.29914 13.3286 8.23733 12.9132 8.23733 12.476H6.41125C6.41125 13.0872 6.49793 13.675 6.66049 14.2316L8.41338 13.7198ZM8.23733 12.476C8.23733 9.61836 10.9942 7.37354 14.3036 7.37354V5.54745C10.3298 5.54745 6.41125 8.29708 6.41125 12.476H8.23733ZM14.3036 7.37354C14.3567 7.37354 14.4097 7.37413 14.4626 7.37533L14.5037 5.54971C14.4371 5.5482 14.3705 5.54745 14.3036 5.54745V7.37354ZM7.85855 3.30973C10.6619 3.30973 12.9032 4.8507 13.6284 6.78327L15.338 6.14177C14.2975 3.36872 11.2765 1.48364 7.85855 1.48364V3.30973ZM1.82609 8.17999C1.82609 5.63999 4.36427 3.30973 7.85855 3.30973V1.48364C3.68325 1.48364 0 4.33253 0 8.17999H1.82609ZM7.06716 7.3365C7.26883 7.03466 7.37648 6.6798 7.37648 6.31679H5.55039C5.55039 6.31864 5.54984 6.32044 5.54882 6.32197L7.06716 7.3365ZM6.24345 8.0125C6.57883 7.87358 6.86548 7.63833 7.06716 7.3365L5.54882 6.32197C5.54779 6.3235 5.54634 6.32471 5.54463 6.32541L6.24345 8.0125ZM5.18298 8.11694C5.53902 8.18776 5.90807 8.15142 6.24345 8.0125L5.54463 6.32541C5.54292 6.32611 5.54105 6.32631 5.53923 6.32594L5.18298 8.11694ZM4.24322 7.61463C4.49991 7.87131 4.82695 8.04612 5.18298 8.11694L5.53923 6.32594C5.53743 6.32559 5.53576 6.32469 5.53446 6.32338L4.24322 7.61463ZM3.7409 6.67486C3.81173 7.0309 3.98653 7.35794 4.24322 7.61463L5.53446 6.32338C5.53315 6.32208 5.53227 6.32042 5.5319 6.31861L3.7409 6.67486ZM3.84535 5.61441C3.70644 5.94979 3.67009 6.31883 3.7409 6.67486L5.5319 6.31861C5.53155 6.3168 5.53173 6.31492 5.53243 6.31321L3.84535 5.61441ZM4.52136 4.7907C4.21952 4.99237 3.98427 5.27903 3.84535 5.61441L5.53243 6.31321C5.53314 6.31152 5.53434 6.31005 5.53587 6.30903L4.52136 4.7907ZM5.54106 4.48137C5.17804 4.48137 4.82319 4.58901 4.52136 4.7907L5.53587 6.30903C5.53741 6.308 5.53922 6.30745 5.54106 6.30745V4.48137ZM6.8389 5.01895C6.49469 4.67474 6.02784 4.48137 5.54106 4.48137V6.30745C5.54353 6.30745 5.54591 6.30844 5.54766 6.31019L6.8389 5.01895ZM7.37648 6.31679C7.37648 5.83 7.1831 5.36316 6.8389 5.01895L5.54766 6.31019C5.54941 6.31194 5.55039 6.31431 5.55039 6.31679H7.37648ZM11.7113 7.33649C11.913 7.03466 12.0207 6.6798 12.0207 6.31679H10.1946C10.1946 6.31863 10.194 6.32044 10.1929 6.32198L11.7113 7.33649ZM10.8876 8.0125C11.2229 7.87358 11.5096 7.63832 11.7113 7.33649L10.1929 6.32198C10.1919 6.32351 10.1905 6.32471 10.1888 6.32541L10.8876 8.0125ZM9.82718 8.11694C10.1832 8.18776 10.5522 8.15142 10.8876 8.0125L10.1888 6.32541C10.1871 6.32611 10.1852 6.32631 10.1834 6.32594L9.82718 8.11694ZM8.88739 7.61463C9.14404 7.87131 9.47109 8.04612 9.82718 8.11694L10.1834 6.32594C10.1816 6.32559 10.1799 6.32469 10.1786 6.32338L8.88739 7.61463ZM8.38507 6.67486C8.4559 7.03089 8.6307 7.35794 8.88739 7.61463L10.1786 6.32338C10.1773 6.32208 10.1764 6.32042 10.1761 6.31861L8.38507 6.67486ZM8.48952 5.61441C8.35061 5.94979 8.31426 6.31883 8.38507 6.67486L10.1761 6.31861C10.1757 6.3168 10.1759 6.31492 10.1766 6.31321L8.48952 5.61441ZM9.1655 4.7907C8.86369 4.99237 8.62844 5.27902 8.48952 5.61441L10.1766 6.31321C10.1773 6.31152 10.1785 6.31005 10.1801 6.30903L9.1655 4.7907ZM10.1852 4.48137C9.82225 4.48137 9.46735 4.58901 9.1655 4.7907L10.1801 6.30903C10.1816 6.308 10.1834 6.30745 10.1852 6.30745V4.48137ZM11.4831 5.01895C11.1389 4.67474 10.672 4.48137 10.1852 4.48137V6.30745C10.1877 6.30745 10.1901 6.30844 10.1918 6.31019L11.4831 5.01895ZM12.0207 6.31679C12.0207 5.83 11.8273 5.36316 11.4831 5.01895L10.1918 6.31019C10.1936 6.31194 10.1946 6.31432 10.1946 6.31679H12.0207Z" fill="#37393F"/>
</g>
</g>
</g>
<defs>
<clipPath id="clip0_540_485">
<rect width="21" height="21" fill="white"/>
</clipPath>
</defs>
</svg>