<svg width="199" height="159" viewBox="0 0 199 159" fill="none" xmlns="http://www.w3.org/2000/svg">
<g clip-path="url(#clip0_97_225)">
<mask id="mask0_97_225" style="mask-type:luminance" maskUnits="userSpaceOnUse" x="0" y="0" width="199" height="159">
<path d="M199 0H0V159H199V0Z" fill="white"/>
</mask>
<g mask="url(#mask0_97_225)">
<path d="M93.3608 2.60181C50.6916 2.60181 16.1008 37.5092 16.1008 80.5709C16.1008 123.633 50.6908 158.54 93.3608 158.54C136.031 158.54 170.621 123.633 170.621 80.5709C170.621 37.5092 136.03 2.60181 93.3608 2.60181ZM93.4575 145.403C57.9241 145.403 29.1184 116.333 29.1184 80.4735C29.1184 44.6138 57.9241 15.5434 93.4575 15.5434C128.991 15.5434 157.797 44.6138 157.797 80.4735C157.797 116.333 128.991 145.403 93.4575 145.403Z" fill="#4A4A4A"/>
<path d="M110.912 42.1382C113.757 39.3652 112.073 35.1513 106.342 38.9534C85.9748 52.5857 51.8344 75.8211 46.8144 78.4899C40.0914 82.0647 33.7467 81.5714 24.8319 78.8195C13.2866 76.3339 5.92575 72.7341 5.24342 72.4495C3.87659 71.8819 -4.9186 66.2458 10.6847 59.6003C25.8047 53.1601 74.7584 31.6809 97.4177 22.37C106.12 18.6448 133.874 7.76349 133.874 7.76349C133.874 7.76349 150.033 1.59473 148.537 15.3402C148.05 20.5448 145.709 38.8062 142.689 58.5021C138.079 86.6367 133.277 113.586 132.786 116.599C132.45 118.661 130.324 129.017 123.427 129.338C116.355 129.669 108.662 123.456 106.015 121.65C103.42 119.88 71.0148 97.9758 68.5794 96.0618C67.1757 94.958 65.0631 92.5328 65.0969 90.1311C65.083 86.6892 68.2475 83.2937 70.103 81.565C71.9584 79.8363 107.448 45.5153 110.912 42.1382Z" fill="#DEE2E4"/>
<path d="M196.764 9.6965C195.74 8.65867 194.321 8.06345 192.869 8.06345H168.384C166.935 8.06345 165.568 8.62683 164.535 9.65039C163.502 10.6728 162.917 12.0379 162.889 13.4964C162.86 14.9703 163.417 16.3716 164.458 17.4435C165.515 18.5318 166.982 19.1556 168.484 19.1556H180.522L160.226 40.9215C156.93 35.2975 152.942 30.1127 148.303 25.4309C141.191 18.2529 132.905 12.6156 123.678 8.67735C114.123 4.59848 103.976 2.53052 93.5186 2.53052C83.062 2.53052 72.915 4.59848 63.359 8.67735C54.1329 12.6156 45.847 18.2529 38.7343 25.4309C31.6215 32.609 26.0356 40.9708 22.1331 50.2818C18.0914 59.9256 16.0422 70.1655 16.0422 80.7184C16.0422 91.27 18.0914 101.511 22.1331 111.155C22.7077 112.526 23.3193 113.875 23.9657 115.203L32.6674 108.616L68.921 83.008C72.2141 80.683 76.5105 80.6226 79.8656 82.8553L100.083 96.3079C104.168 99.026 109.094 100.2 113.955 99.6147C118.808 99.0292 123.318 96.7205 126.651 93.114L187.308 28.0645L187.265 37.6367C187.25 40.6953 189.704 43.194 192.735 43.2079H192.762C195.778 43.2079 198.243 40.7315 198.257 37.6873L198.366 13.6359C198.371 12.1697 197.788 10.7343 196.764 9.6965ZM118.639 85.5198L118.62 85.5408C115.368 89.0639 110.117 89.6975 106.134 87.0474L86.0601 73.6906C82.7679 71.5008 79.0123 70.2765 75.1983 70.1512C70.671 70.003 66.3213 71.3052 62.6191 73.9203L30.9654 96.2749C29.7476 91.2887 29.1001 86.0787 29.1001 80.7196C29.1001 44.873 57.9975 15.7104 93.5178 15.7104C118.442 15.7104 140.103 30.0699 150.811 51.0208L118.639 85.5198Z" fill="url(#paint0_linear_97_225)"/>
<path d="M133.874 7.7636C133.874 7.7636 106.12 18.6449 97.4177 22.3701C74.7584 31.681 25.8047 53.1602 10.6846 59.6005C-4.91859 66.2459 3.8766 71.882 5.24343 72.4496C5.92576 72.7343 13.2866 76.334 24.8319 78.8196C33.7468 81.5715 40.0914 82.0648 46.8144 78.49C51.8344 75.8212 85.9748 52.5858 106.341 38.9535C112.073 35.1514 113.757 39.3653 110.912 42.1383C108.849 44.1492 95.4229 57.1391 84.5114 67.6812C94.8212 65.4318 105.363 63.0555 107.805 62.0407C111.643 60.4459 132.372 54.5717 144.789 44.7292C146.12 34.9987 148.251 18.4022 148.537 15.3403C150.033 1.59591 133.874 7.7636 133.874 7.7636Z" fill="#DEE2E4"/>
</g>
</g>
<defs>
<linearGradient id="paint0_linear_97_225" x1="21.2354" y1="118.295" x2="181.518" y2="-20.2424" gradientUnits="userSpaceOnUse">
<stop stop-color="#2C63FF"/>
<stop offset="0.9935" stop-color="#55CFFF"/>
</linearGradient>
<clipPath id="clip0_97_225">
<rect width="199" height="159" fill="white"/>
</clipPath>
</defs>
</svg>
