<svg xmlns="http://www.w3.org/2000/svg" width="22" height="15" viewBox="0 0 22 15" fill="none"><g clip-path="url(#clip0_576_1352)"><path d="M0 0.000244141H22V14.9999H0V0.000244141Z" fill="#D80027"></path><path d="M8.44942 0.000244141V14.9999H0V0.000244141H8.44942Z" fill="#6DA544"></path><path d="M8.44922 10.3125C9.968 10.3125 11.1992 9.05331 11.1992 7.5C11.1992 5.9467 9.968 4.6875 8.44922 4.6875C6.93044 4.6875 5.69922 5.9467 5.69922 7.5C5.69922 9.05331 6.93044 10.3125 8.44922 10.3125Z" fill="#FFDA44"></path><path d="M6.90234 6.09375V7.85161C6.90234 8.72533 7.59491 9.43364 8.44922 9.43364C9.30352 9.43364 9.99609 8.72533 9.99609 7.85161V6.09375H6.90234Z" fill="#D80027"></path><path d="M8.44922 8.37891C8.16489 8.37891 7.93359 8.14235 7.93359 7.85156V7.14844H8.96489V7.85156C8.96484 8.14231 8.7335 8.37891 8.44922 8.37891Z" fill="white"></path></g><defs><clipPath id="clip0_576_1352"><rect width="22" height="15" rx="2" fill="white"></rect></clipPath></defs></svg>