<svg width="16.000000" height="16.000000" viewBox="0 0 16 16" fill="none" xmlns="http://www.w3.org/2000/svg" xmlns:xlink="http://www.w3.org/1999/xlink">
	<desc>
			Created with Pixso.
	</desc>
	<defs/>
	<path id="Vector" d="M16 8C16 12.41 12.41 16 8 16C3.58 16 0 12.41 0 8C0 3.58 3.58 0 8 0C12.41 0 16 3.58 16 8ZM1 8C1 11.86 4.13 15 8 15C11.86 15 15 11.86 15 8C15 4.13 11.86 1 8 1C4.13 1 1 4.13 1 8ZM5.49 6.03C5.35 6.03 5.24 5.92 5.25 5.78C5.34 4.09 6.73 3.5 8 3.5C9.4 3.5 10.67 4.22 10.67 5.74C10.67 6.81 10.04 7.33 9.43 7.79C8.69 8.35 8.42 8.56 8.42 9.28L8.42 9.38C8.42 9.52 8.31 9.63 8.17 9.63L7.36 9.63C7.22 9.63 7.11 9.52 7.11 9.39L7.11 9.17C7.07 8.24 7.6 7.67 8.27 7.18C8.86 6.74 9.24 6.45 9.24 5.81C9.24 4.99 8.61 4.64 7.92 4.64C7.12 4.64 6.67 5.12 6.58 5.78C6.56 5.92 6.45 6.03 6.32 6.03L5.49 6.03ZM7.82 12.47C7.23 12.47 6.81 12.08 6.81 11.54C6.81 10.99 7.23 10.6 7.82 10.6C8.43 10.6 8.84 10.99 8.84 11.54C8.84 12.08 8.43 12.47 7.82 12.47Z" fill="#788189" fill-opacity="1.000000" fill-rule="evenodd"/>
</svg>
