<svg width="551.000000" height="48.000000" viewBox="0 0 551 48" fill="none" xmlns="http://www.w3.org/2000/svg" xmlns:xlink="http://www.w3.org/1999/xlink">
	<desc>
			Created with Pixso.
	</desc>
	<defs>
		<clipPath id="clip540_509">
			<rect id="SVG" width="14.000000" height="15.000000" transform="translate(517.500000 12.000000)" fill="white" fill-opacity="0"/>
		</clipPath>
	</defs>
	<rect id="Options" rx="6.500000" width="550.000000" height="38.000000" transform="translate(0.000000 0.500000)" fill="#EFEFEF" fill-opacity="1.000000"/>
	<rect id="Options" rx="6.500000" width="550.000000" height="38.000000" transform="translate(0.000000 0.500000)" stroke="#C9CDD0" stroke-opacity="1.000000" stroke-width="1.000000"/>
	<g clip-path="url(#clip540_509)">
		<path id="Vector" d="M520.69 21.51C520.86 21.32 521.13 21.32 521.3 21.51L524.5 24.93L527.69 21.51C527.86 21.32 528.13 21.32 528.3 21.51C528.48 21.69 528.48 21.99 528.3 22.17L524.8 25.92C524.63 26.1 524.36 26.1 524.19 25.92L520.69 22.17C520.52 21.99 520.52 21.69 520.69 21.51Z" fill="#788189" fill-opacity="1.000000" fill-rule="evenodd"/>
		<path id="Vector" d="M520.69 17.48C520.86 17.67 521.13 17.67 521.3 17.48L524.5 14.06L527.69 17.48C527.86 17.67 528.13 17.67 528.3 17.48C528.48 17.3 528.48 17 528.3 16.82L524.8 13.07C524.63 12.89 524.36 12.89 524.19 13.07L520.69 16.82C520.52 17 520.52 17.3 520.69 17.48Z" fill="#788189" fill-opacity="1.000000" fill-rule="evenodd"/>
		<path id="Vector" d="M518.37 19.5C518.37 19.24 518.57 19.03 518.81 19.03L530.18 19.03C530.43 19.03 530.62 19.24 530.62 19.5C530.62 19.75 530.43 19.96 530.18 19.96L518.81 19.96C518.57 19.96 518.37 19.75 518.37 19.5Z" fill="#788189" fill-opacity="1.000000" fill-rule="evenodd"/>
	</g>
</svg>
