<svg width="18.000000" height="20.000000" viewBox="0 0 18 20" fill="none" xmlns="http://www.w3.org/2000/svg" xmlns:xlink="http://www.w3.org/1999/xlink">
	<desc>
			Created with Pixso.
	</desc>
	<defs/>
	<path id="Vector" d="M13 18L5 18C4.2 18 3.44 17.68 2.87 17.12C2.31 16.55 2 15.79 2 15L2 5C2 4.73 1.89 4.48 1.7 4.29C1.51 4.1 1.26 4 1 4C0.73 4 0.48 4.1 0.29 4.29C0.1 4.48 0 4.73 0 5L0 15C0 16.32 0.52 17.59 1.46 18.53C2.4 19.47 3.67 20 5 20L13 20C13.26 20 13.51 19.89 13.7 19.7C13.89 19.51 14 19.26 14 19C14 18.73 13.89 18.48 13.7 18.29C13.51 18.1 13.26 18 13 18ZM18 6.93C17.98 6.84 17.96 6.75 17.93 6.67L17.93 6.57C17.89 6.47 17.82 6.38 17.75 6.3L11.75 0.3C11.66 0.22 11.57 0.15 11.47 0.1L11.37 0.1L11.06 0L7 0C6.2 0 5.44 0.31 4.87 0.87C4.31 1.44 4 2.2 4 3L4 13C4 13.79 4.31 14.55 4.87 15.12C5.44 15.68 6.2 16 7 16L15 16C15.79 16 16.55 15.68 17.12 15.12C17.68 14.55 18 13.79 18 13L18 7C18 7 18 7 18 6.93ZM12 3.41L14.58 6L13 6C12.73 6 12.48 5.89 12.29 5.7C12.1 5.51 12 5.26 12 5L12 3.41ZM16 13C16 13.26 15.89 13.51 15.7 13.7C15.51 13.89 15.26 14 15 14L7 14C6.73 14 6.48 13.89 6.29 13.7C6.1 13.51 6 13.26 6 13L6 3C6 2.73 6.1 2.48 6.29 2.29C6.48 2.1 6.73 2 7 2L10 2L10 5C10 5.79 10.31 6.55 10.87 7.12C11.44 7.68 12.2 8 13 8L16 8L16 13Z" fill="#677179" fill-opacity="1.000000" fill-rule="nonzero"/>
</svg>
