<svg xmlns="http://www.w3.org/2000/svg" width="21" height="19" viewBox="0 0 21 19" fill="none">
                            <path d="M13.875 2.96875C13.875 1.32915 15.2042 0 16.8438 0C18.4833 0 19.8125 1.32915 19.8125 2.96875C19.8125 4.60835 18.4833 5.9375 16.8438 5.9375C15.9425 5.9375 15.1351 5.53591 14.5906 4.90191L6.61342 8.60724C6.70215 8.88901 6.75 9.18892 6.75 9.5C6.75 9.81108 6.70215 10.111 6.61342 10.3928L14.5906 14.0981C15.1351 13.4641 15.9425 13.0625 16.8438 13.0625C18.4833 13.0625 19.8125 14.3917 19.8125 16.0312C19.8125 17.6708 18.4833 19 16.8438 19C15.2042 19 13.875 17.6708 13.875 16.0312C13.875 15.7202 13.9228 15.4203 14.0116 15.1385L6.0344 11.4332C5.48994 12.0672 4.68249 12.4688 3.78125 12.4688C2.14165 12.4688 0.8125 11.1396 0.8125 9.5C0.8125 7.8604 2.14165 6.53125 3.78125 6.53125C4.68249 6.53125 5.48994 6.93284 6.0344 7.56684L14.0116 3.86151C13.9228 3.57974 13.875 3.27983 13.875 2.96875Z" fill="#677179"></path>
                        </svg>