<svg width="40.000000" height="40.000000" viewBox="0 0 40 40" fill="none" xmlns="http://www.w3.org/2000/svg" xmlns:xlink="http://www.w3.org/1999/xlink">
	<desc>
			Created with Pixso.
	</desc>
	<defs/>
	<path id="bg" d="M0 20C0 31.04 8.95 40 20 40C31.04 40 40 31.04 40 20C40 8.95 31.04 0 20 0C8.95 0 0 8.95 0 20Z" fill="#0088CC" fill-opacity="1.000000" fill-rule="evenodd"/>
	<path id="telegram" d="M10.12 19.63C15.49 17.29 19.07 15.75 20.86 15C25.97 12.88 27.04 12.51 27.73 12.5C27.88 12.49 28.22 12.53 28.44 12.71C28.63 12.86 28.68 13.06 28.71 13.21C28.73 13.35 28.76 13.68 28.74 13.93C28.46 16.85 27.26 23.91 26.65 27.17C26.39 28.55 25.88 29.02 25.39 29.06C24.32 29.16 23.51 28.35 22.47 27.68C20.85 26.61 19.94 25.95 18.36 24.91C16.55 23.72 17.72 23.06 18.76 21.98C19.03 21.7 23.74 17.41 23.84 17.03C23.85 16.98 23.86 16.8 23.75 16.7C23.64 16.6 23.48 16.64 23.37 16.66C23.21 16.7 20.62 18.41 15.6 21.8C14.86 22.3 14.2 22.55 13.6 22.54C12.95 22.52 11.68 22.16 10.74 21.86C9.59 21.48 8.67 21.28 8.75 20.65C8.79 20.32 9.25 19.98 10.12 19.63Z" fill="#FFFFFF" fill-opacity="1.000000" fill-rule="nonzero"/>
</svg>
