<svg width="65" height="64" viewBox="0 0 65 64" fill="none" xmlns="http://www.w3.org/2000/svg">
<rect x="0.487305" width="64" height="64" rx="32" fill="#DEE2E4"/>
<path d="M48.4465 16.7675C47.9728 16.39 47.4012 16.1426 46.7923 16.0516C46.1835 15.9606 45.5604 16.0294 44.9892 16.2508L15.1745 27.7823C14.5369 28.0336 13.9941 28.4648 13.6183 29.0185C13.2424 29.5722 13.0513 30.2223 13.0701 30.8826C13.089 31.5428 13.317 32.182 13.7239 32.7152C14.1308 33.2484 14.6974 33.6504 15.3484 33.868L21.3792 35.8773L24.7407 46.5263C24.7863 46.6686 24.8526 46.804 24.9376 46.9286C24.9505 46.9477 24.9687 46.962 24.9824 46.9805C25.0806 47.1117 25.1992 47.2277 25.3341 47.3244C25.3725 47.3524 25.4093 47.3787 25.4503 47.4036C25.6082 47.504 25.7832 47.5774 25.9673 47.6205L25.987 47.6221L25.9981 47.6267C26.1088 47.6483 26.2215 47.6592 26.3344 47.6594C26.3453 47.6594 26.355 47.6544 26.3657 47.6542C26.5362 47.6514 26.7052 47.6232 26.8666 47.5708C26.9042 47.5586 26.9364 47.5381 26.9728 47.5233C27.0933 47.4755 27.2073 47.4142 27.3127 47.3407C27.3971 47.2726 27.4815 47.2045 27.566 47.1364L32.0615 42.3815L38.7666 47.3574C39.3569 47.7977 40.0835 48.037 40.8316 48.0376C41.6154 48.0366 42.3752 47.7775 42.9833 47.3037C43.5915 46.8299 44.0112 46.1702 44.1719 45.4352L49.6 19.9084C49.723 19.3339 49.6807 18.7381 49.4775 18.1849C49.2743 17.6316 48.9179 17.1417 48.4465 16.7675ZM26.9941 36.3847C26.7634 36.6048 26.6057 36.8853 26.5408 37.1909L26.0259 39.588L24.7215 35.4552L31.4848 32.0812L26.9941 36.3847ZM40.8056 44.8376L32.882 38.9574C32.5505 38.712 32.1346 38.5953 31.7173 38.6305C31.3 38.6656 30.9118 38.8502 30.6302 39.1473L29.1904 40.6697L29.6992 38.3006L41.4831 27.0119C41.7643 26.7428 41.9357 26.3861 41.9661 26.0064C41.9966 25.6267 41.884 25.2491 41.6489 24.942C41.4138 24.635 41.0717 24.4187 40.6845 24.3324C40.2974 24.2462 39.8907 24.2956 39.5383 24.4718L22.6265 32.907L16.4304 30.7349L46.3409 19.2718L40.8056 44.8376Z" fill="#677179"/>
</svg>
