<svg width="28" height="28" viewBox="0 0 28 28" fill="none" xmlns="http://www.w3.org/2000/svg">
<rect width="28" height="28" rx="5" fill="#17212B"/>
<path d="M14.8827 19.9498C14.8827 19.9498 15.2076 19.9077 15.374 19.6988C15.5263 19.5075 15.521 19.1464 15.521 19.1464C15.521 19.1464 15.5008 17.4602 16.1707 17.2112C16.831 16.9664 17.6788 18.8418 18.5786 19.563C19.2582 20.1083 19.7741 19.9889 19.7741 19.9889L22.1785 19.9498C22.1785 19.9498 23.4356 19.8593 22.8396 18.704C22.7903 18.6093 22.4919 17.8491 21.0525 16.2874C19.5444 14.6526 19.7469 14.917 21.5622 12.0889C22.668 10.3667 23.1099 9.3153 22.9717 8.86572C22.8405 8.43569 22.027 8.54989 22.027 8.54989L19.3207 8.56943C19.3207 8.56943 19.12 8.53754 18.9712 8.64145C18.826 8.7433 18.7318 8.98095 18.7318 8.98095C18.7318 8.98095 18.3039 10.3132 17.7325 11.4469C16.5273 13.8378 16.0457 13.9644 15.8485 13.8162C15.3898 13.4695 15.5043 12.4253 15.5043 11.6836C15.5043 9.36571 15.8054 8.39968 14.9188 8.14969C14.6248 8.06636 14.4082 8.01183 13.6555 8.00257C12.6897 7.99126 11.8727 8.00669 11.4096 8.27109C11.1015 8.44701 10.8638 8.84 11.0091 8.86264C11.1878 8.89041 11.5928 8.99021 11.8076 9.33176C12.0849 9.77311 12.0752 10.7628 12.0752 10.7628C12.0752 10.7628 12.2346 13.4911 11.7028 13.8296C11.3383 14.0621 10.8383 13.5878 9.76333 11.4181C9.2131 10.3071 8.79756 9.07868 8.79756 9.07868C8.79756 9.07868 8.71744 8.84926 8.57394 8.72581C8.4005 8.57664 8.1584 8.53034 8.1584 8.53034L5.58681 8.54989C5.58681 8.54989 5.20032 8.56223 5.05858 8.75873C4.93268 8.93259 5.04889 9.2937 5.04889 9.2937C5.04889 9.2937 7.06233 14.7987 9.34251 17.5734C11.4334 20.1165 13.8069 19.9498 13.8069 19.9498H14.8827Z" fill="white"/>
</svg>
