<svg width="35" height="35" viewBox="0 0 35 35" fill="none" xmlns="http://www.w3.org/2000/svg">
<rect width="35" height="35" rx="7" fill="#161B22"/>
<path d="M18.5299 23.9457C18.5299 23.9457 18.9089 23.9 19.103 23.6737C19.2807 23.4664 19.2745 23.0752 19.2745 23.0752C19.2745 23.0752 19.2509 21.2485 20.0325 20.9788C20.8029 20.7136 21.792 22.7453 22.8417 23.5266C23.6346 24.1173 24.2365 23.988 24.2365 23.988L27.0415 23.9457C27.0415 23.9457 28.5083 23.8476 27.8129 22.596C27.7554 22.4935 27.4072 21.6698 25.7279 19.978C23.9684 18.207 24.2047 18.4935 26.3226 15.4296C27.6126 13.5639 28.1282 12.4249 27.967 11.9379C27.8139 11.472 26.8649 11.5957 26.8649 11.5957L23.7075 11.6169C23.7075 11.6169 23.4734 11.5823 23.2998 11.6949C23.1303 11.8052 23.0204 12.0627 23.0204 12.0627C23.0204 12.0627 22.5212 13.506 21.8546 14.7342C20.4485 17.3243 19.8867 17.4614 19.6566 17.3009C19.1215 16.9253 19.255 15.7941 19.255 14.9905C19.255 12.4795 19.6063 11.433 18.572 11.1622C18.2289 11.0719 17.9763 11.0128 17.0981 11.0028C15.9713 10.9905 15.0182 11.0072 14.4779 11.2937C14.1184 11.4843 13.8411 11.91 14.0106 11.9345C14.2191 11.9646 14.6916 12.0727 14.9422 12.4427C15.2657 12.9209 15.2544 13.993 15.2544 13.993C15.2544 13.993 15.4403 16.9487 14.8199 17.3154C14.3947 17.5673 13.8113 17.0535 12.5572 14.703C11.9153 13.4993 11.4305 12.1686 11.4305 12.1686C11.4305 12.1686 11.337 11.92 11.1696 11.7863C10.9673 11.6247 10.6848 11.5745 10.6848 11.5745L7.68461 11.5957C7.68461 11.5957 7.23371 11.6091 7.06834 11.822C6.92147 12.0103 7.05704 12.4015 7.05704 12.4015C7.05704 12.4015 9.40605 18.3653 12.0663 21.3711C14.5057 24.1262 17.2747 23.9457 17.2747 23.9457H18.5299Z" fill="white"/>
</svg>
