<svg width="64" height="64" viewBox="0 0 64 64" fill="none" xmlns="http://www.w3.org/2000/svg">
<rect width="64" height="64" rx="32" fill="#DEE2E4"/>
<g clip-path="url(#clip0_5407_492)">
<path d="M10.2939 32.208C10.2939 21.3383 10.2939 15.9036 13.4295 12.5268C16.5651 9.15002 21.6117 9.15002 31.705 9.15002H33.4892C43.5825 9.15002 48.629 9.15002 51.7647 12.5268C54.9002 15.9036 54.9002 21.3383 54.9002 32.208V34.1295C54.9002 44.9992 54.9002 50.434 51.7647 53.8108C48.629 57.1876 43.5825 57.1876 33.4892 57.1876H31.705C21.6117 57.1876 16.5651 57.1876 13.4295 53.8108C10.2939 50.434 10.2939 44.9992 10.2939 34.1295V32.208Z" fill="#DEE2E4"/>
<path d="M33.9518 43.737C23.5885 43.737 17.6774 36.1636 17.4312 23.5613H22.6223C22.7928 32.811 26.6198 36.729 29.6511 37.5369V23.5613H34.5393V31.5387C37.5328 31.1954 40.6774 27.5601 41.7384 23.5613H46.6265C45.8118 28.4891 42.4016 32.1244 39.9765 33.6189C42.4016 34.8306 46.2856 38.0014 47.7634 43.737H42.3826C41.2269 39.8998 38.3474 36.931 34.5393 36.5271V43.737H33.9518Z" fill="#677179"/>
</g>
<defs>
<clipPath id="clip0_5407_492">
<rect width="44.6063" height="48.0375" fill="white" transform="translate(10.2939 9.15002)"/>
</clipPath>
</defs>
</svg>
