<svg width="28" height="28" viewBox="0 0 28 28" fill="none" xmlns="http://www.w3.org/2000/svg">
<rect width="28" height="28" rx="7" fill="#17212B"/>
<path d="M17.735 15.608C17.5742 15.5281 16.5293 15.0487 16.3686 14.9688C16.2078 14.8889 16.0471 14.8889 15.8863 15.0487C15.7256 15.2085 15.4041 15.6879 15.2433 15.8477C15.1629 16.0075 15.0022 16.0075 14.8414 15.9276C14.2788 15.6879 13.7162 15.3683 13.2339 14.9688C12.832 14.5693 12.4301 14.0899 12.1086 13.6105C12.0282 13.4507 12.1086 13.2909 12.189 13.211C12.2694 13.1311 12.3498 12.9713 12.5105 12.8914C12.5909 12.8115 12.6713 12.6517 12.6713 12.5718C12.7516 12.4919 12.7516 12.3321 12.6713 12.2522C12.5909 12.1723 12.189 11.2135 12.0282 10.814C11.9479 10.2547 11.7871 10.2547 11.6264 10.2547C11.546 10.2547 11.3852 10.2547 11.2245 10.2547C11.0637 10.2547 10.8226 10.4145 10.7422 10.4944C10.26 10.9738 10.0188 11.5331 10.0188 12.1723C10.0992 12.8914 10.3403 13.6105 10.8226 14.2497C11.7067 15.5281 12.832 16.5668 14.1984 17.206C14.6003 17.3658 14.9218 17.5256 15.3237 17.6055C15.7256 17.7653 16.1275 17.7653 16.6097 17.6854C17.1723 17.6055 17.6546 17.206 17.9761 16.7266C18.1369 16.407 18.1369 16.0874 18.0565 15.7678C18.0565 15.7678 17.8957 15.6879 17.735 15.608ZM19.7444 8.33708C16.6097 5.22097 11.546 5.22097 8.4113 8.33708C5.83925 10.8939 5.35699 14.809 7.12527 17.9251L6 22L10.26 20.8814C11.4656 21.5206 12.7516 21.8402 14.0377 21.8402C18.4584 21.8402 21.9949 18.3246 21.9949 13.9301C22.0753 11.8527 21.1912 9.85518 19.7444 8.33708ZM17.5742 19.5231C16.5293 20.1623 15.3237 20.5618 14.0377 20.5618C12.832 20.5618 11.7067 20.2422 10.6618 19.6829L10.4207 19.5231L7.92904 20.1623L8.57205 17.7653L8.4113 17.5256C6.48226 14.3296 7.44678 10.3346 10.5815 8.33708C13.7162 6.33958 17.735 7.37828 19.664 10.4145C21.5931 13.5306 20.7089 17.6055 17.5742 19.5231Z" fill="white"/>
</svg>
