<svg width="65" height="64" viewBox="0 0 65 64" fill="none" xmlns="http://www.w3.org/2000/svg">
<rect x="0.462402" width="64" height="64" rx="32" fill="#DEE2E4"/>
<path d="M39.8023 35.2436C39.469 35.0837 37.3029 34.1241 36.9697 33.9642C36.6364 33.8042 36.3032 33.8042 35.9699 34.1241C35.6367 34.4439 34.9702 35.4035 34.6369 35.7234C34.4703 36.0432 34.1371 36.0432 33.8038 35.8833C32.6374 35.4035 31.4711 34.7638 30.4713 33.9642C29.6382 33.1645 28.8051 32.205 28.1386 31.2454C27.9719 30.9256 28.1386 30.6057 28.3052 30.4458C28.4718 30.2859 28.6384 29.966 28.9717 29.8061C29.1383 29.6462 29.3049 29.3263 29.3049 29.1664C29.4716 29.0065 29.4716 28.6866 29.3049 28.5267C29.1383 28.3668 28.3052 26.4477 27.9719 25.6481C27.8053 24.5286 27.4721 24.5286 27.1388 24.5286C26.9722 24.5286 26.6389 24.5286 26.3057 24.5286C25.9724 24.5286 25.4726 24.8484 25.3059 25.0084C24.3062 25.9679 23.8063 27.0874 23.8063 28.3668C23.973 29.8061 24.4728 31.2454 25.4726 32.5248C27.3054 35.0837 29.6382 37.1627 32.4708 38.4421C33.3039 38.7619 33.9704 39.0818 34.8036 39.2417C35.6367 39.5616 36.4698 39.5616 37.4695 39.4016C38.6359 39.2417 39.6357 38.4421 40.3022 37.4825C40.6354 36.8428 40.6354 36.2031 40.4688 35.5634C40.4688 35.5634 40.1355 35.4035 39.8023 35.2436ZM43.9679 20.6904C37.4695 14.4533 26.9722 14.4533 20.4738 20.6904C15.1418 25.808 14.1421 33.6443 17.8078 39.8814L15.4751 48.0376L24.3062 45.7986C26.8056 47.078 29.4716 47.7177 32.1376 47.7177C41.3019 47.7177 48.6334 40.681 48.6334 31.8851C48.8 27.7271 46.9671 23.729 43.9679 20.6904ZM39.469 43.0799C37.3029 44.3593 34.8035 45.1589 32.1376 45.1589C29.6382 45.1589 27.3054 44.5192 25.1393 43.3998L24.6395 43.0799L19.4741 44.3593L20.8071 39.5616L20.4738 39.0818C16.4748 32.6848 18.4743 24.6885 24.9727 20.6904C31.4711 16.6923 39.8023 18.7713 43.8013 24.8484C47.8003 31.0855 45.9674 39.2417 39.469 43.0799Z" fill="#677179"/>
</svg>
