<svg width="10" height="7" viewBox="0 0 10 7" fill="none" xmlns="http://www.w3.org/2000/svg">
<path fill-rule="evenodd" clip-rule="evenodd" d="M9.65055 0.3905C9.68951 0.429366 9.72042 0.475537 9.74152 0.526369C9.76261 0.577201 9.77347 0.631694 9.77347 0.686729C9.77347 0.741763 9.76261 0.796257 9.74152 0.847089C9.72042 0.897921 9.68951 0.944092 9.65055 0.982958L3.79291 6.8406C3.75404 6.87956 3.70787 6.91048 3.65704 6.93157C3.6062 6.95266 3.55171 6.96352 3.49668 6.96352C3.44164 6.96352 3.38715 6.95266 3.33632 6.93157C3.28548 6.91048 3.23931 6.87956 3.20045 6.8406L0.271628 3.91178C0.193063 3.83321 0.148926 3.72666 0.148926 3.61555C0.148926 3.50444 0.193063 3.39788 0.271628 3.31932C0.350193 3.24075 0.45675 3.19662 0.567857 3.19662C0.678965 3.19662 0.785521 3.24075 0.864086 3.31932L3.49668 5.95275L9.05809 0.3905C9.09695 0.351535 9.14312 0.320621 9.19396 0.299528C9.24479 0.278436 9.29928 0.267578 9.35432 0.267578C9.40935 0.267578 9.46384 0.278436 9.51468 0.299528C9.56551 0.320621 9.61168 0.351535 9.65055 0.3905Z" fill="white"/>
</svg>
