<svg width="110" height="57" viewBox="0 0 110 57" fill="none" xmlns="http://www.w3.org/2000/svg">
<g clip-path="url(#clip0_972_4100)">
<path d="M70.8081 9.08735C73.9838 8.72853 76.8452 9.05249 80.0451 9.38055C80.862 9.4653 81.4954 9.45642 81.9453 9.3539C82.7563 9.17141 83.0226 8.36972 83.2549 7.64594C83.4057 7.17572 83.5279 7.18392 83.6213 7.67054C83.8162 8.69163 84.0118 9.79063 84.208 10.9675C84.738 14.1333 85.2726 17.2964 85.8119 20.4567C85.8359 20.5988 85.8086 20.7273 85.7298 20.8422C85.7199 20.8563 85.7065 20.8674 85.691 20.8745C85.6754 20.8816 85.6584 20.8843 85.6415 20.8825C85.6246 20.8806 85.6085 20.8742 85.5948 20.8638C85.5811 20.8535 85.5704 20.8397 85.5636 20.8237C84.3609 17.9053 82.5293 15.328 80.0691 13.0917C79.1667 12.2729 78.0934 11.5006 76.8493 10.7748C75.7546 10.1365 74.5532 9.72843 73.245 9.55073C71.607 9.33134 69.8269 9.81728 68.9579 11.2895C68.3865 12.2572 68.227 13.292 68.4793 14.3937C68.9218 16.3252 70.2814 17.0982 71.9895 17.7645C74.2241 18.6359 76.4588 19.1916 78.6974 19.8375C80.0017 20.2147 81.2485 20.7513 82.4379 21.447C82.4483 21.4528 82.4572 21.4611 82.4638 21.4712C82.4704 21.4812 82.4746 21.4928 82.476 21.5048C82.4774 21.5169 82.4759 21.5291 82.4717 21.5404C82.4675 21.5518 82.4607 21.5619 82.4519 21.57C82.4159 21.6015 82.3645 21.6172 82.2977 21.6172C74.8622 21.5625 68.9218 21.5523 64.4765 21.5864C64.2122 21.5885 64 21.57 63.8678 21.3158C63.5154 20.646 63.2825 19.9673 63.169 19.2798C62.6824 16.3313 63.2711 13.2414 65.5398 11.3018C66.9935 10.0579 68.7496 9.31973 70.8081 9.08735Z" fill="#0ABAB5"/>
<path d="M46.7956 12.3034C46.7956 11.9917 46.7055 11.9616 46.5253 12.2132C44.3053 15.2942 42.1955 18.3076 40.1958 21.2533C40.1259 21.3563 40.0328 21.4404 39.9243 21.4982C39.8158 21.5561 39.6952 21.586 39.573 21.5854C36.5347 21.5704 33.7594 21.5745 31.2471 21.5977C30.9027 21.6018 30.5683 21.567 30.3521 21.2512C29.0532 19.3389 27.7583 17.3733 26.4674 15.3543C26.0349 14.6763 25.5884 14.0305 25.1278 13.4167C25.0971 13.3757 25.0578 13.3463 25.0097 13.3286C24.9256 13.2971 24.8842 13.3279 24.8856 13.4208L24.9957 21.3824C24.9961 21.4187 24.9891 21.4546 24.9752 21.488C24.9613 21.5213 24.9409 21.5514 24.9151 21.5762C24.8893 21.6011 24.8588 21.6202 24.8255 21.6324C24.7921 21.6445 24.7567 21.6495 24.7214 21.6469L24.5992 21.6387C24.5188 21.6325 24.4438 21.595 24.3895 21.5341C24.3352 21.4731 24.3056 21.3932 24.3069 21.3107C24.3296 19.453 24.3182 17.8039 24.2728 16.3631C24.2435 15.3912 24.1166 14.3367 23.8924 13.1994C23.6134 11.7751 23.0133 10.8182 22.0922 10.3289C21.5249 10.0295 20.7259 9.8067 19.6954 9.66044C19.6862 9.65903 19.6774 9.65565 19.6696 9.65054C19.6618 9.64542 19.6552 9.63868 19.6501 9.63075C19.645 9.62282 19.6415 9.61388 19.64 9.60452C19.6385 9.59515 19.639 9.58556 19.6413 9.57638L19.6593 9.50462C19.6681 9.47229 19.6869 9.44378 19.7129 9.42342C19.7389 9.40306 19.7708 9.39197 19.8035 9.39185L32.1021 9.51282C32.2077 9.51413 32.3111 9.54243 32.4028 9.59511C32.4945 9.64779 32.5715 9.72314 32.6268 9.81422L39.4208 20.9785C39.4367 21.0047 39.4587 21.0264 39.4847 21.0418C39.5108 21.0572 39.5403 21.0657 39.5705 21.0667C39.6007 21.0677 39.6308 21.0612 39.6581 21.0476C39.6854 21.034 39.7091 21.0138 39.7272 20.9888C41.7536 18.1346 43.7987 15.1794 45.8625 12.1229C46.3871 11.3438 46.9498 10.5995 47.4364 9.79372C47.5619 9.58595 47.7848 9.48274 48.1052 9.48411C52.5251 9.51555 56.1634 9.47864 59.0201 9.37339C59.203 9.36656 59.3659 9.41918 59.5087 9.53127C59.5202 9.53991 59.5291 9.55176 59.5342 9.56541C59.5392 9.57905 59.5404 9.59392 59.5374 9.60821C59.5345 9.6225 59.5275 9.63561 59.5175 9.64597C59.5074 9.65633 59.4946 9.66349 59.4807 9.6666C58.9781 9.78142 58.4375 9.76091 57.9669 9.94545C57.0204 10.3172 56.4304 10.9993 56.1968 11.9917C55.9165 13.1782 55.7543 14.4563 55.7102 15.8259C55.6528 17.6166 55.6408 19.3997 55.6742 21.1754C55.6795 21.4378 55.554 21.5697 55.2977 21.5711C52.7547 21.5861 50.207 21.5854 47.6546 21.569C47.4477 21.5677 47.2441 21.5595 47.0439 21.5444C46.9785 21.5393 46.9174 21.5091 46.8725 21.4597C46.8277 21.4104 46.8024 21.3455 46.8016 21.2779L46.7956 12.3034Z" fill="#0ABAB5"/>
<path d="M36.2041 23.8016C36.3734 23.7571 36.484 23.6153 36.4513 23.4847C36.4186 23.3542 36.2549 23.2845 36.0856 23.329C35.9164 23.3735 35.8057 23.5154 35.8384 23.6459C35.8712 23.7764 36.0349 23.8461 36.2041 23.8016Z" fill="#0ABAB5"/>
<path d="M29.1088 25.3648L29.1248 28.2948C29.1254 28.3273 29.1178 28.3593 29.1027 28.3877C29.0876 28.4161 29.0655 28.4399 29.0387 28.4568C28.9479 28.5142 28.8605 28.4998 28.7764 28.4137C28.7429 28.3781 28.7236 28.3312 28.7223 28.2825C28.6916 26.8281 28.6669 25.442 28.6483 24.1243C28.6443 23.907 28.679 23.6971 28.7524 23.4948C28.7664 23.4557 28.7909 23.4215 28.8233 23.3961C28.8556 23.3707 28.8942 23.3553 28.9348 23.3517C28.9753 23.348 29.0161 23.3563 29.0522 23.3754C29.0883 23.3946 29.1184 23.424 29.1388 23.46L31.1112 26.96C31.126 26.9858 31.1471 27.0072 31.1724 27.022C31.1977 27.0369 31.2263 27.0448 31.2554 27.0448C31.2844 27.0448 31.3128 27.0369 31.3378 27.022C31.3627 27.0072 31.3833 26.9858 31.3975 26.96C31.9075 26.0496 32.4374 25.0695 32.9874 24.0197C33.1036 23.7969 33.2491 23.6165 33.4239 23.4784C33.4564 23.453 33.4952 23.4375 33.5359 23.4339C33.5766 23.4303 33.6175 23.4387 33.6537 23.4581C33.6899 23.4775 33.7199 23.5071 33.7402 23.5434C33.7605 23.5797 33.7703 23.6212 33.7683 23.663C33.7043 25.1666 33.6976 26.7037 33.7483 28.2743C33.7497 28.3282 33.7303 28.3811 33.6943 28.4219C33.5661 28.5695 33.45 28.5702 33.3458 28.424C33.3237 28.3932 33.3111 28.356 33.3098 28.3173C33.2818 27.0844 33.2965 25.8986 33.3539 24.7599C33.3779 24.2719 33.2764 24.2432 33.0495 24.6738L31.5097 27.6038C31.4842 27.6516 31.4469 27.6918 31.4016 27.7203C31.3562 27.7488 31.3044 27.7645 31.2514 27.766C31.1984 27.7674 31.146 27.7545 31.0996 27.7286C31.0532 27.7026 31.0143 27.6645 30.987 27.6182C30.5078 26.8144 30.0586 26.0168 29.6394 25.2254C29.2817 24.5515 29.1048 24.5979 29.1088 25.3648Z" fill="#0ABAB5"/>
<path d="M40.5801 28.4115C39.6043 28.6288 38.7299 28.4668 37.957 27.9255C37.9307 27.9068 37.9113 27.8798 37.9018 27.8489C37.8924 27.818 37.8935 27.785 37.905 27.7553L37.937 27.6651C37.9797 27.5544 38.0545 27.523 38.1613 27.5708C38.7727 27.8483 39.3567 28.0034 39.9134 28.0362C40.6122 28.0772 41.2089 27.5831 41.0147 26.8409C40.996 26.7657 40.9559 26.7062 40.8945 26.6625C40.6409 26.4779 40.3612 26.3508 40.0555 26.2811C39.3227 26.113 37.8549 25.7788 38.0311 24.69C38.2794 23.1686 40.0555 23.2281 41.1268 23.7017C41.1909 23.7298 41.2449 23.7773 41.2812 23.8376C41.3174 23.8979 41.3342 23.968 41.329 24.038C41.3237 24.0968 41.2643 24.1323 41.1508 24.1446C41.1196 24.1486 41.0875 24.1429 41.0587 24.1282C40.2658 23.7222 39.5382 23.7052 38.8761 24.077C38.5958 24.2355 38.4723 24.5075 38.5057 24.893C38.5124 24.975 38.5444 25.0441 38.6018 25.1001C39.1625 25.6475 39.9874 25.6968 40.7043 25.9284C41.9498 26.3303 41.8437 28.1265 40.5801 28.4115Z" fill="#0ABAB5"/>
<path d="M70.6581 24.17C70.3617 24.4017 70.3277 24.943 70.62 25.2075C71.3929 25.9108 73.159 25.593 73.4013 26.8765C73.6997 28.4615 71.8214 28.6357 70.7962 28.3836C70.6654 28.3507 70.5386 28.307 70.4158 28.2523C69.9005 28.0213 69.7163 27.8108 69.8631 27.6208C69.8938 27.5798 69.9325 27.5689 69.9793 27.588C70.7015 27.8901 71.3048 28.0452 71.7894 28.0534C72.328 28.0637 73.0449 27.6926 72.9448 27.0242C72.7826 25.9375 70.2536 26.4542 69.9793 25.0907C69.6088 23.233 71.8054 23.2002 72.9087 23.6472C72.9405 23.6594 72.9697 23.6775 72.9948 23.7005C73.2431 23.9233 73.2598 24.0812 73.0449 24.1741C73.0209 24.1845 72.9949 24.1896 72.9688 24.1893C72.9426 24.1889 72.9167 24.1831 72.8927 24.1721C72.1578 23.8215 71.3609 23.6226 70.6581 24.17Z" fill="#0ABAB5"/>
<path d="M75.3736 25.0363C75.5712 25.255 75.8055 25.4054 76.0765 25.4874C76.5464 25.6282 77.0203 25.7806 77.4982 25.9446C78.1349 26.1633 78.444 26.5748 78.4253 27.1789C78.4092 27.7243 77.9287 28.2349 77.4 28.3805C76.4656 28.6402 75.5819 28.4673 74.7489 27.8617C74.7185 27.8397 74.6955 27.8085 74.6833 27.7725C74.6711 27.7364 74.6702 27.6974 74.6808 27.6608C74.7182 27.5378 74.799 27.5002 74.9231 27.548C75.708 27.8535 76.7853 28.2923 77.5342 27.7346C77.9567 27.4209 78.0508 26.7996 77.5182 26.529C77.2686 26.4019 77.0129 26.3151 76.7513 26.2686C76.0524 26.1476 74.7249 25.6883 74.841 24.7164C75.0412 23.0474 76.9515 23.2463 78.1109 23.7384C78.1323 23.7479 78.1516 23.7618 78.1674 23.7792C78.1833 23.7967 78.1954 23.8173 78.2029 23.8397C78.2105 23.8621 78.2133 23.8859 78.2113 23.9094C78.2092 23.9329 78.2023 23.9557 78.191 23.9763L78.1449 24.0624C78.1315 24.0875 78.1096 24.1068 78.0832 24.1169C78.0568 24.1271 78.0276 24.1274 78.0008 24.1177C77.0917 23.7835 75.4637 23.4288 75.3056 24.821C75.3006 24.8596 75.3041 24.8989 75.3159 24.9361C75.3276 24.9733 75.3474 25.0076 75.3736 25.0363Z" fill="#0ABAB5"/>
<path d="M43.8243 25.8735C43.799 26.5474 43.7836 27.2055 43.7783 27.848C43.778 27.8673 43.7815 27.8864 43.7887 27.9043C43.7958 27.9222 43.8064 27.9385 43.8198 27.9522C43.8332 27.966 43.8492 27.9769 43.8668 27.9843C43.8844 27.9918 43.9033 27.9956 43.9224 27.9956L46.6497 28.01C46.7378 28.01 46.7958 28.053 46.8239 28.1391L46.8499 28.2171C46.882 28.3127 46.8486 28.3647 46.7498 28.3729C45.7953 28.4576 44.7541 28.4891 43.6261 28.4672C43.4272 28.4631 43.3284 28.3599 43.3297 28.1576L43.3598 23.6304C43.3598 23.6049 43.3647 23.5797 43.3744 23.5561C43.3841 23.5326 43.3983 23.5113 43.4162 23.4934C43.4341 23.4754 43.4553 23.4613 43.4786 23.4517C43.5019 23.4421 43.5268 23.4374 43.552 23.4376L46.6497 23.4725C46.7712 23.4739 46.7965 23.5258 46.7258 23.6283L46.6857 23.6837C46.6296 23.7643 46.5536 23.8088 46.4574 23.817C45.6712 23.8867 44.8429 23.8894 43.9725 23.8252C43.827 23.8156 43.7609 23.8846 43.7743 24.0322C43.829 24.6528 43.8457 25.2666 43.8243 25.8735Z" fill="#0ABAB5"/>
<path d="M49.9713 25.3979C49.9809 25.4133 49.9939 25.4262 50.0093 25.4354C50.0247 25.4447 50.042 25.45 50.0599 25.451C50.0777 25.452 50.0955 25.4487 50.1118 25.4412C50.1281 25.4338 50.1424 25.4224 50.1535 25.4081C50.5954 24.8395 51.0192 24.2681 51.425 23.694C51.5599 23.504 51.7341 23.4118 51.9477 23.4172C51.9607 23.4179 51.9733 23.4221 51.9843 23.4293C51.9952 23.4366 52.004 23.4466 52.0098 23.4584C52.0155 23.4702 52.018 23.4833 52.0169 23.4962C52.0159 23.5092 52.0113 23.5216 52.0037 23.5321L50.4639 25.6829C50.432 25.7269 50.4148 25.7803 50.4148 25.8353C50.4148 25.8902 50.432 25.9439 50.4639 25.9884L52.1539 28.332C52.1679 28.3522 52.1745 28.3768 52.1726 28.4015C52.1708 28.4262 52.1607 28.4495 52.1439 28.4673C52.0772 28.537 52.0017 28.5548 51.9176 28.5206C51.7788 28.4646 51.664 28.3778 51.5732 28.2602C51.0713 27.6164 50.5994 26.9582 50.1575 26.2857C50.1055 26.2078 50.0527 26.2071 49.9994 26.2837L48.5977 28.2705C48.5189 28.3812 48.4128 28.4379 48.2793 28.4407L48.1471 28.4427C48.0243 28.4454 47.999 28.3962 48.0711 28.2951L49.739 25.9679C49.7577 25.9422 49.768 25.9111 49.7684 25.879C49.7687 25.847 49.7592 25.8157 49.741 25.7895L48.1411 23.5464C48.1328 23.5348 48.1277 23.5212 48.1261 23.5068C48.1246 23.4925 48.1267 23.478 48.1323 23.4646C48.138 23.4512 48.1469 23.4395 48.1582 23.4305C48.1696 23.4214 48.183 23.4155 48.1972 23.4131C48.2346 23.4077 48.272 23.4104 48.3093 23.4213C48.4388 23.4582 48.549 23.5259 48.6397 23.6243C49.1297 24.1533 49.5735 24.7445 49.9713 25.3979Z" fill="#0ABAB5"/>
<path d="M54.2926 26.8492C54.2727 26.8482 54.2528 26.8516 54.2344 26.8591C54.2159 26.8666 54.1992 26.878 54.1855 26.8926C54.1718 26.9072 54.1614 26.9247 54.155 26.9437C54.1486 26.9627 54.1464 26.9829 54.1484 27.0029C54.1912 27.4663 54.1805 27.8955 54.1164 28.2906C54.0964 28.4122 54.027 28.4792 53.9082 28.4915C53.8841 28.4929 53.8614 28.4895 53.8401 28.4813C53.6919 28.4266 53.6171 28.3186 53.6158 28.1573L53.5978 23.7264C53.5975 23.6879 53.6047 23.6496 53.619 23.6139C53.6333 23.5782 53.6544 23.5458 53.6811 23.5185C53.7077 23.4912 53.7394 23.4696 53.7742 23.455C53.8091 23.4404 53.8464 23.433 53.8841 23.4332C54.4808 23.4401 55.0902 23.449 55.7123 23.4599C56.7375 23.4783 57.5485 24.2144 57.4604 25.3114C57.3222 26.9906 55.5121 26.925 54.2926 26.8492ZM54.1264 24.2144L54.1484 26.068C54.149 26.114 54.1583 26.1595 54.176 26.2018C54.1937 26.2442 54.2194 26.2825 54.2516 26.3147C54.2837 26.3469 54.3218 26.3722 54.3635 26.3894C54.4053 26.4065 54.4499 26.415 54.4948 26.4145L55.6442 26.4001C55.8233 26.3978 56.0003 26.3628 56.165 26.2972C56.3297 26.2317 56.4788 26.1368 56.604 26.018C56.7291 25.8991 56.8278 25.7587 56.8943 25.6048C56.9609 25.4508 56.994 25.2863 56.9918 25.1207V25.0879C56.9875 24.7535 56.8397 24.4348 56.5809 24.2018C56.3222 23.9688 55.9738 23.8406 55.6122 23.8454L54.4628 23.8597C54.3723 23.8613 54.2862 23.8995 54.2232 23.966C54.1601 24.0325 54.1253 24.1218 54.1264 24.2144Z" fill="#0ABAB5"/>
<path d="M62.1941 26.6506C62.1713 26.6645 62.1515 26.6831 62.136 26.7051C62.1205 26.7272 62.1095 26.7523 62.1037 26.7789C62.0979 26.8055 62.0974 26.8332 62.1023 26.8601C62.1071 26.887 62.1172 26.9127 62.132 26.9356L63.0271 28.2971C63.1072 28.4201 63.0751 28.485 62.9309 28.4918C62.8869 28.4932 62.8435 28.4871 62.8008 28.4734C62.6526 28.4214 62.5305 28.3333 62.4343 28.2089C62.166 27.8603 61.9084 27.4926 61.6614 27.1058C61.6144 27.033 61.5511 26.9728 61.4768 26.9303C61.4026 26.8879 61.3196 26.8644 61.2349 26.8618L59.9354 26.8249C59.8895 26.8238 59.8451 26.8412 59.8117 26.8735C59.7783 26.9057 59.7587 26.9502 59.7572 26.9971L59.7131 28.3032C59.7113 28.3482 59.6959 28.3915 59.669 28.4271C59.6421 28.4628 59.605 28.489 59.5629 28.5021C59.4174 28.5458 59.3247 28.4973 59.2846 28.3565C59.2501 28.2424 59.2325 28.1242 59.2325 28.0059C59.2219 26.6117 59.2252 25.1723 59.2426 23.6878C59.2433 23.6316 59.2641 23.5776 59.3011 23.5363C59.3381 23.495 59.3886 23.4694 59.4428 23.4643C60.5982 23.3557 63.007 23.2019 63.0531 24.9796C63.0731 25.7232 62.7868 26.2802 62.1941 26.6506ZM59.6631 24.0671L59.7191 26.261C59.7199 26.2874 59.7257 26.3134 59.7363 26.3375C59.7469 26.3616 59.762 26.3833 59.7808 26.4013C59.7996 26.4194 59.8217 26.4336 59.8458 26.4429C59.8699 26.4523 59.8956 26.4566 59.9214 26.4558L61.1288 26.423C61.5263 26.4124 61.9041 26.2723 62.1794 26.0335C62.4546 25.7947 62.6046 25.4769 62.5965 25.1497L62.5925 25.0226C62.5883 24.8605 62.5454 24.7011 62.4661 24.5534C62.3869 24.4057 62.2728 24.2727 62.1306 24.1618C61.9883 24.051 61.8206 23.9646 61.6371 23.9076C61.4535 23.8505 61.2577 23.8239 61.0607 23.8293L59.8553 23.8621C59.8295 23.8626 59.8041 23.8684 59.7805 23.879C59.7569 23.8895 59.7355 23.9048 59.7177 23.9238C59.6998 23.9429 59.6858 23.9653 59.6764 23.9899C59.6671 24.0145 59.6625 24.0407 59.6631 24.0671Z" fill="#0ABAB5"/>
<path d="M65.4158 27.8471C65.4158 27.966 65.4745 28.0255 65.592 28.0255L68.3893 28.0357C68.4113 28.0359 68.4325 28.0433 68.4499 28.057C68.4673 28.0708 68.4797 28.0899 68.4854 28.1116L68.5015 28.1751C68.5076 28.1999 68.5085 28.2258 68.5041 28.2509C68.4997 28.2761 68.49 28.3 68.4758 28.321C68.4615 28.342 68.443 28.3596 68.4215 28.3726C68.4001 28.3857 68.3761 28.3939 68.3513 28.3966C67.2446 28.5169 66.1634 28.5278 65.1074 28.4294C65.0637 28.4253 65.0232 28.4046 64.9939 28.3715C64.9645 28.3385 64.9486 28.2954 64.9492 28.251L64.9753 23.6377C64.9755 23.6118 64.9808 23.5863 64.9907 23.5625C65.0006 23.5387 65.0149 23.5172 65.033 23.4991C65.051 23.481 65.0724 23.4667 65.0958 23.4571C65.1192 23.4474 65.1443 23.4426 65.1695 23.4429L68.1891 23.4818C68.2839 23.4832 68.3366 23.5331 68.3473 23.6315L68.3553 23.7094C68.357 23.7282 68.3548 23.7472 68.3491 23.7651C68.3433 23.7829 68.334 23.7994 68.3217 23.8133C68.3094 23.8272 68.2945 23.8382 68.2779 23.8458C68.2613 23.8533 68.2433 23.8572 68.2251 23.8571L65.576 23.8591C65.4585 23.8591 65.3998 23.9199 65.3998 24.0416L65.4158 27.8471Z" fill="#0ABAB5"/>
<path d="M36.161 24.6757H36.153C36.0446 24.6757 35.9567 24.7656 35.9567 24.8766V28.2679C35.9567 28.3789 36.0446 28.4689 36.153 28.4689H36.161C36.2693 28.4689 36.3572 28.3789 36.3572 28.2679V24.8766C36.3572 24.7656 36.2693 24.6757 36.161 24.6757Z" fill="#0ABAB5"/>
<path d="M46.1977 25.7107L44.0875 25.7484C43.9957 25.75 43.9226 25.8275 43.9242 25.9215L43.9248 25.9543C43.9264 26.0483 44.0021 26.1231 44.0939 26.1215L46.204 26.0838C46.2958 26.0821 46.3689 26.0046 46.3673 25.9106L46.3668 25.8778C46.3652 25.7839 46.2895 25.709 46.1977 25.7107Z" fill="#0ABAB5"/>
<path d="M67.8842 25.7257L65.7737 25.7106C65.6786 25.7099 65.601 25.7883 65.6003 25.8857L65.6002 25.9062C65.5995 26.0036 65.6761 26.0831 65.7712 26.0837L67.8816 26.0988C67.9767 26.0995 68.0544 26.0211 68.055 25.9237L68.0552 25.9032C68.0558 25.8058 67.9793 25.7263 67.8842 25.7257Z" fill="#0ABAB5"/>
<path d="M57.6345 36.9338C58.1591 37.1389 58.7652 37.2872 59.4526 37.3787C59.4867 37.3831 59.5181 37.4 59.5413 37.4263C59.5644 37.4526 59.5777 37.4866 59.5788 37.5223L59.5808 37.5817C59.5821 37.6173 59.5661 37.635 59.5327 37.635C57.4723 37.6412 55.4559 37.5223 53.4175 37.553C50.9345 37.5899 48.3835 37.5469 45.8645 37.6412C44.9407 37.6754 43.9729 37.6822 42.961 37.6617C42.9519 37.6613 42.943 37.6587 42.935 37.6541C42.927 37.6495 42.9202 37.6431 42.9151 37.6353C42.9101 37.6275 42.9069 37.6186 42.9058 37.6093C42.9047 37.6 42.9058 37.5905 42.909 37.5817L42.929 37.5305C42.9442 37.4915 42.9695 37.4576 43.0023 37.4323C43.0352 37.407 43.0742 37.3913 43.1152 37.3869C44.5636 37.2243 45.4847 36.7766 45.8785 36.0439C46.1455 35.5478 46.3197 35.0919 46.4011 34.6763C46.6694 33.3176 46.8009 31.8352 46.7956 30.2291C46.7955 30.1935 46.8088 30.1592 46.8326 30.1333C46.8564 30.1074 46.889 30.0918 46.9237 30.0897C47.2682 30.0651 47.5965 30.0521 47.9089 30.0507C50.3385 30.0357 52.8515 30.0295 55.4479 30.0322C55.6107 30.0322 55.6928 30.1156 55.6942 30.2824C55.7049 31.5755 55.8143 32.8925 56.0226 34.2335C56.1747 35.2176 56.6353 36.5442 57.6345 36.9338Z" fill="#0ABAB5"/>
<path d="M65.2496 39.397C65.2282 39.475 65.2009 39.5515 65.1675 39.6267C65.058 39.8796 64.9673 39.872 64.8952 39.6041C64.6028 38.4969 64.4506 37.3631 64.2644 36.2456C63.944 34.3087 63.615 32.3376 63.2773 30.3323C63.2452 30.1423 63.3233 30.0446 63.5115 30.0391C64.1303 30.0186 65.1635 29.8587 65.596 30.3672C68.083 33.2972 71.511 36.3973 75.1994 37.3364C75.8549 37.5045 76.6365 37.5647 77.5442 37.5168C78.6522 37.4608 79.7155 37.061 80.734 36.3174C81.7552 35.5731 82.372 34.4864 82.2899 33.1331C82.2178 31.9713 81.7913 31.0158 81.0103 30.2667C80.8502 30.1123 80.8802 30.035 81.1004 30.035L87.3198 30.0371C87.6602 30.0371 87.7891 30.2059 87.7063 30.5435C87.1697 32.7032 86.0083 34.4112 84.2222 35.6674C82.9834 36.5368 81.5723 37.1778 79.9891 37.5907C79.2182 37.7916 78.5014 38.0233 77.7124 38.0704C75.8515 38.1839 74.2009 38.1682 72.7605 38.0233C71.0452 37.8497 69.3264 37.7 67.6044 37.5743C66.9276 37.525 66.0145 37.6378 65.6601 38.3411C65.4812 38.6951 65.3444 39.0471 65.2496 39.397Z" fill="#0ABAB5"/>
<path d="M32.2743 37.6103C31.6749 37.6732 31.1543 37.6971 30.7125 37.6821C26.9093 37.5618 23.311 37.568 19.9176 37.7005C19.8095 37.706 19.704 37.6923 19.6012 37.6595C19.2995 37.5652 19.3029 37.4853 19.6112 37.4196C19.9657 37.3438 20.284 37.3089 20.6024 37.1162C21.5155 36.5653 22.2224 35.8518 22.7229 34.9756C23.5266 33.5677 24.0525 32.0401 24.3008 30.393C24.3128 30.3192 24.3462 30.2591 24.4009 30.2126C24.6893 29.9665 25.284 29.8866 25.4202 30.352C26.0783 32.6279 27.2517 34.504 28.9403 35.9803C29.8574 36.7813 31.0208 37.244 32.4305 37.3684C32.4369 37.3688 32.4431 37.3708 32.4486 37.3742C32.4541 37.3777 32.4588 37.3824 32.4621 37.388C32.4654 37.3937 32.4674 37.4 32.4678 37.4066C32.4683 37.4132 32.4671 37.4198 32.4645 37.4258L32.4425 37.4832C32.428 37.518 32.4048 37.5481 32.3752 37.5705C32.3456 37.5929 32.3107 37.6066 32.2743 37.6103Z" fill="#0ABAB5"/>
<path d="M59.7627 42.1541L59.3422 42.1518C59.2448 42.1513 59.1655 42.2317 59.165 42.3313L59.1639 42.5527C59.1634 42.6524 59.2419 42.7336 59.3392 42.7341L59.7597 42.7364C59.857 42.7369 59.9363 42.6565 59.9368 42.5569L59.9379 42.3355C59.9385 42.2358 59.86 42.1546 59.7627 42.1541Z" fill="#E30387"/>
<path d="M88.398 42.1416L88.0215 42.1403C87.9054 42.1399 87.811 42.2359 87.8105 42.3548L87.81 42.5065C87.8096 42.6254 87.9034 42.7222 88.0195 42.7226L88.396 42.7239C88.5121 42.7243 88.6066 42.6283 88.607 42.5094L88.6075 42.3577C88.6079 42.2388 88.5141 42.142 88.398 42.1416Z" fill="#E30387"/>
<path d="M96.2502 42.1598L95.7137 42.1482C95.6462 42.1468 95.5904 42.2016 95.589 42.2707L95.5827 42.5782C95.5813 42.6472 95.6348 42.7044 95.7023 42.7058L96.2388 42.7173C96.3062 42.7188 96.362 42.664 96.3635 42.5949L96.3698 42.2874C96.3712 42.2184 96.3176 42.1612 96.2502 42.1598Z" fill="#E30387"/>
<path d="M54.003 42.1833L53.6355 42.1569C53.5351 42.1497 53.448 42.2273 53.441 42.3301L53.4276 42.5264C53.4206 42.6292 53.4963 42.7184 53.5967 42.7256L53.9642 42.7519C54.0646 42.7591 54.1517 42.6816 54.1587 42.5788L54.1721 42.3824C54.1791 42.2796 54.1034 42.1904 54.003 42.1833Z" fill="#E30387"/>
<path d="M53.3814 47.0641L53.3894 43.1622C53.3893 43.1214 53.4034 43.082 53.429 43.0508C53.4547 43.0196 53.4903 42.9988 53.5296 42.992L54.0142 42.91C54.0381 42.9059 54.0627 42.9071 54.0862 42.9136C54.1097 42.9201 54.1315 42.9318 54.1501 42.9477C54.1688 42.9637 54.1838 42.9837 54.1942 43.0062C54.2046 43.0287 54.2102 43.0532 54.2104 43.0781L54.2444 47.0518C54.245 47.0971 54.228 47.1408 54.1973 47.1734C54.1666 47.2061 54.1245 47.225 54.0802 47.226L53.5536 47.2363C53.5312 47.2368 53.5089 47.2328 53.488 47.2244C53.4671 47.216 53.4481 47.2034 53.4321 47.1873C53.416 47.1713 53.4033 47.1521 53.3946 47.1309C53.3859 47.1098 53.3814 47.087 53.3814 47.0641Z" fill="#E30387"/>
<path d="M9.00492 45.1202C8.99023 44.8824 8.94885 44.8776 8.88077 45.1059C8.78599 45.4202 8.6812 45.7285 8.5664 46.0306C8.5397 46.1003 8.49031 46.1379 8.41822 46.1433C8.38412 46.1457 8.35017 46.1368 8.32135 46.118C8.29253 46.0992 8.27034 46.0714 8.25803 46.0388C8.15524 45.7599 8.0351 45.4865 7.8976 45.2186C7.76544 44.963 7.70137 44.9801 7.70537 45.2699L7.7314 47.0106C7.73407 47.1692 7.65798 47.2499 7.50313 47.2526L7.10866 47.2608C7.08203 47.2613 7.05556 47.2564 7.0308 47.2464C7.00605 47.2363 6.9835 47.2213 6.96448 47.2022C6.94546 47.1831 6.93035 47.1603 6.92004 47.1352C6.90972 47.11 6.90441 47.083 6.90442 47.0558L6.90642 43.1621C6.90628 43.1213 6.91968 43.0816 6.94441 43.0496C6.96914 43.0175 7.00375 42.995 7.04258 42.9858C7.2228 42.9434 7.39901 42.9434 7.57121 42.9858C7.65665 43.0063 7.71605 43.0582 7.74942 43.1416L8.27805 44.4477C8.36349 44.6596 8.44759 44.6589 8.53035 44.4456L9.03896 43.1231C9.05186 43.0892 9.07296 43.0592 9.10027 43.0359C9.12759 43.0126 9.16023 42.9967 9.19514 42.9899C9.37402 42.9571 9.56492 42.9564 9.76782 42.9878C9.80744 42.9942 9.84354 43.0148 9.86961 43.046C9.89568 43.0772 9.91 43.1169 9.90999 43.158L9.914 46.9901C9.91415 47.0281 9.90655 47.0657 9.89169 47.1005C9.87683 47.1353 9.85503 47.1665 9.8277 47.1922C9.80037 47.2179 9.7681 47.2374 9.73296 47.2496C9.69782 47.2618 9.66059 47.2663 9.62365 47.2628L9.29927 47.2341C9.09636 47.2164 9.00024 47.1036 9.01092 46.8958C9.04029 46.2684 9.03829 45.6765 9.00492 45.1202Z" fill="#E30387"/>
<path d="M11.3235 43.5621C11.5823 43.5584 11.7902 43.4223 11.788 43.2581C11.7858 43.0939 11.5742 42.9638 11.3154 42.9675C11.0567 42.9712 10.8487 43.1073 10.851 43.2715C10.8532 43.4357 11.0648 43.5658 11.3235 43.5621Z" fill="#E30387"/>
<path d="M13.7565 46.2348C13.8133 46.1507 13.8365 46.0476 13.8212 45.9468C13.8059 45.846 13.7534 45.7553 13.6744 45.6935C13.2679 45.3716 12.7533 45.0477 12.6492 44.4941C12.5731 44.099 12.5978 43.7491 12.7233 43.4443C12.9595 42.862 13.9828 42.9173 14.4313 43.0711C14.4733 43.0854 14.5095 43.1134 14.5345 43.1508C14.5594 43.1882 14.5717 43.233 14.5695 43.2782L14.5514 43.6411C14.5448 43.7846 14.4727 43.8414 14.3352 43.8113C14.0328 43.7416 13.6123 43.6596 13.4601 44.0389C13.4346 44.103 13.4282 44.1735 13.4418 44.2414C13.4553 44.3092 13.4882 44.3715 13.5362 44.4202C13.9307 44.8201 14.6015 45.2076 14.6716 45.8043C14.8298 47.1554 13.7965 47.4753 12.7473 47.1534C12.6271 47.1165 12.5671 47.0331 12.5671 46.9033V46.5506C12.5684 46.4153 12.6338 46.3613 12.7633 46.3886C13.0777 46.4522 13.5382 46.5567 13.7565 46.2348Z" fill="#E30387"/>
<path d="M16.6018 46.4739L17.4608 46.4514C17.4837 46.4508 17.5065 46.4549 17.5278 46.4634C17.5491 46.4718 17.5687 46.4845 17.5852 46.5007C17.6018 46.5169 17.615 46.5363 17.6243 46.5577C17.6335 46.5791 17.6385 46.6022 17.639 46.6257L17.6511 47.0644C17.6516 47.088 17.6475 47.1115 17.6392 47.1335C17.6308 47.1555 17.6182 47.1755 17.6022 47.1925C17.5862 47.2095 17.567 47.223 17.5458 47.2324C17.5247 47.2417 17.5019 47.2467 17.4789 47.2469L15.8269 47.2613C15.804 47.2616 15.7813 47.2572 15.7601 47.2485C15.7388 47.2398 15.7195 47.2269 15.7031 47.2105C15.6868 47.1941 15.6737 47.1746 15.6647 47.1531C15.6557 47.1315 15.6509 47.1084 15.6507 47.085L15.6166 43.1482C15.6166 43.1009 15.635 43.0555 15.6677 43.0221C15.7003 42.9886 15.7446 42.9698 15.7908 42.9698L17.4668 42.978C17.513 42.978 17.5574 42.9968 17.59 43.0303C17.6227 43.0638 17.641 43.1091 17.641 43.1564L17.6451 43.5481C17.6456 43.594 17.6289 43.6384 17.5983 43.672C17.5677 43.7056 17.5256 43.7259 17.4809 43.7285L16.6138 43.7797C16.5724 43.7825 16.5332 43.8003 16.5035 43.83C16.4738 43.8597 16.4554 43.8994 16.4516 43.9417L16.4136 44.399C16.4117 44.4231 16.4146 44.4473 16.4221 44.4702C16.4296 44.4931 16.4416 44.5142 16.4573 44.5323C16.4731 44.5503 16.4922 44.5648 16.5136 44.5751C16.535 44.5853 16.5582 44.5909 16.5818 44.5917L17.3787 44.6245C17.4229 44.6266 17.4646 44.6457 17.4954 44.6781C17.5263 44.7104 17.544 44.7536 17.5449 44.7988L17.5509 45.2191C17.5515 45.243 17.5473 45.2669 17.5387 45.2891C17.53 45.3114 17.5171 45.3316 17.5007 45.3486C17.4842 45.3657 17.4646 45.3791 17.443 45.3882C17.4213 45.3973 17.3981 45.4019 17.3747 45.4016L16.6399 45.3954C16.5953 45.3954 16.5525 45.4127 16.5201 45.444C16.4877 45.4753 16.4682 45.5181 16.4656 45.5636L16.4236 46.2833C16.4219 46.308 16.4253 46.3329 16.4336 46.3563C16.4418 46.3797 16.4547 46.401 16.4715 46.4189C16.4883 46.4369 16.5086 46.4511 16.531 46.4605C16.5534 46.47 16.5776 46.4746 16.6018 46.4739Z" fill="#E30387"/>
<path d="M19.6534 46.2091L19.2529 47.1933C19.2469 47.2082 19.2366 47.2209 19.2233 47.2297C19.2101 47.2385 19.1946 47.2429 19.1788 47.2425L18.51 47.2302C18.4974 47.2301 18.4851 47.2268 18.4739 47.2207C18.4628 47.2146 18.4533 47.2059 18.4463 47.1952C18.4392 47.1845 18.4347 47.1722 18.4333 47.1594C18.4318 47.1466 18.4334 47.1336 18.438 47.1216L19.1768 45.1511C19.1831 45.1324 19.1824 45.112 19.1748 45.0937L18.3879 43.0967C18.383 43.0845 18.381 43.0713 18.3823 43.0582C18.3835 43.0451 18.3879 43.0325 18.395 43.0216C18.4021 43.0106 18.4118 43.0016 18.4231 42.9954C18.4345 42.9892 18.4471 42.9859 18.46 42.9859L19.1869 42.9716C19.2034 42.9711 19.2197 42.9759 19.2334 42.9855C19.2471 42.9951 19.2574 43.0089 19.2629 43.0249L19.6394 44.0665C19.645 44.0817 19.655 44.0948 19.668 44.1041C19.6811 44.1133 19.6966 44.1183 19.7125 44.1183C19.7284 44.1183 19.7439 44.1133 19.7569 44.1041C19.77 44.0948 19.78 44.0817 19.7856 44.0665L20.172 43.0495C20.1775 43.0349 20.1871 43.0222 20.1995 43.0131C20.212 43.004 20.2268 42.9988 20.2421 42.9983L20.977 42.9798C20.99 42.9795 21.0029 42.9825 21.0145 42.9885C21.0261 42.9946 21.0361 43.0035 21.0434 43.0145C21.0508 43.0255 21.0553 43.0383 21.0567 43.0515C21.058 43.0648 21.0561 43.0782 21.0511 43.0905L20.2421 45.104C20.2381 45.1137 20.2361 45.1242 20.2361 45.1347C20.2361 45.1453 20.2381 45.1558 20.2421 45.1655L21.021 47.138C21.0261 47.1503 21.028 47.1637 21.0266 47.1769C21.0253 47.1902 21.0207 47.2029 21.0134 47.2139C21.006 47.2249 20.9961 47.2339 20.9845 47.24C20.9729 47.246 20.96 47.249 20.9469 47.2487L20.2862 47.2343C20.2713 47.2341 20.2568 47.2296 20.2444 47.2212C20.232 47.2128 20.2222 47.201 20.2161 47.1872L19.7976 46.2091C19.7917 46.1946 19.7816 46.1821 19.7688 46.1734C19.756 46.1646 19.7409 46.1599 19.7255 46.1599C19.7101 46.1599 19.695 46.1646 19.6822 46.1734C19.6693 46.1821 19.6593 46.1946 19.6534 46.2091Z" fill="#E30387"/>
<path d="M22.7513 46.1535L22.7533 47.0146C22.7533 47.1773 22.6745 47.2586 22.517 47.2586L22.1285 47.2607C21.963 47.2607 21.8796 47.1759 21.8782 47.0064L21.8702 43.1538C21.8701 43.1102 21.8862 43.0681 21.9152 43.0362C21.9442 43.0042 21.9839 42.9847 22.0264 42.9816C22.4249 42.9529 22.8194 42.9775 23.2178 42.9857C23.8399 42.9966 24.1877 43.326 24.2611 43.9739C24.3185 44.4742 24.2851 44.9397 24.161 45.3702C23.9767 46.012 23.3941 45.9854 22.8754 46.0182C22.8418 46.0203 22.8102 46.0354 22.7871 46.0606C22.764 46.0857 22.7512 46.119 22.7513 46.1535ZM22.7793 43.9001L22.7533 45.0811C22.7528 45.1008 22.756 45.1204 22.7629 45.1387C22.7697 45.1571 22.7801 45.1739 22.7933 45.1882C22.8065 45.2025 22.8223 45.214 22.8398 45.222C22.8574 45.23 22.8763 45.2344 22.8955 45.2349H22.9255C23.0602 45.2378 23.1906 45.179 23.2882 45.0713C23.3858 44.9637 23.4426 44.8161 23.4461 44.6608L23.4541 44.3533C23.4559 44.2761 23.4445 44.1994 23.4204 44.1275C23.3964 44.0556 23.3603 43.99 23.3142 43.9344C23.2681 43.8788 23.2128 43.8343 23.1516 43.8034C23.0904 43.7725 23.0244 43.7559 22.9575 43.7545H22.9275C22.8891 43.754 22.852 43.769 22.8242 43.7962C22.7965 43.8235 22.7804 43.8608 22.7793 43.9001Z" fill="#E30387"/>
<path d="M26.1913 45.9751C26.1789 45.9637 26.1633 45.9567 26.1467 45.955C26.1302 45.9534 26.1135 45.9572 26.0992 45.9659C26.0849 45.9746 26.0737 45.9877 26.0672 46.0034C26.0607 46.0191 26.0593 46.0365 26.0631 46.053C26.1419 46.3784 26.1565 46.7085 26.1072 47.0434C26.1006 47.0883 26.0814 47.1302 26.0518 47.1637C26.0222 47.1973 25.9836 47.2211 25.941 47.232C25.7607 47.2785 25.5779 47.2846 25.3923 47.2504C25.3055 47.2354 25.2621 47.1828 25.2621 47.0926L25.2641 43.0595C25.2641 43.0337 25.274 43.009 25.2916 42.9906C25.3092 42.9722 25.3331 42.9616 25.3583 42.9611C25.8055 42.9542 26.2607 42.9665 26.7239 42.998C27.8552 43.0738 27.7811 44.5788 27.5188 45.36C27.4868 45.4529 27.4341 45.5309 27.3606 45.5937L27.1704 45.7598C27.0957 45.8241 27.0796 45.9006 27.1224 45.9895L27.6009 46.9921C27.685 47.1698 27.631 47.2566 27.4387 47.2525L27.0363 47.2443C26.8667 47.2402 26.7533 47.1568 26.6959 46.9941C26.5917 46.6907 26.4315 46.2007 26.1913 45.9751ZM26.1252 43.896L26.1011 44.9704C26.1006 44.9904 26.1039 45.0102 26.1109 45.0288C26.1178 45.0474 26.1283 45.0645 26.1417 45.0789C26.1551 45.0934 26.1711 45.105 26.1889 45.1132C26.2067 45.1213 26.2259 45.1257 26.2453 45.1263L26.3595 45.1283C26.4181 45.1298 26.4766 45.1177 26.5314 45.0928C26.5862 45.0679 26.6364 45.0307 26.6789 44.9833C26.7215 44.9359 26.7557 44.8792 26.7796 44.8165C26.8035 44.7537 26.8165 44.6862 26.818 44.6178L26.826 44.2815C26.8291 44.1435 26.785 44.01 26.7035 43.9104C26.6221 43.8109 26.5098 43.7533 26.3915 43.7505L26.2774 43.7484C26.2579 43.7479 26.2385 43.7512 26.2203 43.7584C26.2022 43.7655 26.1855 43.7762 26.1714 43.7899C26.1573 43.8036 26.1459 43.8201 26.138 43.8383C26.13 43.8565 26.1257 43.8761 26.1252 43.896Z" fill="#E30387"/>
<path d="M29.4371 45.5836L29.4311 46.2746C29.4308 46.298 29.4351 46.3212 29.4436 46.343C29.4521 46.3647 29.4647 46.3845 29.4807 46.4013C29.4967 46.4181 29.5157 46.4314 29.5368 46.4406C29.5578 46.4498 29.5804 46.4547 29.6033 46.455L30.4783 46.4591C30.5228 46.4596 30.5655 46.4775 30.5975 46.5091C30.6295 46.5408 30.6485 46.5838 30.6505 46.6293L30.6705 47.0435C30.6716 47.0672 30.668 47.091 30.66 47.1133C30.652 47.1356 30.6397 47.1561 30.6238 47.1735C30.608 47.1908 30.5889 47.2048 30.5677 47.2145C30.5465 47.2242 30.5236 47.2295 30.5003 47.23L28.7963 47.2608C28.7733 47.2611 28.7504 47.2566 28.729 47.2478C28.7077 47.239 28.6882 47.2259 28.6718 47.2093C28.6554 47.1927 28.6424 47.1729 28.6336 47.1511C28.6247 47.1294 28.6201 47.106 28.6201 47.0824L28.6181 43.1334C28.6181 43.1096 28.6227 43.0861 28.6317 43.0642C28.6407 43.0422 28.6539 43.0224 28.6705 43.0058C28.6871 42.9892 28.7068 42.9761 28.7284 42.9674C28.75 42.9587 28.7731 42.9545 28.7963 42.955L30.4883 43.0001C30.5119 43.0006 30.5352 43.006 30.5566 43.016C30.5781 43.0259 30.5974 43.0403 30.6133 43.0581C30.6292 43.0759 30.6415 43.0969 30.6492 43.1197C30.657 43.1425 30.6602 43.1667 30.6585 43.1908L30.6285 43.5783C30.6251 43.6217 30.6063 43.6624 30.5757 43.6926C30.5451 43.7228 30.5048 43.7405 30.4623 43.7423L29.5893 43.7752C29.5441 43.7767 29.5013 43.7962 29.4699 43.8295C29.4386 43.8628 29.421 43.9073 29.4211 43.9535L29.4231 44.4292C29.4231 44.4762 29.4411 44.5212 29.4734 44.5546C29.5056 44.588 29.5494 44.6071 29.5953 44.6076L30.3562 44.6199C30.4017 44.6204 30.4452 44.6392 30.4774 44.6721C30.5095 44.7051 30.5279 44.7496 30.5284 44.7962L30.5304 45.2104C30.5309 45.2574 30.5133 45.3027 30.4815 45.3364C30.4496 45.3702 30.406 45.3898 30.3602 45.3909L29.6073 45.4073C29.5621 45.4083 29.5191 45.4273 29.4874 45.4602C29.4556 45.4931 29.4376 45.5373 29.4371 45.5836Z" fill="#E30387"/>
<path d="M32.5546 44.4702C33.0773 44.9459 33.698 45.3334 33.6459 46.1659C33.5738 47.2813 32.5646 47.3469 31.7236 47.1787C31.5715 47.15 31.494 47.0564 31.4914 46.8978L31.4854 46.5841C31.4846 46.5535 31.4908 46.5231 31.5036 46.4954C31.5164 46.4677 31.5355 46.4435 31.5592 46.4246C31.5829 46.4056 31.6107 46.3926 31.6403 46.3865C31.6699 46.3804 31.7005 46.3814 31.7296 46.3893C32.038 46.4755 32.5066 46.537 32.7128 46.213C32.7611 46.1368 32.7806 46.0451 32.7677 45.955C32.7548 45.8649 32.7104 45.7825 32.6427 45.723C31.9039 45.0751 31.145 44.5174 31.7036 43.3712C31.9599 42.8422 32.9551 42.9324 33.3816 43.0554C33.455 43.0773 33.4924 43.1272 33.4937 43.2051L33.5018 43.7218C33.5021 43.7384 33.4986 43.7549 33.4915 43.7698C33.4845 43.7848 33.474 43.7979 33.461 43.8081C33.4479 43.8182 33.4327 43.8252 33.4165 43.8284C33.4003 43.8315 33.3835 43.8309 33.3676 43.8264C33.1487 43.7621 32.9398 43.745 32.7408 43.7751C32.4165 43.8223 32.3043 44.2426 32.5546 44.4702Z" fill="#E30387"/>
<path d="M35.5763 43.8103C35.5125 43.8357 35.4562 43.8776 35.4128 43.9318C35.3694 43.986 35.3404 44.0507 35.3285 44.1197C35.3166 44.1887 35.3223 44.2597 35.345 44.3258C35.3677 44.3919 35.4067 44.451 35.4581 44.4972C36.0448 45.0221 36.6716 45.3645 36.5414 46.3159C36.4013 47.3267 35.2779 47.4292 34.533 47.1073C34.4636 47.0772 34.4216 47.0246 34.4069 46.9494C34.3815 46.8223 34.3795 46.6993 34.4009 46.5804C34.4289 46.4232 34.5197 46.3623 34.6732 46.3979C35.0216 46.4799 35.7685 46.5147 35.7024 45.9488C35.6957 45.8928 35.6724 45.8456 35.6323 45.8074C35.2879 45.4752 34.7633 45.1717 34.5891 44.7227C34.4436 44.3523 34.4336 43.9443 34.5591 43.4986C34.7333 42.8774 35.7565 42.9266 36.215 43.0148C36.3285 43.0366 36.3866 43.1063 36.3892 43.2239L36.3973 43.6688C36.3999 43.7836 36.3472 43.8281 36.2391 43.8021C35.9667 43.7406 35.7458 43.7433 35.5763 43.8103Z" fill="#E30387"/>
<path d="M42.3124 44.6098L43.1134 44.6283C43.1357 44.6288 43.1577 44.6339 43.1782 44.6431C43.1987 44.6524 43.2171 44.6657 43.2326 44.6822C43.248 44.6988 43.2601 44.7183 43.2682 44.7397C43.2762 44.761 43.2801 44.7838 43.2796 44.8067L43.2716 45.229C43.2705 45.2749 43.2518 45.3185 43.2196 45.3504C43.1874 45.3822 43.1442 45.3998 43.0994 45.3992L42.3324 45.3951C42.2876 45.3951 42.2447 45.4132 42.2128 45.4454C42.1809 45.4777 42.1628 45.5215 42.1622 45.5674L42.1482 46.2932C42.148 46.3164 42.1522 46.3395 42.1608 46.361C42.1693 46.3825 42.182 46.4021 42.1981 46.4185C42.2141 46.4349 42.2332 46.4479 42.2542 46.4567C42.2752 46.4654 42.2977 46.4698 42.3204 46.4695L43.1794 46.4613C43.2236 46.4607 43.2662 46.4777 43.2983 46.5087C43.3305 46.5397 43.3496 46.5823 43.3516 46.6274L43.3737 47.0723C43.3748 47.0959 43.3712 47.1195 43.3631 47.1416C43.355 47.1637 43.3427 47.1838 43.3267 47.2009C43.3108 47.218 43.2917 47.2315 43.2705 47.2408C43.2493 47.2501 43.2265 47.2548 43.2035 47.2548L41.5135 47.2569C41.4683 47.2569 41.425 47.2385 41.3931 47.2058C41.3612 47.1731 41.3433 47.1288 41.3433 47.0826L41.3493 43.1582C41.3493 43.1353 41.3537 43.1126 41.3622 43.0915C41.3708 43.0703 41.3833 43.0511 41.3991 43.0349C41.4149 43.0187 41.4337 43.0059 41.4543 42.9972C41.475 42.9884 41.4971 42.9839 41.5195 42.9839L43.2055 42.99C43.2289 42.9902 43.252 42.9954 43.2734 43.0051C43.2948 43.0149 43.314 43.0291 43.3297 43.0468C43.3455 43.0645 43.3576 43.0854 43.3651 43.108C43.3727 43.1307 43.3756 43.1548 43.3737 43.1787L43.3416 43.5785C43.3378 43.6208 43.3189 43.6602 43.2887 43.6892C43.2585 43.7183 43.2189 43.7351 43.1774 43.7364L42.3224 43.7651C42.279 43.7666 42.2378 43.7851 42.2073 43.8168C42.1768 43.8484 42.1592 43.8908 42.1582 43.9353L42.1462 44.4315C42.1457 44.4543 42.1496 44.4771 42.1576 44.4985C42.1657 44.5198 42.1778 44.5393 42.1932 44.5559C42.2087 44.5725 42.2271 44.5858 42.2476 44.595C42.268 44.6043 42.2901 44.6093 42.3124 44.6098Z" fill="#E30387"/>
<path d="M45.1657 44.05C45.159 44.4272 45.2411 44.4484 45.412 44.1135L45.8465 43.2626C45.9333 43.0918 46.0708 43.0015 46.259 42.992L46.5173 42.9797C46.771 42.9674 46.8377 43.0747 46.7176 43.3016C46.5293 43.657 46.3331 44.0295 46.1289 44.419C45.9747 44.7122 45.8746 45.0157 46.0267 45.3335C46.3057 45.9199 46.5594 46.4926 46.7876 47.0517C46.841 47.1802 46.7997 47.2451 46.6635 47.2465L46.215 47.2506C46.1465 47.2512 46.0794 47.2313 46.0218 47.1934C45.9642 47.1555 45.9186 47.1013 45.8906 47.0374L45.428 45.9794C45.2465 45.5625 45.1604 45.5823 45.1697 46.0388L45.1877 46.9656C45.1894 47.0355 45.1644 47.1033 45.118 47.1546C45.0717 47.2059 45.0076 47.2366 44.9394 47.2403L44.563 47.2608C44.3935 47.2704 44.3087 47.1884 44.3087 47.0148L44.3047 43.2032C44.3047 43.0268 44.3901 42.9434 44.561 42.953L44.9234 42.9756C45.097 42.9851 45.1817 43.0788 45.1777 43.2565L45.1657 44.05Z" fill="#E30387"/>
<path d="M48.5997 46.3693C48.6544 46.344 48.7023 46.3054 48.7392 46.2569C48.7762 46.2084 48.801 46.1514 48.8117 46.0909C48.8223 46.0304 48.8184 45.9681 48.8003 45.9094C48.7822 45.8508 48.7505 45.7975 48.7078 45.7542C48.5343 45.5779 48.3507 45.4159 48.1572 45.2683C47.5925 44.8398 47.4403 44.1242 47.7106 43.4578C47.9529 42.855 48.852 42.9514 49.3846 43.0108C49.5008 43.0245 49.5582 43.0915 49.5568 43.2118L49.5468 43.7059C49.5466 43.7238 49.5426 43.7413 49.5349 43.7574C49.5271 43.7734 49.516 43.7875 49.5022 43.7987C49.4884 43.8099 49.4724 43.8178 49.4551 43.822C49.4379 43.8261 49.42 43.8264 49.4026 43.8228C49.2451 43.79 49.0876 43.7681 48.9301 43.7572C48.4155 43.7203 48.3414 44.2677 48.6798 44.5548C49.1904 44.9894 49.7491 45.3913 49.687 46.1705C49.5949 47.3187 48.6397 47.3269 47.7807 47.1813C47.5992 47.1512 47.5124 47.0419 47.5204 46.8532L47.5304 46.5949C47.5384 46.409 47.6292 46.342 47.8027 46.3939C48.1058 46.4828 48.3714 46.4746 48.5997 46.3693Z" fill="#E30387"/>
<path d="M50.8646 43.761L50.5382 43.7446C50.4167 43.7392 50.3533 43.6736 50.348 43.5478L50.3339 43.2197C50.3286 43.0912 50.388 43.0195 50.5122 43.0045C51.0888 42.9334 51.7063 42.9293 52.3644 42.9921C52.4405 42.999 52.4845 43.0407 52.4965 43.1172C52.5579 43.5068 52.3964 43.7234 52.0119 43.7672C51.9717 43.7717 51.9344 43.7915 51.9071 43.8228C51.8798 43.8542 51.8644 43.8949 51.8638 43.9374L51.8317 47.0191C51.8307 47.0822 51.8056 47.1424 51.7618 47.1868C51.7181 47.2312 51.6591 47.2564 51.5975 47.2569L51.1649 47.259C51.0688 47.259 51.0208 47.2098 51.0208 47.1114L51.0248 43.9333C51.0248 43.8239 50.9714 43.7665 50.8646 43.761Z" fill="#E30387"/>
<path d="M57.0959 46.6207L57.1339 47.0697C57.1356 47.0896 57.1332 47.1096 57.1269 47.1284C57.1206 47.1473 57.1105 47.1646 57.0974 47.1792C57.0842 47.1939 57.0682 47.2056 57.0503 47.2136C57.0325 47.2215 57.0132 47.2256 56.9937 47.2255L55.4579 47.2358C55.4211 47.2358 55.3857 47.221 55.3595 47.1945C55.3333 47.168 55.3183 47.132 55.3178 47.0943L55.2977 43.0899C55.2977 43.0704 55.3016 43.051 55.3091 43.033C55.3166 43.0151 55.3277 42.9989 55.3416 42.9854C55.3555 42.972 55.3719 42.9616 55.3898 42.9549C55.4077 42.9482 55.4268 42.9453 55.4459 42.9464L56.0026 42.9731C56.0383 42.9746 56.0722 42.9902 56.0971 43.0165C56.1221 43.0428 56.1362 43.0779 56.1367 43.1145L56.1828 46.3541C56.183 46.373 56.1869 46.3916 56.1942 46.4089C56.2015 46.4262 56.212 46.4419 56.2252 46.455C56.2385 46.4682 56.2541 46.4785 56.2712 46.4855C56.2883 46.4924 56.3065 46.4959 56.325 46.4956L56.9557 46.4895C56.9909 46.4893 57.0248 46.5027 57.0508 46.527C57.0768 46.5514 57.0929 46.5848 57.0959 46.6207Z" fill="#E30387"/>
<path d="M59.7953 42.9563L59.2947 42.9572C59.1962 42.9574 59.1166 43.0392 59.1168 43.14L59.1235 47.0767C59.1236 47.1775 59.2036 47.2591 59.302 47.2589L59.8026 47.258C59.901 47.2578 59.9807 47.176 59.9805 47.0752L59.9738 43.1385C59.9736 43.0377 59.8937 42.9561 59.7953 42.9563Z" fill="#E30387"/>
<path d="M62.7445 44.7659C62.7205 44.241 62.7125 43.7141 62.7205 43.1851C62.721 43.1555 62.7273 43.1263 62.7391 43.0993C62.7509 43.0722 62.7679 43.048 62.7891 43.028C62.8103 43.0081 62.8352 42.9928 62.8623 42.9831C62.8894 42.9735 62.9182 42.9696 62.9467 42.9719L63.3933 43.0067C63.4961 43.0149 63.5475 43.0723 63.5475 43.179L63.5294 47.0583C63.5294 47.1621 63.4787 47.2161 63.3773 47.2202C63.0509 47.2346 62.7505 47.3945 62.6083 46.9598C62.4188 46.383 62.2132 45.8602 61.9916 45.3913C61.8394 45.0715 61.7753 45.0892 61.7994 45.4446C61.8314 45.9381 61.8314 46.452 61.7994 46.9865C61.79 47.1697 61.6959 47.2606 61.517 47.2592L61.2647 47.2572C61.0952 47.2572 61.0104 47.1704 61.0104 46.9968V43.1133C61.0104 43.03 61.0505 42.9814 61.1306 42.9678C61.3241 42.9363 61.5084 42.9527 61.6832 43.017C61.7567 43.0443 61.8087 43.0956 61.8394 43.1708L62.5002 44.8213C62.6844 45.2847 62.7659 45.2662 62.7445 44.7659Z" fill="#E30387"/>
<path d="M65.5861 47.4994C65.5701 47.3818 65.5053 47.3149 65.3919 47.2984C65.1062 47.2561 64.8125 47.1952 64.5108 47.116C64.4174 47.0914 64.3747 47.0299 64.3827 46.9314L64.4147 46.5337C64.424 46.4161 64.4841 46.371 64.5949 46.3983C64.966 46.4899 65.2484 46.4824 65.4419 46.3758C65.5028 46.3422 65.5545 46.2934 65.592 46.2339C65.6296 46.1745 65.6518 46.1063 65.6566 46.0358C65.6614 45.9653 65.6486 45.8948 65.6195 45.8309C65.5903 45.767 65.5458 45.7118 65.49 45.6705C64.7311 45.1087 64.1364 44.4792 64.5729 43.4171C64.7952 42.8799 65.7022 42.9394 66.1868 43.0152C66.3537 43.0412 66.4344 43.1403 66.4291 43.3125L66.4191 43.618C66.4137 43.8149 66.3203 43.8805 66.1387 43.8149C65.9118 43.7315 65.7102 43.7322 65.534 43.8169C65.4802 43.843 65.4331 43.8816 65.3965 43.9297C65.3599 43.9779 65.3348 44.0341 65.3233 44.0939C65.3118 44.1538 65.3142 44.2155 65.3303 44.2743C65.3464 44.333 65.3757 44.387 65.4159 44.432C65.7663 44.8216 66.307 45.084 66.4671 45.5966C66.6413 46.1625 66.5592 46.9294 65.9325 47.1631C65.8417 47.1959 65.8117 47.2595 65.8424 47.3538C65.8771 47.4604 65.9305 47.5609 66.0026 47.6552C66.0245 47.6841 66.0385 47.7184 66.0434 47.7546C66.0484 47.7908 66.0439 47.8278 66.0306 47.8618C66.0173 47.8959 65.9955 47.926 65.9675 47.9491C65.9394 47.9722 65.906 47.9875 65.8704 47.9935L65.3078 48.0899C65.229 48.1036 65.1749 48.0728 65.1456 47.9976C65.1175 47.9211 65.1195 47.8466 65.1516 47.7741C65.1783 47.7167 65.221 47.6778 65.2797 47.6573C65.3438 47.6354 65.4092 47.6251 65.476 47.6265C65.5601 47.6279 65.5968 47.5855 65.5861 47.4994Z" fill="#E30387"/>
<path d="M68.2231 46.5596L68.1671 47.0497C68.1606 47.1076 68.1334 47.161 68.0908 47.1993C68.0482 47.2376 67.9932 47.2581 67.9368 47.2567L67.5323 47.2506C67.3735 47.2479 67.308 47.1665 67.3361 47.0066L68.0449 43.1047C68.0623 43.005 68.1203 42.9571 68.2191 42.9612C68.4381 42.9694 68.6677 42.966 68.908 42.951C69.1589 42.9359 69.3044 43.0562 69.3445 43.3118C69.5394 44.5571 69.7723 45.8003 70.0433 47.0415C70.074 47.1877 70.0166 47.2602 69.8711 47.2588L69.4446 47.2547C69.2911 47.2533 69.2043 47.1741 69.1843 47.0169L69.1242 46.5719C69.1109 46.4749 69.0561 46.4263 68.96 46.4263L68.3633 46.4304C68.2792 46.4304 68.2325 46.4735 68.2231 46.5596ZM68.5335 45.678H68.8218C68.8447 45.678 68.8666 45.6687 68.8827 45.6521C68.8989 45.6356 68.908 45.6132 68.908 45.5898V45.5713C68.9086 45.3676 68.9039 45.1659 68.894 44.9777C68.8841 44.7896 68.8692 44.6188 68.8502 44.4751C68.8312 44.3314 68.8085 44.2177 68.7834 44.1406C68.7582 44.0634 68.7312 44.0242 68.7037 44.0254H68.6597C68.6046 44.0276 68.5514 44.1915 68.5116 44.4812C68.4719 44.7709 68.4488 45.1628 68.4474 45.5713V45.5898C68.4474 45.6132 68.4565 45.6356 68.4726 45.6521C68.4888 45.6687 68.5107 45.678 68.5335 45.678Z" fill="#E30387"/>
<path d="M71.7374 46.5351C71.6773 46.6759 71.6453 46.829 71.6412 46.9944C71.6386 47.1721 71.5505 47.2616 71.3769 47.263H71.0145C70.8316 47.263 70.7575 47.1707 70.7922 46.9862L71.5011 43.1479C71.512 43.0899 71.5432 43.038 71.5887 43.0015C71.6343 42.965 71.6913 42.9463 71.7494 42.949L72.6364 42.9961C72.7058 43.0002 72.7466 43.0371 72.7586 43.1069L73.4594 46.9903C73.4834 47.1229 73.43 47.1974 73.2992 47.2138L72.8907 47.265C72.8608 47.2687 72.8305 47.2663 72.8016 47.2578C72.7726 47.2494 72.7456 47.2351 72.7221 47.2158C72.6986 47.1965 72.6791 47.1726 72.6647 47.1455C72.6504 47.1184 72.6414 47.0886 72.6384 47.0579L72.5984 46.6458C72.5904 46.5624 72.549 46.5036 72.4742 46.4695C72.286 46.3834 72.0844 46.3676 71.8695 46.4223C71.8081 46.4374 71.7641 46.4749 71.7374 46.5351ZM72.4022 45.432C72.3261 44.985 72.294 44.5257 72.2079 44.0931C72.2052 44.0781 72.1986 44.0651 72.1879 44.0541C72.1746 44.0391 72.1539 44.0336 72.1258 44.0377C72.0858 44.0459 72.0644 44.0712 72.0617 44.1136C72.0351 44.5387 71.961 44.972 71.8395 45.4135C71.8181 45.4942 71.8415 45.5571 71.9096 45.6022C71.9963 45.6582 72.0965 45.6835 72.2099 45.678C72.3648 45.6685 72.4288 45.5864 72.4022 45.432Z" fill="#E30387"/>
<path d="M74.5006 43.7713C74.3925 43.7316 74.279 43.7186 74.1602 43.7323C74.1261 43.7361 74.0918 43.7276 74.0632 43.7081C74.0347 43.6886 74.0137 43.6594 74.004 43.6257C73.9613 43.4699 73.946 43.3106 73.958 43.1479C73.9673 43.0195 74.0348 42.9566 74.1602 42.9593L75.8703 42.9798C75.9025 42.9805 75.9336 42.9922 75.9584 43.0131C75.9831 43.0339 76.0001 43.0627 76.0064 43.0946C76.0772 43.4582 75.961 43.6845 75.658 43.7733C75.6037 43.7887 75.5557 43.8218 75.5211 43.8676C75.4865 43.9134 75.4671 43.9695 75.4658 44.0276L75.3857 47.0478C75.383 47.1763 75.3189 47.2419 75.1935 47.2446L74.783 47.2569C74.6789 47.2596 74.6261 47.2077 74.6248 47.1011L74.5747 43.8779C74.5747 43.8544 74.5676 43.8316 74.5543 43.8124C74.5411 43.7933 74.5223 43.7789 74.5006 43.7713Z" fill="#E30387"/>
<path d="M79.3385 43.9273L79.2163 47.0726C79.2123 47.197 79.1496 47.2592 79.0281 47.2592H78.6737C78.5629 47.2592 78.5048 47.2024 78.4995 47.089L78.3573 43.9642C78.3551 43.917 78.338 43.8717 78.3084 43.8351C78.2788 43.7986 78.2384 43.7726 78.1931 43.7612C77.9275 43.6983 77.816 43.4947 77.8587 43.1502C77.8645 43.1085 77.8846 43.0703 77.9154 43.0425C77.9463 43.0147 77.9858 42.9991 78.0269 42.9985L79.7169 42.9944C79.7699 42.9944 79.8207 43.0154 79.8586 43.053C79.8964 43.0905 79.9181 43.1416 79.9192 43.1953C79.9259 43.5261 79.7857 43.71 79.4987 43.7469C79.3959 43.7605 79.3425 43.8207 79.3385 43.9273Z" fill="#E30387"/>
<path d="M81.6551 45.5653L81.6391 46.2993C81.6388 46.3225 81.6431 46.3454 81.6517 46.3668C81.6603 46.3882 81.673 46.4077 81.689 46.4239C81.7051 46.4402 81.7242 46.453 81.7452 46.4615C81.7662 46.47 81.7887 46.4742 81.8113 46.4736L82.6663 46.449C82.7103 46.4479 82.7529 46.4644 82.7851 46.4951C82.8173 46.5257 82.8364 46.5681 82.8385 46.613L82.8626 47.0682C82.8636 47.0915 82.8601 47.1148 82.8521 47.1367C82.8442 47.1585 82.8319 47.1785 82.8162 47.1953C82.8005 47.2122 82.7816 47.2256 82.7606 47.2348C82.7397 47.244 82.7171 47.2487 82.6944 47.2487L80.9903 47.2589C80.9457 47.2589 80.9029 47.2408 80.8714 47.2085C80.8398 47.1762 80.8221 47.1323 80.8221 47.0867L80.8181 43.1438C80.8181 43.121 80.8225 43.0984 80.8311 43.0774C80.8397 43.0564 80.8523 43.0373 80.8681 43.0213C80.8839 43.0053 80.9027 42.9926 80.9233 42.9841C80.944 42.9756 80.9661 42.9713 80.9883 42.9716L82.6823 42.9818C82.7269 42.9818 82.7697 43 82.8013 43.0323C82.8328 43.0646 82.8505 43.1084 82.8505 43.1541L82.8525 43.5436C82.8531 43.5879 82.837 43.6308 82.8076 43.6632C82.7781 43.6957 82.7376 43.7153 82.6944 43.7179L81.8073 43.7712C81.7658 43.7737 81.7267 43.7918 81.6975 43.8221C81.6682 43.8524 81.651 43.8927 81.6491 43.9352L81.6311 44.4294C81.6295 44.4747 81.6454 44.5189 81.6754 44.5523C81.7054 44.5857 81.747 44.6056 81.7913 44.6078L82.5962 44.6447C82.6185 44.6457 82.6404 44.6513 82.6605 44.6611C82.6807 44.6708 82.6987 44.6846 82.7136 44.7016C82.7285 44.7186 82.74 44.7384 82.7473 44.76C82.7547 44.7815 82.7578 44.8044 82.7564 44.8272L82.7344 45.2147C82.7319 45.2579 82.7136 45.2985 82.6832 45.3285C82.6528 45.3585 82.6124 45.3757 82.5702 45.3767L81.8193 45.3972C81.7761 45.3982 81.7349 45.4163 81.7043 45.4476C81.6738 45.4789 81.6561 45.521 81.6551 45.5653Z" fill="#E30387"/>
<path d="M85.794 45.1101L85.4035 46.0963C85.3936 46.1216 85.3766 46.1434 85.3546 46.1587C85.3326 46.1741 85.3066 46.1824 85.28 46.1827C85.2534 46.1829 85.2273 46.175 85.2051 46.16C85.1829 46.145 85.1655 46.1235 85.1552 46.0984L84.7547 45.1101C84.736 45.0664 84.704 45.0459 84.6586 45.0486C84.6399 45.0486 84.6246 45.0568 84.6126 45.0732C84.5979 45.0923 84.5905 45.1142 84.5905 45.1388C84.5879 45.7717 84.5899 46.4073 84.5965 47.0457C84.5992 47.1892 84.5298 47.2603 84.3883 47.2589H83.9538C83.827 47.2575 83.7635 47.1912 83.7635 47.06L83.7736 43.1458C83.7736 43.016 83.837 42.9531 83.9638 42.9572L84.4223 42.9777C84.5184 42.9818 84.5859 43.029 84.6246 43.1192C84.8061 43.5429 84.9737 43.979 85.1272 44.4273C85.1525 44.5052 85.2013 44.5565 85.2733 44.5811C85.2962 44.589 85.3211 44.5874 85.3429 44.5767C85.3646 44.5659 85.3813 44.5469 85.3895 44.5237C85.5337 44.104 85.6972 43.6619 85.8801 43.1971C86.0062 42.8731 86.3787 42.9326 86.647 43.0044C86.6922 43.0166 86.7323 43.0439 86.7609 43.0821C86.7895 43.1203 86.8051 43.1672 86.8052 43.2156L86.8032 47.0128C86.8032 47.0657 86.7846 47.1168 86.7507 47.1568C86.7169 47.1967 86.6701 47.2228 86.6189 47.2302C86.4414 47.2548 86.2685 47.2507 86.1003 47.2179C86.05 47.2076 86.005 47.1792 85.9733 47.1378C85.9417 47.0965 85.9257 47.0448 85.9281 46.9923C85.9508 46.339 85.9528 45.7197 85.9341 45.1347C85.9261 44.8996 85.8794 44.8914 85.794 45.1101Z" fill="#E30387"/>
<path d="M88.4731 42.9675L87.9645 42.9666C87.866 42.9665 87.7861 43.048 87.7859 43.1488L87.7793 47.0691C87.7791 47.1699 87.8587 47.2517 87.9572 47.2519L88.4658 47.2528C88.5642 47.253 88.6441 47.1714 88.6443 47.0706L88.651 43.1503C88.6511 43.0496 88.5715 42.9677 88.4731 42.9675Z" fill="#E30387"/>
<path d="M90.6678 43.7343L89.8528 43.7753C89.7447 43.7808 89.6873 43.7281 89.6806 43.6174L89.6586 43.1622C89.6519 43.0447 89.706 42.9859 89.8208 42.9859L91.6149 42.9716C91.6803 42.9716 91.7157 43.005 91.721 43.072C91.7504 43.4329 91.7037 43.7596 91.5809 44.0521C91.2778 44.7684 90.9268 45.512 90.5276 46.2829C90.5166 46.3044 90.5114 46.3285 90.5124 46.3528C90.5135 46.377 90.5208 46.4005 90.5336 46.421C90.5464 46.4414 90.5643 46.458 90.5854 46.469C90.6065 46.4801 90.6301 46.4852 90.6538 46.4839L91.4948 46.4346C91.6309 46.4278 91.7004 46.4941 91.703 46.6335L91.709 47.0518C91.7117 47.1899 91.6463 47.2575 91.5128 47.2548L89.7066 47.2261C89.6766 47.2257 89.6477 47.2137 89.6255 47.1926C89.6033 47.1714 89.5894 47.1424 89.5865 47.1113C89.5525 46.7196 89.6085 46.3424 89.7807 45.9897C90.1251 45.2871 90.4575 44.5914 90.7779 43.9024C90.7861 43.884 90.7896 43.8637 90.788 43.8434C90.7864 43.8232 90.7797 43.8037 90.7687 43.7869C90.7576 43.77 90.7426 43.7564 90.7249 43.7472C90.7073 43.7379 90.6876 43.7335 90.6678 43.7343Z" fill="#E30387"/>
<path d="M93.8218 46.4877L94.4565 46.4323C94.4758 46.4307 94.4951 46.433 94.5134 46.4394C94.5317 46.4457 94.5485 46.4558 94.5628 46.4691C94.5771 46.4824 94.5885 46.4985 94.5964 46.5165C94.6043 46.5346 94.6085 46.5541 94.6087 46.5738L94.6147 47.1049C94.615 47.1239 94.6116 47.1428 94.6046 47.1604C94.5977 47.1781 94.5874 47.1941 94.5744 47.2077C94.5613 47.2212 94.5458 47.232 94.5287 47.2393C94.5115 47.2467 94.4931 47.2504 94.4746 47.2504L92.9447 47.2545C92.9076 47.2545 92.8719 47.2394 92.8456 47.2125C92.8193 47.1856 92.8046 47.1491 92.8046 47.111V43.1046C92.8046 43.0665 92.8193 43.03 92.8456 43.0031C92.8719 42.9762 92.9076 42.9611 92.9447 42.9611L93.5414 42.9652C93.5786 42.9652 93.6143 42.9803 93.6406 43.0072C93.6668 43.0341 93.6816 43.0706 93.6816 43.1087L93.6696 46.3442C93.6695 46.3641 93.6735 46.3838 93.6813 46.4021C93.6891 46.4204 93.7005 46.4368 93.7148 46.4503C93.7291 46.4638 93.746 46.4741 93.7644 46.4805C93.7829 46.487 93.8024 46.4894 93.8218 46.4877Z" fill="#E30387"/>
<path d="M96.2585 42.9672H95.7299C95.637 42.9672 95.5617 43.0443 95.5617 43.1394V47.0761C95.5617 47.1712 95.637 47.2483 95.7299 47.2483H96.2585C96.3514 47.2483 96.4267 47.1712 96.4267 47.0761V43.1394C96.4267 43.0443 96.3514 42.9672 96.2585 42.9672Z" fill="#E30387"/>
<path d="M98.2307 47.2118L97.5399 47.259C97.5304 47.2595 97.5208 47.2581 97.5119 47.2547C97.5029 47.2514 97.4947 47.2462 97.4877 47.2394C97.4808 47.2327 97.4753 47.2246 97.4715 47.2156C97.4677 47.2067 97.4658 47.197 97.4658 47.1872L97.4698 43.027C97.4698 43.017 97.4718 43.0072 97.4757 42.998C97.4796 42.9889 97.4853 42.9807 97.4924 42.9739C97.4996 42.9672 97.508 42.962 97.5172 42.9588C97.5265 42.9556 97.5362 42.9544 97.5459 42.9552L98.2548 43.0085C98.273 43.0096 98.2901 43.0179 98.3024 43.0317C98.3148 43.0455 98.3214 43.0636 98.3208 43.0823L98.2768 44.3351C98.2759 44.3515 98.2806 44.3677 98.29 44.3809C98.2994 44.3942 98.3129 44.4038 98.3283 44.4081C98.3438 44.4125 98.3602 44.4112 98.3749 44.4047C98.3895 44.3981 98.4016 44.3866 98.4089 44.372L99.1378 43.0393C99.1438 43.0283 99.1525 43.0191 99.163 43.0126C99.1736 43.0061 99.1856 43.0026 99.1979 43.0024L99.8807 42.9921C99.8929 42.9918 99.9049 42.9947 99.9156 43.0006C99.9263 43.0065 99.9353 43.0152 99.9418 43.0257C99.9483 43.0363 99.952 43.0484 99.9525 43.0608C99.953 43.0733 99.9503 43.0856 99.9448 43.0967L99.0497 44.9072C99.0449 44.9166 99.0423 44.9271 99.0419 44.9377C99.0416 44.9483 99.0436 44.9589 99.0477 44.9687L99.9648 47.1441C99.9691 47.1551 99.9707 47.167 99.9694 47.1787C99.9681 47.1905 99.964 47.2017 99.9575 47.2115C99.9509 47.2212 99.9422 47.2291 99.9319 47.2345C99.9217 47.24 99.9103 47.2427 99.8987 47.2426L99.1779 47.2344C99.1648 47.2341 99.1521 47.2302 99.1411 47.2229C99.1301 47.2157 99.1214 47.2054 99.1158 47.1933L98.423 45.672C98.4158 45.6579 98.4043 45.6467 98.3902 45.6401C98.3762 45.6334 98.3604 45.6317 98.3453 45.6352C98.3302 45.6387 98.3167 45.6473 98.3068 45.6595C98.297 45.6717 98.2913 45.6869 98.2908 45.7027L98.2968 47.14C98.2968 47.1584 98.29 47.176 98.2777 47.1894C98.2654 47.2027 98.2486 47.2108 98.2307 47.2118Z" fill="#E30387"/>
<path d="M38.8163 43.7443C38.7322 43.7292 38.6461 43.7313 38.558 43.7504C38.522 43.7579 38.4845 43.7521 38.452 43.7342C38.4195 43.7162 38.394 43.6872 38.3798 43.652C38.3224 43.5057 38.3023 43.3527 38.3197 43.1927C38.3331 43.067 38.4018 43.0034 38.5259 43.002L40.272 42.9979C40.4335 42.9966 40.5003 43.0779 40.4723 43.2419L40.4342 43.4675C40.4075 43.6288 40.3141 43.7115 40.1539 43.7156C39.943 43.721 39.8342 43.8263 39.8275 44.0313C39.7941 45.1413 39.7908 46.1507 39.8175 47.0597C39.8186 47.098 39.8051 47.1352 39.78 47.1632C39.7549 47.1912 39.7202 47.2078 39.6833 47.2094L39.1447 47.2402C39.0512 47.2456 39.0039 47.2005 39.0025 47.1048L38.9705 43.9268C38.9691 43.8215 38.9177 43.7607 38.8163 43.7443Z" fill="#E30387"/>
<path d="M11.5146 43.9843L11.1262 43.9836C11.0111 43.9834 10.9177 44.0787 10.9175 44.1965L10.9127 47.0383C10.9125 47.1561 11.0056 47.2517 11.1206 47.2519L11.509 47.2526C11.6241 47.2528 11.7175 47.1575 11.7177 47.0398L11.7225 44.198C11.7227 44.0802 11.6296 43.9845 11.5146 43.9843Z" fill="#E30387"/>
<path d="M29.6301 50.0964L29.1657 50.0839C29.0717 50.0814 28.9935 50.1573 28.9911 50.2536L28.9862 50.4462C28.9837 50.5425 29.0579 50.6225 29.1519 50.625L29.6162 50.6375C29.7102 50.64 29.7884 50.564 29.7908 50.4678L29.7958 50.2751C29.7982 50.1789 29.724 50.0989 29.6301 50.0964Z" fill="#E30387"/>
<path d="M41.7516 50.0855L41.3115 50.1043C41.2154 50.1085 41.1407 50.1916 41.1447 50.29L41.154 50.5154C41.158 50.6138 41.2392 50.6903 41.3353 50.6861L41.7755 50.6673C41.8716 50.6631 41.9462 50.58 41.9422 50.4816L41.933 50.2562C41.929 50.1578 41.8478 50.0813 41.7516 50.0855Z" fill="#E30387"/>
<path d="M42.7921 50.0914L42.4558 50.083C42.3563 50.0805 42.2737 50.1611 42.2712 50.263L42.2658 50.4925C42.2633 50.5944 42.342 50.679 42.4415 50.6815L42.7778 50.6899C42.8773 50.6924 42.9599 50.6119 42.9624 50.51L42.9679 50.2804C42.9703 50.1785 42.8916 50.0939 42.7921 50.0914Z" fill="#E30387"/>
<path d="M65.1655 50.081L64.7091 50.0908C64.6207 50.0927 64.5505 50.1677 64.5523 50.2582L64.5572 50.496C64.559 50.5866 64.6322 50.6585 64.7207 50.6566L65.1771 50.6468C65.2656 50.6449 65.3358 50.5699 65.3339 50.4794L65.3291 50.2416C65.3272 50.151 65.254 50.0791 65.1655 50.081Z" fill="#E30387"/>
<path d="M96.7656 50.089L96.217 50.0919C96.1572 50.0923 96.1091 50.1421 96.1094 50.2032L96.111 50.5272C96.1114 50.5884 96.16 50.6377 96.2197 50.6373L96.7684 50.6344C96.8281 50.6341 96.8763 50.5843 96.8759 50.5231L96.8743 50.1991C96.874 50.138 96.8253 50.0887 96.7656 50.089Z" fill="#E30387"/>
<path d="M29.6568 50.8784L29.1562 50.8775C29.0512 50.8773 28.9659 50.9644 28.9657 51.072L28.959 55.0005C28.9588 55.1081 29.0438 55.1954 29.1489 55.1956L29.6495 55.1965C29.7545 55.1967 29.8398 55.1096 29.84 55.0021L29.8467 51.0736C29.8469 50.966 29.7619 50.8786 29.6568 50.8784Z" fill="#E30387"/>
<path d="M65.258 50.8838L64.6373 50.8849C64.5731 50.885 64.5212 50.9384 64.5213 51.0041L64.5283 55.0802C64.5284 55.1459 64.5805 55.199 64.6446 55.1989L65.2653 55.1978C65.3295 55.1977 65.3814 55.1443 65.3813 55.0787L65.3743 51.0025C65.3742 50.9369 65.3221 50.8837 65.258 50.8838Z" fill="#E30387"/>
<path d="M96.7293 50.8751L96.2287 50.876C96.1359 50.8762 96.0607 50.9535 96.0608 51.0486L96.0676 55.0222C96.0678 55.1173 96.1432 55.1943 96.2361 55.1941L96.7367 55.1932C96.8296 55.1931 96.9048 55.1158 96.9046 55.0207L96.8978 51.0471C96.8977 50.952 96.8222 50.875 96.7293 50.8751Z" fill="#E30387"/>
<path d="M10.0738 51.7207L9.72735 51.6592C9.56983 51.6319 9.50308 51.5375 9.52711 51.3762L9.55714 51.163C9.56777 51.0901 9.60363 51.0235 9.6581 50.9757C9.71257 50.9278 9.78197 50.9019 9.8535 50.9026L11.4674 50.9108C11.5186 50.9108 11.5677 50.9317 11.6041 50.9689C11.6404 51.0062 11.6611 51.0568 11.6616 51.1097L11.6636 51.4665C11.6637 51.4941 11.6583 51.5215 11.6479 51.547C11.6375 51.5725 11.6223 51.5956 11.6031 51.6151C11.5839 51.6345 11.5612 51.6499 11.5362 51.6603C11.5112 51.6707 11.4844 51.6759 11.4574 51.6756C11.3439 51.6742 11.2378 51.6947 11.139 51.7371C11.0629 51.7713 11.0249 51.8307 11.0249 51.9155V54.9931C11.0249 55.0207 11.0196 55.0481 11.0093 55.0736C10.999 55.0991 10.9839 55.1223 10.9649 55.1417C10.9459 55.1612 10.9234 55.1765 10.8987 55.1869C10.8739 55.1973 10.8474 55.2025 10.8206 55.2022L10.4062 55.2002C10.2727 55.1988 10.2059 55.1305 10.2059 54.9952L10.2079 51.8868C10.2079 51.7925 10.1632 51.7371 10.0738 51.7207Z" fill="#E30387"/>
<path d="M13.6962 54.3529C13.6308 54.3447 13.5627 54.3467 13.492 54.359C13.4466 54.3672 13.4012 54.3706 13.3558 54.3693C13.0448 54.3624 12.9026 54.5326 12.9293 54.8798C12.9427 55.0466 12.8692 55.1464 12.709 55.1792C12.5435 55.2133 12.3693 55.2147 12.1864 55.1833C12.1674 55.18 12.1492 55.173 12.1328 55.1625C12.1165 55.152 12.1024 55.1383 12.0914 55.1222C12.0804 55.1062 12.0727 55.0881 12.0687 55.069C12.0647 55.0499 12.0646 55.0302 12.0683 55.011L12.7651 51.1358C12.7773 51.0691 12.8121 51.0088 12.8634 50.9657C12.9147 50.9226 12.9791 50.8994 13.0454 50.9L13.8624 50.9123C13.9519 50.9137 14.0053 50.9595 14.0226 51.0497L14.7715 55.0561C14.7889 55.1464 14.7521 55.1915 14.6614 55.1915L14.0787 55.1894C13.9959 55.1894 13.9465 55.1477 13.9305 55.0644L13.8244 54.4779C13.811 54.4041 13.7683 54.3624 13.6962 54.3529ZM13.6602 53.4405C13.6628 52.9156 13.5894 52.4679 13.4399 52.0975C13.3758 51.9375 13.3325 51.943 13.3098 52.1139L13.1416 53.3851C13.1365 53.4225 13.1441 53.4606 13.163 53.493C13.1819 53.5255 13.2111 53.5503 13.2457 53.5635C13.3298 53.5976 13.4166 53.612 13.506 53.6065C13.6088 53.6011 13.6602 53.5457 13.6602 53.4405Z" fill="#E30387"/>
<path d="M16.5419 54.3411L16.5199 54.9767C16.5145 55.1257 16.4391 55.2002 16.2936 55.2002L15.8671 55.2022C15.7336 55.2022 15.6675 55.1346 15.6688 54.9993L15.6748 51.0113C15.6748 50.9963 15.6778 50.9815 15.6834 50.9676C15.6891 50.9538 15.6974 50.9413 15.7078 50.9308C15.7183 50.9203 15.7306 50.912 15.7442 50.9065C15.7578 50.9009 15.7724 50.8982 15.787 50.8985C16.4057 50.9088 17.1686 50.8042 17.6892 51.1486C18.1858 51.4747 18.1218 52.4322 18.0497 52.9345C18.0043 53.2462 17.8481 53.5161 17.5811 53.7444C17.5184 53.7977 17.505 53.8627 17.5411 53.9392L18.0317 54.9767C18.1051 55.1312 18.0577 55.207 17.8895 55.2043L17.4349 55.1961C17.3712 55.1949 17.3092 55.1742 17.2571 55.1365C17.2049 55.0989 17.1651 55.046 17.1426 54.9849C17.0598 54.7566 16.9684 54.5208 16.8683 54.2775C16.668 53.7936 16.5592 53.8148 16.5419 54.3411ZM16.5319 51.8622L16.5279 52.9366C16.5279 52.977 16.5434 53.0158 16.5711 53.0446C16.5989 53.0734 16.6366 53.0898 16.676 53.0904L16.7902 53.0924C16.9091 53.0929 17.0234 53.0422 17.1079 52.9515C17.1924 52.8607 17.2401 52.7374 17.2407 52.6085L17.2447 52.1984C17.245 52.1346 17.2337 52.0714 17.2114 52.0123C17.1891 51.9532 17.1563 51.8995 17.1148 51.8542C17.0733 51.8088 17.024 51.7728 16.9697 51.7482C16.9154 51.7235 16.8571 51.7107 16.7982 51.7104L16.6841 51.7084C16.6642 51.7081 16.6444 51.7119 16.626 51.7195C16.6075 51.7271 16.5907 51.7384 16.5766 51.7527C16.5624 51.767 16.5512 51.7841 16.5435 51.8029C16.5358 51.8216 16.5319 51.8418 16.5319 51.8622Z" fill="#E30387"/>
<path d="M19.7432 50.9013L19.2066 50.9003C19.1214 50.9001 19.0522 50.9707 19.0521 51.0579L19.0453 55.0438C19.0452 55.131 19.1141 55.2018 19.1992 55.202L19.7359 55.2029C19.821 55.2031 19.8902 55.1325 19.8903 55.0453L19.8971 51.0594C19.8973 50.9722 19.8283 50.9014 19.7432 50.9013Z" fill="#E30387"/>
<path d="M21.7379 53.0888L21.7759 54.9875C21.7786 55.12 21.7159 55.1884 21.5877 55.1925L21.1092 55.2068C20.9944 55.2096 20.937 55.1529 20.937 55.0367L20.941 51.0405C20.9409 51.0208 20.9448 51.0014 20.9523 50.9833C20.9598 50.9652 20.9709 50.9489 20.9847 50.9353C20.9985 50.9217 21.0149 50.9111 21.0329 50.9042C21.0508 50.8972 21.07 50.8941 21.0891 50.8949L21.5817 50.9154C21.6658 50.9181 21.7252 50.9598 21.7599 51.0405L22.3246 52.3732C22.41 52.5755 22.4935 52.5742 22.5749 52.3691L23.1135 51.02C23.1482 50.9352 23.2097 50.8935 23.2978 50.8949L23.8124 50.9052C23.8462 50.9062 23.8783 50.9207 23.9018 50.9456C23.9254 50.9705 23.9385 51.0038 23.9385 51.0384L23.9445 54.9669C23.9445 55.1255 23.8671 55.2048 23.7123 55.2048H23.3779C23.1803 55.2034 23.0808 55.1016 23.0795 54.8993L23.0715 53.1134C23.0715 53.0891 23.0624 53.0657 23.0459 53.0481C23.0295 53.0306 23.0071 53.0201 22.9834 53.0191C22.926 53.0164 22.8919 53.041 22.8813 53.0929C22.8265 53.3485 22.7551 53.5829 22.667 53.7962C22.5001 54.2008 22.3493 54.1946 22.2145 53.7777C22.1264 53.5016 22.0036 53.259 21.846 53.0499C21.7713 52.9501 21.7352 52.9631 21.7379 53.0888Z" fill="#E30387"/>
<path d="M26.814 51.9808C26.7646 52.1599 26.8187 52.3246 26.9762 52.475C27.4328 52.9035 27.9614 53.1782 28.0074 53.8979C28.0915 55.2225 26.9582 55.3619 26.0251 55.0933C25.9477 55.0714 25.9063 55.0195 25.9009 54.9375L25.8729 54.4987C25.8715 54.4749 25.8754 54.4511 25.8844 54.4291C25.8934 54.4071 25.9071 54.3876 25.9246 54.3721C25.9421 54.3566 25.9628 54.3455 25.9851 54.3397C26.0074 54.3339 26.0307 54.3336 26.0531 54.3387C26.5991 54.4549 26.9408 54.416 27.0783 54.2219C27.2252 54.0155 27.1978 53.8214 26.9962 53.6396C26.3835 53.0901 25.7828 52.803 25.941 51.7881C26.0952 50.8039 27.0283 50.7977 27.7591 50.9966C27.8366 51.0171 27.8759 51.0691 27.8773 51.1525L27.8873 51.6199C27.8876 51.6344 27.885 51.6487 27.8797 51.6621C27.8744 51.6754 27.8665 51.6875 27.8566 51.6975C27.8466 51.7075 27.8348 51.7153 27.8218 51.7203C27.8088 51.7253 27.795 51.7274 27.7812 51.7266L27.2005 51.6958C27.114 51.6912 27.0286 51.7169 26.9583 51.7687C26.888 51.8206 26.8371 51.8954 26.814 51.9808Z" fill="#E30387"/>
<path d="M31.229 51.7023L30.8986 51.6613C30.8091 51.6504 30.7517 51.6005 30.7264 51.5116C30.6943 51.3913 30.6796 51.2628 30.6823 51.1262C30.685 50.9813 30.7571 50.9088 30.8986 50.9088L32.6206 50.9109C32.6717 50.9115 32.7211 50.9293 32.7613 50.9615C32.8014 50.9937 32.8301 51.0386 32.8429 51.0892C32.8856 51.2656 32.8582 51.4255 32.7608 51.569C32.7154 51.636 32.6533 51.6757 32.5746 51.688L32.3263 51.7249C32.2342 51.7385 32.1881 51.7932 32.1881 51.8889L32.1801 54.9727C32.1788 55.1189 32.1073 55.1941 31.9658 55.1982L31.5874 55.2064C31.4499 55.2105 31.3805 55.1422 31.3791 55.0014L31.3711 51.8663C31.3711 51.7693 31.3237 51.7146 31.229 51.7023Z" fill="#E30387"/>
<path d="M34.6453 54.3941L35.5223 54.4105C35.5671 54.4115 35.6098 54.4302 35.6415 54.4627C35.6732 54.4952 35.6915 54.5389 35.6925 54.5848L35.7005 55.001C35.7008 55.0244 35.6965 55.0477 35.688 55.0694C35.6795 55.0912 35.6669 55.111 35.6509 55.1277C35.6349 55.1445 35.6159 55.1579 35.5948 55.1671C35.5738 55.1763 35.5512 55.1812 35.5283 55.1814L33.8663 55.2101C33.8433 55.2104 33.8204 55.206 33.7991 55.1972C33.7777 55.1883 33.7582 55.1752 33.7419 55.1586C33.7255 55.142 33.7125 55.1223 33.7036 55.1005C33.6947 55.0787 33.6901 55.0554 33.6901 55.0318V51.0766C33.6901 51.053 33.6947 51.0296 33.7036 51.0078C33.7125 50.9861 33.7255 50.9663 33.7419 50.9497C33.7582 50.9331 33.7777 50.92 33.7991 50.9112C33.8204 50.9023 33.8433 50.8979 33.8663 50.8982L35.5283 50.9146C35.5515 50.9149 35.5745 50.9199 35.5958 50.9293C35.6171 50.9388 35.6363 50.9525 35.6524 50.9697C35.6684 50.9869 35.6809 51.0072 35.6892 51.0295C35.6975 51.0517 35.7013 51.0754 35.7005 51.0991L35.6885 51.5215C35.687 51.5674 35.6682 51.6109 35.6361 51.643C35.604 51.6751 35.5611 51.6932 35.5163 51.6937L34.6653 51.7081C34.6205 51.7091 34.5778 51.7278 34.5461 51.7603C34.5144 51.7928 34.4961 51.8365 34.4951 51.8824L34.4871 52.3622C34.4865 52.3859 34.4906 52.4096 34.4992 52.4317C34.5077 52.4538 34.5204 52.474 34.5367 52.491C34.5529 52.508 34.5723 52.5215 34.5937 52.5307C34.6151 52.5399 34.6381 52.5447 34.6613 52.5447L35.4122 52.5385C35.4354 52.5382 35.4584 52.5427 35.4799 52.5517C35.5014 52.5607 35.521 52.5739 35.5374 52.5907C35.5538 52.6075 35.5668 52.6275 35.5755 52.6496C35.5843 52.6716 35.5886 52.6952 35.5884 52.7189L35.5844 53.1557C35.5839 53.2023 35.5655 53.2468 35.5334 53.2798C35.5012 53.3127 35.4577 53.3315 35.4122 53.332L34.6793 53.3361C34.6345 53.3361 34.5913 53.3537 34.5589 53.3854C34.5264 53.4171 34.5072 53.4604 34.5051 53.5063L34.4751 54.2096C34.4743 54.2332 34.478 54.2567 34.4862 54.2788C34.4943 54.3009 34.5067 54.3211 34.5225 54.3382C34.5383 54.3554 34.5573 54.3692 34.5784 54.3788C34.5995 54.3884 34.6222 54.3936 34.6453 54.3941Z" fill="#E30387"/>
<path d="M38.7441 52.4158C38.7909 52.6058 38.8436 52.6072 38.9023 52.4199C39.0225 52.0358 39.1213 51.6394 39.1987 51.2307C39.2401 51.0106 39.3702 50.9013 39.5892 50.9027H39.9195C40.1265 50.904 40.1932 51.0038 40.1198 51.202C39.8848 51.8294 39.6445 52.4876 39.3989 53.1765C39.1907 53.7609 39.2548 54.3637 39.2768 54.9767C39.2821 55.1066 39.2214 55.1743 39.0946 55.1797L38.64 55.2002C38.4798 55.2071 38.3944 55.1278 38.3837 54.9624C38.3397 54.2612 38.4538 53.6481 38.1955 52.9592C37.9619 52.3331 37.739 51.7283 37.5267 51.1446C37.4653 50.9778 37.5214 50.8951 37.6949 50.8965L38.0713 50.9006C38.2716 50.9033 38.3957 51.0038 38.4438 51.202L38.7441 52.4158Z" fill="#E30387"/>
<path d="M43.328 53.9805C43.3278 54.1391 43.297 54.2961 43.2375 54.4425C43.178 54.5889 43.0909 54.7219 42.9811 54.8339C42.8714 54.9458 42.7413 55.0345 42.5981 55.095C42.4549 55.1554 42.3015 55.1864 42.1466 55.1861L41.9904 55.1858C41.8355 55.1855 41.6822 55.154 41.5392 55.0931C41.3962 55.0321 41.2664 54.9429 41.157 54.8306C41.0477 54.7183 40.9611 54.585 40.902 54.4383C40.843 54.2917 40.8128 54.1346 40.8131 53.976L40.8162 52.1266C40.8165 51.968 40.8473 51.811 40.9068 51.6646C40.9663 51.5182 41.0534 51.3852 41.1631 51.2732C41.2728 51.1613 41.403 51.0726 41.5462 51.0121C41.6894 50.9517 41.8428 50.9207 41.9977 50.921L42.1539 50.9213C42.3087 50.9216 42.4621 50.9531 42.605 51.014C42.748 51.075 42.8779 51.1642 42.9872 51.2765C43.0966 51.3889 43.1832 51.5221 43.2422 51.6688C43.3012 51.8154 43.3315 51.9725 43.3312 52.1311L43.328 53.9805ZM42.5004 52.1407C42.5009 52.088 42.4912 52.0356 42.4719 51.9867C42.4526 51.9377 42.424 51.8932 42.3879 51.8555C42.3518 51.8179 42.3088 51.7879 42.2613 51.7673C42.2139 51.7467 42.1629 51.7358 42.1114 51.7354L42.0794 51.7351C42.0278 51.7346 41.9767 51.7445 41.9289 51.7643C41.8811 51.7841 41.8376 51.8133 41.8008 51.8503C41.7641 51.8873 41.7348 51.9313 41.7147 51.9799C41.6945 52.0285 41.6839 52.0807 41.6835 52.1334L41.6679 53.9664C41.6674 54.0192 41.6771 54.0715 41.6964 54.1204C41.7157 54.1694 41.7443 54.2139 41.7804 54.2516C41.8165 54.2892 41.8595 54.3192 41.907 54.3398C41.9544 54.3604 42.0054 54.3713 42.0569 54.3718L42.0889 54.3721C42.1405 54.3725 42.1916 54.3626 42.2394 54.3428C42.2872 54.323 42.3307 54.2938 42.3674 54.2568C42.4042 54.2198 42.4335 54.1758 42.4536 54.1272C42.4738 54.0786 42.4844 54.0265 42.4848 53.9737L42.5004 52.1407Z" fill="#E30387"/>
<path d="M46.0807 52.7208L46.0527 51.185C46.0487 50.9937 46.1401 50.898 46.327 50.898L46.5813 50.8959C46.7695 50.8946 46.8643 50.9903 46.8656 51.183L46.8897 54.9352C46.8897 55.0678 46.8262 55.1464 46.6994 55.171C46.4752 55.2133 46.2763 55.1942 46.1027 55.1136C46.0602 55.0924 46.0273 55.0565 46.0106 55.0131L45.3358 53.2477C45.3158 53.1972 45.2804 53.1691 45.2297 53.1637C45.2017 53.1609 45.1816 53.1698 45.1696 53.1903C45.1616 53.204 45.1583 53.2177 45.1596 53.2313C45.1876 53.8369 45.1876 54.426 45.1596 54.9987C45.1529 55.1354 45.0835 55.2038 44.9514 55.2038L44.5449 55.2017C44.4074 55.2017 44.3386 55.132 44.3386 54.9926L44.3506 51.0518C44.3506 50.9793 44.3847 50.9328 44.4528 50.9123C44.8653 50.7921 45.1436 50.9287 45.2878 51.3224C45.4733 51.8254 45.6595 52.308 45.8464 52.77C46.0093 53.1746 46.0874 53.1582 46.0807 52.7208Z" fill="#E30387"/>
<path d="M51.9577 51.8943L51.9557 54.9514C51.9544 55.1182 51.8723 55.2015 51.7094 55.2015L51.363 55.2036C51.2295 55.205 51.1621 55.1373 51.1608 55.0006L51.1247 51.8799C51.1242 51.8322 51.1053 51.7866 51.072 51.7529C51.0386 51.7192 50.9936 51.7 50.9465 51.6995C50.7863 51.6968 50.6442 51.6592 50.52 51.5867C50.4666 51.5553 50.4386 51.5081 50.4359 51.4453C50.4172 51.0734 50.5768 50.8903 50.9145 50.8957C51.4178 50.9026 51.9037 50.9087 52.3722 50.9142C52.4096 50.9149 52.446 50.9269 52.4766 50.9488C52.5073 50.9708 52.5309 51.0015 52.5444 51.0372C52.6112 51.2177 52.6025 51.3892 52.5184 51.5519C52.4877 51.6106 52.4403 51.6476 52.3762 51.6626L52.0919 51.7241C52.0038 51.7446 51.9591 51.8013 51.9577 51.8943Z" fill="#E30387"/>
<path d="M54.695 54.3899C54.9206 54.3257 55.0341 54.174 55.0354 53.9348L55.0535 51.0868C55.0535 50.9638 55.1135 50.9029 55.2337 50.9043H55.6742C55.8371 50.9043 55.9192 50.9884 55.9205 51.1565C55.9205 52.0327 55.9158 52.956 55.9065 53.9266C55.8985 54.8369 55.4346 55.26 54.5148 55.1957C53.8634 55.1506 53.5216 54.8226 53.4896 54.2116C53.4402 53.2561 53.4168 52.2364 53.4195 51.1524C53.4195 50.9979 53.4943 50.9187 53.6438 50.9146L54.1123 50.9002C54.2472 50.8961 54.3153 50.9638 54.3166 51.1032L54.3206 54.0311C54.3206 54.0595 54.3275 54.0883 54.3406 54.1152C54.4447 54.3353 54.5629 54.4268 54.695 54.3899Z" fill="#E30387"/>
<path d="M57.7707 54.1888L57.7667 54.9433C57.7662 55.0099 57.7407 55.0736 57.6954 55.1211C57.6502 55.1685 57.5889 55.196 57.5244 55.1976L57.1099 55.2078C56.9658 55.2105 56.8937 55.1388 56.8937 54.9925L56.9037 51.0455C56.905 50.9608 56.9471 50.9157 57.0298 50.9102C57.5845 50.8733 58.9661 50.7954 59.1824 51.5069C59.4707 52.4555 59.3493 53.2032 58.818 53.75C58.7606 53.8074 58.7492 53.8737 58.7839 53.9489L59.2505 54.9638C59.3252 55.1278 59.2738 55.2071 59.0963 55.2017L58.6638 55.1894C58.4929 55.1853 58.3808 55.0998 58.3274 54.9331C58.2379 54.6597 58.1378 54.3931 58.027 54.1334C57.8575 53.7315 57.7721 53.75 57.7707 54.1888ZM58.4061 51.9876C58.406 51.9507 58.3987 51.9142 58.3848 51.8801C58.3709 51.8461 58.3506 51.8152 58.3251 51.7892C58.2995 51.7632 58.2692 51.7426 58.2358 51.7286C58.2025 51.7146 58.1668 51.7075 58.1308 51.7076L58.0307 51.708C57.9946 51.7081 57.959 51.7155 57.9258 51.7298C57.8925 51.744 57.8624 51.7648 57.837 51.791C57.8116 51.8171 57.7915 51.8482 57.7778 51.8823C57.7641 51.9164 57.7572 51.953 57.7573 51.9899L57.7601 52.81C57.7602 52.8469 57.7674 52.8834 57.7813 52.9174C57.7952 52.9515 57.8156 52.9824 57.8411 53.0084C57.8667 53.0344 57.897 53.0549 57.9303 53.0689C57.9637 53.0829 57.9994 53.0901 58.0354 53.09L58.1355 53.0896C58.1715 53.0895 58.2072 53.0821 58.2404 53.0678C58.2737 53.0536 58.3038 53.0328 58.3292 53.0066C58.3546 52.9804 58.3747 52.9494 58.3884 52.9153C58.402 52.8811 58.409 52.8446 58.4089 52.8077L58.4061 51.9876Z" fill="#E30387"/>
<path d="M62.0659 51.7022C61.9752 51.6722 61.8777 51.6626 61.7736 51.6735C61.6241 51.6886 61.552 51.6189 61.5573 51.4644L61.5734 51.081C61.5774 50.9675 61.6348 50.9108 61.7456 50.9108L63.4015 50.9026C63.5831 50.9026 63.6739 50.9962 63.6739 51.1835L63.6759 51.4234C63.6759 51.4584 63.669 51.493 63.6556 51.5252C63.6421 51.5573 63.6225 51.5864 63.5978 51.6106C63.573 51.6347 63.5438 51.6535 63.5118 51.6657C63.4798 51.6779 63.4457 51.6834 63.4115 51.6817C63.1526 51.6694 63.0224 51.72 63.0211 51.8335C63.0144 52.8135 63.0131 53.8859 63.0171 55.0505C63.0171 55.0893 63.0022 55.1265 62.9756 55.1542C62.949 55.1818 62.9128 55.1976 62.8749 55.1981L62.3723 55.2084C62.2668 55.2097 62.2141 55.1571 62.2141 55.0505L62.1961 51.8847C62.1961 51.7918 62.1527 51.7309 62.0659 51.7022Z" fill="#E30387"/>
<path d="M67.2439 53.796C67.2517 53.9497 67.3153 54.0948 67.4223 54.2032C67.5293 54.3116 67.6719 54.3755 67.8226 54.3824L68.2871 54.4029C68.3725 54.407 68.4333 54.4487 68.4693 54.528C68.5681 54.7522 68.5494 54.9456 68.4133 55.1083C68.3692 55.1602 68.3138 55.1889 68.2471 55.1944C67.9067 55.2203 67.5456 55.1903 67.1638 55.1042C66.2707 54.9012 66.3468 53.2609 66.3788 52.5494C66.4329 51.3069 67.0036 50.6077 68.2951 50.9829C68.3253 50.9915 68.3525 51.0085 68.3737 51.032C68.3949 51.0556 68.4093 51.0847 68.4153 51.1162C68.4473 51.2802 68.448 51.4442 68.4173 51.6083C68.4012 51.6889 68.3532 51.7279 68.2731 51.7251C67.7645 51.7046 67.2619 51.6841 67.2379 52.3792C67.2205 52.8672 67.2225 53.3395 67.2439 53.796Z" fill="#E30387"/>
<path d="M80.9062 54.5845L80.9402 54.9803C80.9424 55.0052 80.9396 55.0304 80.9319 55.0542C80.9242 55.078 80.9117 55.0999 80.8954 55.1185C80.879 55.1372 80.8591 55.1522 80.8369 55.1626C80.8146 55.1731 80.7905 55.1787 80.766 55.1792L79.2902 55.214C79.2665 55.2146 79.2429 55.2102 79.2208 55.2013C79.1987 55.1924 79.1786 55.179 79.1616 55.162C79.1447 55.145 79.1312 55.1247 79.122 55.1023C79.1128 55.0799 79.108 55.0558 79.108 55.0315L79.12 51.0784C79.12 51.0535 79.1249 51.029 79.1345 51.0061C79.1441 50.9833 79.1581 50.9627 79.1757 50.9456C79.1934 50.9285 79.2142 50.9153 79.237 50.9068C79.2598 50.8982 79.284 50.8945 79.3083 50.8959L79.8049 50.9226C79.8504 50.9252 79.8932 50.9456 79.9245 50.9795C79.9557 51.0135 79.9731 51.0584 79.9731 51.1051L80.0011 54.2134C80.0016 54.2604 80.0198 54.3054 80.0518 54.339C80.0839 54.3726 80.1274 54.3923 80.1733 54.3939L80.736 54.4185C80.7792 54.4203 80.8203 54.4381 80.8516 54.4687C80.8829 54.4992 80.9023 54.5404 80.9062 54.5845Z" fill="#E30387"/>
<path d="M81.8194 51.7327L81.541 51.6753C81.4953 51.666 81.4526 51.6449 81.4172 51.614C81.3818 51.5831 81.3548 51.5435 81.3388 51.499C81.2894 51.365 81.2821 51.214 81.3168 51.0458C81.3355 50.9611 81.3869 50.918 81.471 50.9167L83.2371 50.8982C83.277 50.8978 83.3157 50.9123 83.3463 50.939C83.3768 50.9657 83.397 51.0029 83.4033 51.0438C83.43 51.2228 83.4173 51.3937 83.3652 51.5564C83.3438 51.6206 83.3011 51.6589 83.2371 51.6712L82.9327 51.7266C82.895 51.7333 82.8609 51.7535 82.8364 51.7835C82.8118 51.8135 82.7984 51.8514 82.7985 51.8906L82.7925 54.999C82.7925 55.1288 82.7285 55.1951 82.6003 55.1978L82.1658 55.2081C82.0416 55.2108 81.9789 55.1479 81.9776 55.0195L81.9535 51.8988C81.9535 51.8058 81.9088 51.7505 81.8194 51.7327Z" fill="#E30387"/>
<path d="M84.2702 50.9659C84.2702 50.9479 84.2772 50.9307 84.2896 50.918C84.302 50.9053 84.3188 50.8982 84.3363 50.8982L85.3775 50.9002C85.5577 50.9005 85.736 50.9389 85.9023 51.0132C86.0686 51.0875 86.2197 51.1963 86.3469 51.3334C86.4741 51.4705 86.5749 51.6332 86.6436 51.8122C86.7122 51.9911 86.7474 52.1829 86.7472 52.3765L86.7432 53.7339C86.7426 54.1248 86.5976 54.4996 86.34 54.7756C86.0824 55.0517 85.7333 55.2065 85.3695 55.206L84.3283 55.204C84.3108 55.204 84.294 55.1969 84.2816 55.1842C84.2692 55.1715 84.2622 55.1543 84.2622 55.1363L84.2702 50.9659ZM85.1433 51.7594L85.1393 54.3674C85.1393 54.3805 85.1443 54.393 85.1533 54.4022C85.1623 54.4115 85.1746 54.4166 85.1873 54.4166H85.3415C85.4191 54.4168 85.4961 54.3911 85.5679 54.3409C85.6397 54.2907 85.705 54.2171 85.7601 54.1241C85.8151 54.0312 85.8589 53.9208 85.8887 53.7993C85.9186 53.6778 85.9341 53.5476 85.9342 53.4161V52.7107C85.9345 52.4456 85.8727 52.1914 85.7623 52.0038C85.6519 51.8162 85.502 51.7106 85.3455 51.7101H85.1913C85.1786 51.7101 85.1663 51.7153 85.1573 51.7246C85.1483 51.7338 85.1433 51.7463 85.1433 51.7594Z" fill="#E30387"/>
<path d="M91.6629 55.3648C91.7657 55.4469 91.8184 55.5583 91.8211 55.699C91.8224 55.7811 91.7877 55.8405 91.7169 55.8774C91.446 56.0169 91.2484 56.0654 91.1242 56.023C90.8145 55.9164 90.8085 55.7988 91.1062 55.6703C91.1623 55.6457 91.2163 55.6157 91.2684 55.5801C91.3009 55.5581 91.3259 55.5263 91.3399 55.4891C91.354 55.452 91.3566 55.4112 91.3472 55.3723C91.3378 55.3334 91.3169 55.2983 91.2875 55.2717C91.258 55.245 91.2213 55.2282 91.1823 55.2234L90.5095 55.1413C90.352 55.1222 90.2679 55.032 90.2572 54.8707L90.2372 54.5959C90.2265 54.4387 90.2986 54.3629 90.4534 54.3684L91.1423 54.3991C91.2157 54.4018 91.2784 54.3766 91.3305 54.3232C91.5561 54.0909 91.5601 53.8694 91.3425 53.6589C90.6797 53.0172 90.051 52.7158 90.3233 51.5983C90.5095 50.8335 91.4606 50.8171 92.0593 50.9832C92.1421 51.0064 92.1888 51.0625 92.1995 51.1513C92.2209 51.3235 92.2109 51.478 92.1695 51.6147C92.1454 51.694 92.0934 51.7323 92.0133 51.7295L91.5187 51.7131C91.4282 51.7103 91.3398 51.7422 91.271 51.8025C91.2021 51.8627 91.1577 51.9471 91.1463 52.0391C91.1276 52.1881 91.1756 52.3159 91.2904 52.4225C91.9592 53.0438 92.6621 53.5298 92.2376 54.6206C92.1334 54.8857 91.9512 55.0689 91.6909 55.1701C91.6726 55.1772 91.6565 55.1892 91.6442 55.2048C91.6319 55.2205 91.6239 55.2392 91.6211 55.259C91.6182 55.2789 91.6206 55.2991 91.6279 55.3177C91.6353 55.3363 91.6473 55.3526 91.6629 55.3648Z" fill="#E30387"/>
<path d="M94.5644 51.8604L94.5584 54.9483C94.5584 55.1137 94.477 55.1977 94.3141 55.2005L93.9597 55.2046C93.8248 55.2059 93.7568 55.1376 93.7554 54.9995L93.7274 51.8891C93.7274 51.8153 93.6934 51.764 93.6253 51.7353C93.5278 51.693 93.4224 51.6697 93.3089 51.6656C93.1807 51.6615 93.1147 51.5945 93.1107 51.4647L93.1006 51.1059C93.0966 50.976 93.158 50.9111 93.2849 50.9111L94.9488 50.907C95.1371 50.907 95.2305 51.0027 95.2292 51.194L95.2272 51.397C95.2245 51.5652 95.1417 51.6608 94.9789 51.6841L94.6765 51.7292C94.6018 51.7388 94.5644 51.7825 94.5644 51.8604Z" fill="#E30387"/>
<path d="M73.1631 53.9568C73.2726 53.328 73.3653 52.6999 73.4414 52.0725C73.4521 51.9919 73.4975 51.9502 73.5776 51.9474L74.0802 51.9351C74.203 51.931 74.2517 51.9905 74.2264 52.1135L73.6216 55.0538C73.6003 55.1563 73.5382 55.2068 73.4354 55.2055L72.7926 55.1911C72.7072 55.1884 72.6545 55.144 72.6345 55.0579L72.0057 52.1771C71.9697 52.0158 72.0324 51.9351 72.1939 51.9351L72.5884 51.931C72.7299 51.931 72.8073 52.0028 72.8207 52.1463C72.8768 52.7546 72.9608 53.3588 73.073 53.9589C73.1037 54.1229 73.1337 54.1222 73.1631 53.9568Z" fill="#E30387"/>
<path d="M75.8023 54.0581C75.7756 54.1469 75.7756 54.2365 75.8023 54.3267C75.8303 54.4237 75.8924 54.4866 75.9885 54.5153C76.2915 54.6028 76.5832 54.6192 76.8635 54.5645C76.9055 54.5562 76.9491 54.5645 76.9858 54.5876C77.0224 54.6107 77.0495 54.6471 77.0618 54.6896L77.0858 54.7798C77.1352 54.9616 77.0704 55.0758 76.8916 55.1222C76.1026 55.3273 75.1555 55.1858 75.0514 54.1647C74.9833 53.5065 74.8952 52.2086 75.7222 52.0016C77.0878 51.6591 77.24 52.8504 77.1939 53.8284C77.1899 53.9009 77.1525 53.9378 77.0818 53.9392L75.9164 53.9699C75.8577 53.9713 75.8196 54.0007 75.8023 54.0581ZM75.9104 53.3487L76.2788 53.3528C76.2967 53.353 76.3145 53.3497 76.3311 53.3429C76.3477 53.3362 76.3629 53.3261 76.3757 53.3134C76.3885 53.3006 76.3988 53.2854 76.4059 53.2686C76.4129 53.2518 76.4167 53.2337 76.417 53.2154V53.1785C76.4193 53.0104 76.3932 52.8487 76.3445 52.7288C76.2957 52.6089 76.2281 52.5406 76.1567 52.5388H76.0566C76.021 52.5378 75.9855 52.5534 75.9521 52.5847C75.9187 52.616 75.8881 52.6623 75.862 52.721C75.836 52.7796 75.815 52.8496 75.8003 52.9267C75.7856 53.0038 75.7774 53.0866 75.7762 53.1703V53.2072C75.776 53.2255 75.7792 53.2437 75.7858 53.2607C75.7924 53.2777 75.8022 53.2932 75.8147 53.3064C75.8271 53.3195 75.842 53.33 75.8584 53.3373C75.8749 53.3445 75.8925 53.3484 75.9104 53.3487Z" fill="#E30387"/>
<path d="M48.4403 54.3923L48.1199 54.3917C47.9717 54.3915 47.8514 54.5142 47.8511 54.666L47.8507 54.9202C47.8504 55.072 47.9703 55.1952 48.1185 55.1955L48.4389 55.196C48.5871 55.1963 48.7074 55.0735 48.7077 54.9218L48.7081 54.6675C48.7084 54.5158 48.5885 54.3926 48.4403 54.3923Z" fill="#E30387"/>
<path d="M60.8107 54.3835L60.4584 54.3942C60.3213 54.3984 60.2135 54.5155 60.2176 54.6559L60.2264 54.9592C60.2304 55.0995 60.3448 55.2099 60.4819 55.2058L60.8342 55.1951C60.9712 55.1909 61.0791 55.0738 61.075 54.9334L61.0662 54.6301C61.0621 54.4897 60.9477 54.3793 60.8107 54.3835Z" fill="#E30387"/>
<path d="M70.0353 54.3938H69.6188C69.5105 54.3938 69.4226 54.4838 69.4226 54.5947V55.0007C69.4226 55.1117 69.5105 55.2016 69.6188 55.2016H70.0353C70.1437 55.2016 70.2316 55.1117 70.2316 55.0007V54.5947C70.2316 54.4838 70.1437 54.3938 70.0353 54.3938Z" fill="#E30387"/>
<path d="M88.1522 54.3823L87.8318 54.3828C87.687 54.3831 87.5697 54.5036 87.57 54.6519L87.5705 54.939C87.5707 55.0873 87.6884 55.2073 87.8332 55.2071L88.1536 55.2065C88.2985 55.2063 88.4157 55.0858 88.4155 54.9374L88.415 54.6504C88.4147 54.502 88.2971 54.382 88.1522 54.3823Z" fill="#E30387"/>
</g>
<defs>
<clipPath id="clip0_972_4100">
<rect width="109.53" height="57.0004" fill="white"/>
</clipPath>
</defs>
</svg>
