<svg width="15.000000" height="15.000000" viewBox="0 0 15 15" fill="none" xmlns="http://www.w3.org/2000/svg" xmlns:xlink="http://www.w3.org/1999/xlink">
	<desc>
			Created with Pixso.
	</desc>
	<defs>
		<clipPath id="clip112_5013">
			<rect id="Hicon / Outline / Add Square" width="15.000000" height="15.000000" fill="white" fill-opacity="0"/>
		</clipPath>
	</defs>
	<g clip-path="url(#clip112_5013)">
		<path id="Vector" d="M7.52 1.4C8.67 1.4 9.57 1.4 10.28 1.48C11.01 1.56 11.6 1.72 12.11 2.09C12.41 2.31 12.68 2.58 12.9 2.88C13.27 3.39 13.43 3.98 13.51 4.71C13.59 5.42 13.59 6.32 13.59 7.47L13.59 7.52C13.59 8.67 13.59 9.57 13.51 10.28C13.43 11.01 13.27 11.6 12.9 12.11C12.68 12.41 12.41 12.68 12.11 12.9C11.6 13.27 11.01 13.43 10.28 13.51C9.57 13.59 8.67 13.59 7.52 13.59L7.47 13.59C6.32 13.59 5.42 13.59 4.71 13.51C3.98 13.43 3.39 13.27 2.88 12.9C2.58 12.68 2.31 12.41 2.09 12.11C1.72 11.6 1.56 11.01 1.48 10.28C1.4 9.57 1.4 8.67 1.4 7.52L1.4 7.47C1.4 6.32 1.4 5.42 1.48 4.71C1.56 3.98 1.72 3.39 2.09 2.88C2.31 2.58 2.58 2.31 2.88 2.09C3.39 1.72 3.98 1.56 4.71 1.48C5.42 1.4 6.32 1.4 7.47 1.4L7.52 1.4ZM4.81 2.41C4.16 2.48 3.75 2.62 3.43 2.85C3.21 3.01 3.01 3.21 2.85 3.43C2.62 3.75 2.48 4.16 2.41 4.81C2.34 5.46 2.34 6.31 2.34 7.5C2.34 8.68 2.34 9.53 2.41 10.18C2.48 10.83 2.62 11.24 2.85 11.56C3.01 11.78 3.21 11.98 3.43 12.14C3.75 12.37 4.16 12.51 4.81 12.58C5.46 12.65 6.31 12.65 7.5 12.65C8.68 12.65 9.53 12.65 10.18 12.58C10.83 12.51 11.24 12.37 11.56 12.14C11.78 11.98 11.98 11.78 12.14 11.56C12.37 11.24 12.51 10.83 12.58 10.18C12.65 9.53 12.65 8.68 12.65 7.5C12.65 6.31 12.65 5.46 12.58 4.81C12.51 4.16 12.37 3.75 12.14 3.43C11.98 3.21 11.78 3.01 11.56 2.85C11.24 2.62 10.83 2.48 10.18 2.41C9.53 2.34 8.68 2.34 7.5 2.34C6.31 2.34 5.46 2.34 4.81 2.41ZM7.5 5.15C7.75 5.15 7.96 5.36 7.96 5.62L7.96 7.03L9.37 7.03C9.63 7.03 9.84 7.24 9.84 7.5C9.84 7.75 9.63 7.96 9.37 7.96L7.96 7.96L7.96 9.37C7.96 9.63 7.75 9.84 7.5 9.84C7.24 9.84 7.03 9.63 7.03 9.37L7.03 7.96L5.62 7.96C5.36 7.96 5.15 7.75 5.15 7.5C5.15 7.24 5.36 7.03 5.62 7.03L7.03 7.03L7.03 5.62C7.03 5.36 7.24 5.15 7.5 5.15Z" fill="#677179" fill-opacity="1.000000" fill-rule="evenodd"/>
	</g>
</svg>
