<svg width="27.000000" height="22.000000" viewBox="0 0 27 22" fill="none" xmlns="http://www.w3.org/2000/svg" xmlns:xlink="http://www.w3.org/1999/xlink">
	<desc>
			Created with Pixso.
	</desc>
	<defs/>
	<path id="Vector" d="M-0.38 10.02C-0.64 10.28 -0.79 10.63 -0.79 11L-0.79 16.5C-0.79 16.86 -0.64 17.21 -0.38 17.47C-0.12 17.72 0.22 17.87 0.59 17.87L1.96 17.87L1.96 9.62L0.59 9.62C0.22 9.62 -0.12 9.77 -0.38 10.02ZM19.15 4.12L14.34 4.12L14.34 1.37C14.34 0.61 13.72 0 12.97 0C12.21 0 11.59 0.61 11.59 1.37L11.59 4.12L6.78 4.12C4.88 4.12 3.34 5.66 3.34 7.56L3.34 19.25C3.34 20.77 4.57 22 6.09 22L19.84 22C21.36 22 22.59 20.77 22.59 19.25L22.59 7.56C22.59 5.66 21.06 4.12 19.15 4.12ZM10.22 17.87L7.46 17.87L7.46 16.5L10.22 16.5L10.22 17.87ZM8.84 12.71C7.89 12.71 7.12 11.94 7.12 11C7.12 10.05 7.89 9.28 8.84 9.28C9.79 9.28 10.56 10.05 10.56 11C10.56 11.94 9.79 12.71 8.84 12.71ZM14.34 17.87L11.59 17.87L11.59 16.5L14.34 16.5L14.34 17.87ZM18.46 17.87L15.72 17.87L15.72 16.5L18.46 16.5L18.46 17.87ZM17.09 12.71C16.14 12.71 15.37 11.95 15.37 11C15.37 10.04 16.14 9.28 17.09 9.28C18.04 9.28 18.81 10.05 18.81 11C18.81 11.94 18.04 12.71 17.09 12.71ZM26.31 10.02C26.05 9.77 25.71 9.62 25.34 9.62L23.97 9.62L23.97 17.87L25.34 17.87C25.71 17.87 26.05 17.73 26.31 17.47C26.57 17.21 26.72 16.86 26.72 16.5L26.72 11C26.72 10.63 26.57 10.28 26.31 10.02Z" fill="#788189" fill-opacity="1.000000" fill-rule="nonzero"/>
</svg>
