<svg width="22.000000" height="22.000000" viewBox="0 0 22 22" fill="none" xmlns="http://www.w3.org/2000/svg" xmlns:xlink="http://www.w3.org/1999/xlink">
	<desc>
			Created with Pixso.
	</desc>
	<defs>
		<clipPath id="clip575_364">
			<rect id="Img" width="22.000000" height="22.000000" fill="white" fill-opacity="0"/>
		</clipPath>
	</defs>
	<g clip-path="url(#clip575_364)">
		<path id="Vector" d="M0.68 4.12C0.68 2.98 1.61 2.06 2.75 2.06C3.88 2.06 4.81 2.98 4.81 4.12C4.81 5.26 3.88 6.18 2.75 6.18C1.61 6.18 0.68 5.26 0.68 4.12ZM20.62 2.75C21.38 2.75 22 3.36 22 4.12C22 4.88 21.38 5.5 20.62 5.5L8.25 5.5C7.48 5.5 6.87 4.88 6.87 4.12C6.87 3.36 7.48 2.75 8.25 2.75L20.62 2.75ZM20.62 9.62C21.38 9.62 22 10.23 22 11C22 11.76 21.38 12.37 20.62 12.37L8.25 12.37C7.48 12.37 6.87 11.76 6.87 11C6.87 10.23 7.48 9.62 8.25 9.62L20.62 9.62ZM20.62 16.5C21.38 16.5 22 17.11 22 17.87C22 18.63 21.38 19.25 20.62 19.25L8.25 19.25C7.48 19.25 6.87 18.63 6.87 17.87C6.87 17.11 7.48 16.5 8.25 16.5L20.62 16.5ZM0.68 17.87C0.68 16.73 1.61 15.81 2.75 15.81C3.88 15.81 4.81 16.73 4.81 17.87C4.81 19.01 3.88 19.93 2.75 19.93C1.61 19.93 0.68 19.01 0.68 17.87ZM4.81 11C4.81 12.13 3.88 13.06 2.75 13.06C1.61 13.06 0.68 12.13 0.68 11C0.68 9.86 1.61 8.93 2.75 8.93C3.88 8.93 4.81 9.86 4.81 11Z" fill="#788189" fill-opacity="1.000000" fill-rule="nonzero"/>
	</g>
</svg>
