<svg width="22.000000" height="19.000000" viewBox="0 0 22 19" fill="none" xmlns="http://www.w3.org/2000/svg" xmlns:xlink="http://www.w3.org/1999/xlink">
	<desc>
			Created with Pixso.
	</desc>
	<defs/>
	<path id="Vector" d="M10.22 -0.67C4.14 -0.67 -0.75 3.33 -0.75 8.27C-0.75 10.4 0.17 12.35 1.7 13.88C1.16 16.05 -0.63 17.98 -0.65 18C-0.75 18.1 -0.78 18.25 -0.72 18.38C-0.66 18.5 -0.54 18.58 -0.4 18.58C2.44 18.58 4.54 17.22 5.64 16.37C7.04 16.9 8.6 17.2 10.25 17.2C16.33 17.2 21.21 13.2 21.21 8.31C21.21 3.41 16.29 -0.67 10.22 -0.67ZM4.68 9.64C3.91 9.64 3.3 9.03 3.3 8.31C3.3 7.58 3.91 6.93 4.68 6.93C5.44 6.93 6.05 7.54 6.05 8.31C6.05 9.07 5.48 9.64 4.68 9.64ZM10.22 9.64C9.45 9.64 8.88 9.03 8.88 8.31C8.88 7.58 9.49 6.93 10.22 6.93C10.94 6.93 11.55 7.54 11.55 8.31C11.55 9.07 10.98 9.64 10.22 9.64ZM15.68 9.64C14.91 9.64 14.3 9.03 14.3 8.31C14.3 7.58 14.91 6.93 15.68 6.93C16.44 6.93 17.05 7.54 17.05 8.31C17.05 9.07 16.48 9.64 15.68 9.64Z" fill="#788189" fill-opacity="1.000000" fill-rule="nonzero"/>
</svg>
