<svg width="5.000000" height="11.000000" viewBox="0 0 5 11" fill="none" xmlns="http://www.w3.org/2000/svg" xmlns:xlink="http://www.w3.org/1999/xlink">
	<defs/>
	<path id="Vector" d="M0.52 -0.54C0.23 -0.83 -0.25 -0.83 -0.54 -0.53C-0.83 -0.24 -0.83 0.24 -0.53 0.53L1.23 2.28C1.95 2.98 2.44 3.47 2.77 3.89C3.09 4.29 3.2 4.55 3.23 4.78C3.25 4.92 3.25 5.07 3.23 5.21C3.2 5.44 3.09 5.7 2.77 6.1C2.44 6.52 1.95 7.01 1.23 7.71L-0.53 9.46C-0.83 9.75 -0.83 10.23 -0.54 10.52C-0.25 10.82 0.23 10.82 0.52 10.53L2.32 8.75C2.99 8.08 3.55 7.53 3.94 7.04C4.35 6.54 4.64 6.02 4.72 5.4C4.75 5.13 4.75 4.86 4.72 4.59C4.64 3.97 4.35 3.45 3.94 2.95C3.55 2.46 2.99 1.91 2.32 1.24L0.52 -0.54Z" fill="#677179" fill-opacity="1.000000" fill-rule="nonzero"/>
</svg>
