<svg xmlns="http://www.w3.org/2000/svg" width="52" height="46" viewBox="0 0 52 58" fill="none">
                                <path fill-rule="evenodd" clip-rule="evenodd" d="M44.1759 55.194C37.0755 50.3711 29.9725 45.5506 22.8721 40.7276C22.2297 40.173 21.3708 39.2427 21.0951 37.9222C20.7505 36.2704 21.4249 34.8051 21.8015 34.248C28.7961 23.9295 35.7883 13.6136 42.7829 3.29516C43.9495 1.58933 45.9578 0.737643 47.8579 1.07145C50.1074 1.46661 51.8794 3.46697 52 5.92631C51.9778 21.021 51.9532 36.1158 51.9311 51.2105C51.9311 52.7642 50.5873 55.0051 48.5519 55.7561C46.8414 56.3894 45.057 55.6408 44.1784 55.1916L44.1759 55.194Z" fill="#1973A2"></path>
                                <path fill-rule="evenodd" clip-rule="evenodd" d="M51.9975 7.52974C51.9975 6.99469 52 6.4621 52 5.92705C51.8794 3.46534 50.1073 1.4675 47.8577 1.07235C45.9576 0.736106 43.9492 1.58776 42.7825 3.29599C35.7901 13.6116 28.7951 23.9297 21.8002 34.2478C21.4236 34.8024 20.7492 36.2701 21.0963 37.9195C21.3719 39.2399 22.2309 40.1701 22.8733 40.7248C25.8662 42.757 28.8616 44.7916 31.8545 46.8238C30.3211 45.7537 29.4966 44.0455 29.4966 42.3029C29.4966 41.2353 29.8067 40.1554 30.454 39.2055L51.9975 7.52974ZM39.6198 45.4052C37.9412 47.8718 34.6185 48.5566 32.108 46.9932C36.1322 49.7273 40.1564 52.459 44.1781 55.1907C45.0568 55.6398 46.8412 56.3884 48.5518 55.7576C50.5872 55.0042 51.9286 52.7633 51.9311 51.2097L51.968 27.2504L39.6198 45.4052Z" fill="url(#paint0_linear_993_893)"></path>
                                <path fill-rule="evenodd" clip-rule="evenodd" d="M31.8218 46.8281C31.8785 46.865 31.9352 46.9044 31.9919 46.9438C31.9598 46.9217 31.9278 46.902 31.8957 46.8798L31.8218 46.8281Z" fill="white"></path>
                                <path fill-rule="evenodd" clip-rule="evenodd" d="M2.17781 26.8964C9.2037 31.6016 16.2271 36.3067 23.253 41.0119C24.3476 41.7061 25.6714 41.9563 26.9459 41.711C28.2205 41.4657 29.3545 40.7396 30.1063 39.6896C37.0977 29.3962 44.0916 19.1028 51.083 8.80689C52.2367 7.09459 52.2761 4.92845 51.2506 3.30201C50.0377 1.37874 47.5084 0.490703 45.1689 1.29779C31.1048 6.95476 17.0407 12.6117 2.97654 18.2687C1.04134 19.2205 -0.0926646 21.1364 0.00594445 23.0793C0.0848317 24.6273 0.927939 26.0108 2.17534 26.8964H2.17781Z" fill="#2699D6"></path>
                                <path fill-rule="evenodd" clip-rule="evenodd" d="M51.2508 3.3048C50.0355 1.37908 47.5061 0.49349 45.1691 1.30058C44.4295 1.59741 43.69 1.89669 42.9504 2.19352C43.017 2.1739 43.0811 2.15182 43.1476 2.12484C43.0194 2.4462 42.8912 2.76756 42.763 3.08892C35.7692 13.3823 28.7778 23.6758 21.784 33.9692C20.2358 36.2531 17.1272 36.8664 14.8148 35.3601C17.6276 37.2441 20.4404 39.1282 23.2532 41.0122C24.3478 41.7089 25.6692 41.9591 26.9461 41.7113C28.2207 41.466 29.3522 40.7423 30.1041 39.6899C37.0979 29.3965 44.0893 19.1031 51.0832 8.80967C52.2344 7.09737 52.2763 4.92879 51.2508 3.3048ZM13.3948 28.3515C17.8051 21.8187 22.2129 15.2934 26.6232 8.76061C18.7419 11.9301 10.8581 15.0996 2.97676 18.269C1.04402 19.2208 -0.0899789 21.1368 0.00863015 23.0797C0.0875174 24.6276 0.930625 26.0136 2.17803 26.8968C6.35905 29.6983 10.5401 32.4973 14.7236 35.2988C12.4383 33.7386 11.8417 30.6403 13.3948 28.3515Z" fill="url(#paint1_linear_993_893)"></path>
                                <path fill-rule="evenodd" clip-rule="evenodd" d="M26.6304 8.74835C26.6304 8.74835 26.6255 8.75571 26.623 8.75817C28.8837 7.8505 31.1418 6.94283 33.4024 6.03271C31.1443 6.93793 28.8886 7.84314 26.6304 8.74835Z" fill="white"></path>
                                <defs>
                                  <linearGradient id="paint0_linear_993_893" x1="34.2862" y1="46.9809" x2="51.6794" y2="21.3929" gradientUnits="userSpaceOnUse">
                                    <stop stop-color="white" stop-opacity="0"></stop>
                                    <stop offset="1" stop-color="white"></stop>
                                  </linearGradient>
                                  <linearGradient id="paint1_linear_993_893" x1="9.82269" y1="40.448" x2="36.9633" y2="-3.67096" gradientUnits="userSpaceOnUse">
                                    <stop stop-color="white" stop-opacity="0"></stop>
                                    <stop offset="1" stop-color="white"></stop>
                                  </linearGradient>
                                </defs>
                              </svg>