<svg width="22.000000" height="19.000000" viewBox="0 0 22 19" fill="none" xmlns="http://www.w3.org/2000/svg" xmlns:xlink="http://www.w3.org/1999/xlink">
	<desc>
			Created with Pixso.
	</desc>
	<defs/>
	<path id="Vector" d="M20.5 -0.63L5.38 -0.63C4.61 -0.63 4 -0.01 4 0.75L4 15.18C4 15.56 3.69 15.87 3.31 15.87C2.93 15.87 2.63 15.56 2.63 15.18L2.63 2.12L1.25 2.12C0.49 2.12 -0.12 2.73 -0.12 3.5L-0.12 15.87C-0.12 17.39 1.11 18.62 2.63 18.62L19.12 18.62C20.64 18.62 21.88 17.39 21.88 15.87L21.88 0.75C21.88 -0.01 21.26 -0.63 20.5 -0.63ZM11.56 15.87L7.44 15.87C7.06 15.87 6.75 15.56 6.75 15.18C6.75 14.8 7.06 14.5 7.44 14.5L11.56 14.5C11.94 14.5 12.25 14.8 12.25 15.18C12.25 15.56 11.94 15.87 11.56 15.87ZM11.56 11.75L7.44 11.75C7.06 11.75 6.75 11.44 6.75 11.06C6.75 10.68 7.06 10.37 7.44 10.37L11.56 10.37C11.94 10.37 12.25 10.68 12.25 11.06C12.25 11.44 11.94 11.75 11.56 11.75ZM18.44 15.87L14.31 15.87C13.93 15.87 13.63 15.56 13.63 15.18C13.63 14.8 13.93 14.5 14.31 14.5L18.44 14.5C18.82 14.5 19.12 14.8 19.12 15.18C19.12 15.56 18.82 15.87 18.44 15.87ZM18.44 11.75L14.31 11.75C13.93 11.75 13.63 11.44 13.63 11.06C13.63 10.68 13.93 10.37 14.31 10.37L18.44 10.37C18.82 10.37 19.12 10.68 19.12 11.06C19.12 11.44 18.82 11.75 18.44 11.75ZM19.12 6.93C19.12 7.31 18.82 7.62 18.44 7.62L7.44 7.62C7.06 7.62 6.75 7.31 6.75 6.93L6.75 2.81C6.75 2.43 7.06 2.12 7.44 2.12L18.44 2.12C18.82 2.12 19.12 2.43 19.12 2.81L19.12 6.93Z" fill="#788189" fill-opacity="1.000000" fill-rule="nonzero"/>
</svg>
